<svg width="128" height="40" viewBox="0 0 128 40" fill="none" xmlns="http://www.w3.org/2000/svg">
<rect x="0.5" y="0.5" width="127" height="39" rx="3.5" fill="#221F1F"/>
<path d="M26.8683 19.7644C26.8418 16.732 29.2839 15.257 29.3958 15.188C28.0125 13.1151 25.8685 12.8319 25.1158 12.8099C23.3155 12.6155 21.5691 13.9169 20.6517 13.9169C19.7159 13.9169 18.3031 12.8287 16.7815 12.8601C14.8225 12.8914 12.9897 14.057 11.9848 15.8664C9.91087 19.5575 11.4579 24.9806 13.4454 27.964C14.4391 29.4253 15.6017 31.056 17.1212 30.9985C18.6093 30.9358 19.1646 30.0243 20.9598 30.0243C22.7388 30.0243 23.2606 30.9985 24.8107 30.9619C26.4075 30.9358 27.4124 29.4943 28.3716 28.0204C29.5199 26.3458 29.9817 24.6963 30 24.6116C29.9613 24.6001 26.8988 23.398 26.8683 19.7644Z" fill="white"/>
<path d="M23.939 10.8468C24.7395 9.81819 25.2867 8.41955 25.1342 7C23.9767 7.05227 22.5283 7.82267 21.6943 8.82931C20.9568 9.71575 20.2978 11.1677 20.4676 12.5339C21.7685 12.6332 23.104 11.8597 23.939 10.8468Z" fill="white"/>
<path d="M50.281 30.1569H48.237L47.117 26.6389H43.225L42.158 30.1569H40.168L44.024 18.1799H46.405L50.281 30.1569ZM46.78 25.1629L45.767 22.0349C45.66 21.7159 45.459 20.9629 45.163 19.7789H45.127C45.009 20.2879 44.819 21.0409 44.558 22.0349L43.564 25.1629H46.78Z" fill="white"/>
<path d="M60.1959 25.7319C60.1959 27.2009 59.7989 28.3619 59.0049 29.2139C58.2939 29.9729 57.4109 30.3519 56.3569 30.3519C55.2189 30.3519 54.4019 29.9429 53.9049 29.1259H53.8689V33.6749H51.9499V24.3629C51.9499 23.4399 51.9259 22.4919 51.8789 21.5199H53.5669L53.6739 22.8889H53.7099C54.3499 21.8579 55.3209 21.3429 56.6239 21.3429C57.6429 21.3429 58.4929 21.7449 59.1739 22.5509C59.8559 23.3569 60.1959 24.4169 60.1959 25.7319ZM58.2409 25.8019C58.2409 24.9609 58.0519 24.2679 57.6719 23.7229C57.2569 23.1539 56.6999 22.8699 56.0019 22.8699C55.5289 22.8699 55.0979 23.0279 54.7139 23.3409C54.3289 23.6559 54.0769 24.0669 53.9589 24.5769C53.8999 24.8149 53.8699 25.0089 53.8699 25.1619V26.6019C53.8699 27.2299 54.0629 27.7599 54.4479 28.1929C54.8329 28.6259 55.3339 28.8419 55.9489 28.8419C56.6719 28.8419 57.2339 28.5629 57.6369 28.0069C58.0389 27.4489 58.2409 26.7149 58.2409 25.8019Z" fill="white"/>
<path d="M70.129 25.7319C70.129 27.2009 69.732 28.3619 68.937 29.2139C68.227 29.9729 67.344 30.3519 66.29 30.3519C65.152 30.3519 64.335 29.9429 63.838 29.1259H63.802V33.6749H61.883V24.3629C61.883 23.4399 61.859 22.4919 61.812 21.5199H63.5L63.607 22.8889H63.643C64.282 21.8579 65.253 21.3429 66.557 21.3429C67.575 21.3429 68.425 21.7449 69.108 22.5509C69.788 23.3569 70.129 24.4169 70.129 25.7319ZM68.174 25.8019C68.174 24.9609 67.984 24.2679 67.604 23.7229C67.189 23.1539 66.634 22.8699 65.934 22.8699C65.46 22.8699 65.03 23.0279 64.645 23.3409C64.26 23.6559 64.009 24.0669 63.891 24.5769C63.832 24.8149 63.802 25.0089 63.802 25.1619V26.6019C63.802 27.2299 63.995 27.7599 64.378 28.1929C64.763 28.6249 65.264 28.8419 65.881 28.8419C66.604 28.8419 67.166 28.5629 67.569 28.0069C67.973 27.4489 68.174 26.7149 68.174 25.8019Z" fill="white"/>
<path d="M81.235 26.7979C81.235 27.8169 80.881 28.6459 80.171 29.2859C79.391 29.9849 78.304 30.3349 76.908 30.3349C75.6189 30.3349 74.586 30.0869 73.804 29.5889L74.249 27.9899C75.091 28.4989 76.016 28.7549 77.023 28.7549C77.746 28.7549 78.308 28.5909 78.712 28.2649C79.114 27.9389 79.315 27.5019 79.315 26.9559C79.315 26.4699 79.149 26.0599 78.817 25.7279C78.487 25.3959 77.935 25.0869 77.165 24.8019C75.068 24.0199 74.02 22.8739 74.02 21.3679C74.02 20.3829 74.387 19.5759 75.122 18.9479C75.855 18.3189 76.832 18.0049 78.054 18.0049C79.144 18.0049 80.049 18.1949 80.772 18.5739L80.292 20.1379C79.617 19.7709 78.854 19.5869 78 19.5869C77.325 19.5869 76.798 19.7539 76.42 20.0849C76.101 20.3809 75.94 20.7419 75.94 21.1689C75.94 21.6419 76.123 22.0339 76.49 22.3419C76.81 22.6259 77.39 22.9339 78.232 23.2659C79.262 23.6809 80.019 24.1659 80.506 24.7219C80.993 25.2759 81.235 25.9699 81.235 26.7979Z" fill="white"/>
<path d="M87.5791 22.9599H85.4641V27.1529C85.4641 28.2189 85.8371 28.7519 86.5841 28.7519C86.9271 28.7519 87.2111 28.7219 87.4361 28.6629L87.4891 30.1199C87.1111 30.2609 86.6131 30.3319 85.9971 30.3319C85.2391 30.3319 84.6471 30.1009 84.2201 29.6389C83.7941 29.1759 83.5801 28.4009 83.5801 27.3109V22.9579H82.3201V21.5179H83.5801V19.9369L85.4651 19.3679V21.5179H87.5801L87.5791 22.9599Z" fill="white"/>
<path d="M97.1221 25.7669C97.1221 27.0949 96.7421 28.1839 95.9841 29.0369C95.1891 29.9139 94.1351 30.3519 92.8201 30.3519C91.5531 30.3519 90.5441 29.9319 89.7921 29.0909C89.0401 28.2499 88.6631 27.1889 88.6631 25.9099C88.6631 24.5719 89.0501 23.4759 89.8271 22.6229C90.6021 21.7699 91.6481 21.3429 92.9631 21.3429C94.2301 21.3429 95.2501 21.7629 96.0191 22.6049C96.7551 23.4219 97.1221 24.4759 97.1221 25.7669ZM95.1311 25.8289C95.1311 25.0319 94.9611 24.3489 94.6161 23.7799C94.2141 23.0909 93.6391 22.7469 92.8931 22.7469C92.1221 22.7469 91.5361 23.0919 91.1331 23.7799C90.7881 24.3509 90.6181 25.0449 90.6181 25.8649C90.6181 26.6609 90.7881 27.3449 91.1331 27.9129C91.5481 28.6019 92.1281 28.9459 92.8751 28.9459C93.6081 28.9459 94.1831 28.5949 94.5981 27.8949C94.9531 27.3149 95.1311 26.6249 95.1311 25.8289Z" fill="white"/>
<path d="M103.359 23.2079C103.169 23.1729 102.967 23.1549 102.754 23.1549C102.079 23.1549 101.557 23.4099 101.19 23.9199C100.87 24.3699 100.71 24.9389 100.71 25.6249V30.1559H98.792L98.81 24.2389C98.81 23.2439 98.786 22.3369 98.738 21.5199H100.409L100.479 23.1719H100.532C100.734 22.6039 101.054 22.1469 101.491 21.8039C101.918 21.4949 102.38 21.3409 102.878 21.3409C103.055 21.3409 103.216 21.3539 103.358 21.3759C103.359 21.3779 103.359 23.2079 103.359 23.2079Z" fill="white"/>
<path d="M111.94 25.4299C111.94 25.7739 111.918 26.0639 111.87 26.2999H106.114C106.136 27.1529 106.415 27.8059 106.949 28.2559C107.434 28.6579 108.061 28.8599 108.832 28.8599C109.684 28.8599 110.462 28.7239 111.161 28.4509L111.462 29.7829C110.645 30.1389 109.68 30.3169 108.567 30.3169C107.228 30.3169 106.177 29.9229 105.412 29.1349C104.649 28.3469 104.266 27.2899 104.266 25.9629C104.266 24.6609 104.621 23.5759 105.333 22.7109C106.078 21.7879 107.085 21.3259 108.353 21.3259C109.598 21.3259 110.54 21.7879 111.18 22.7109C111.686 23.4449 111.94 24.3519 111.94 25.4299ZM110.111 24.9319C110.124 24.3629 109.998 23.8719 109.738 23.4569C109.406 22.9229 108.896 22.6569 108.209 22.6569C107.582 22.6569 107.071 22.9169 106.682 23.4389C106.362 23.8539 106.173 24.3519 106.114 24.9309L110.111 24.9319Z" fill="white"/>
<path d="M40.3428 13.1807L41.1558 12.9697C41.2173 13.2832 41.3813 13.5967 41.6479 13.9102C41.9175 14.2236 42.2734 14.3804 42.7158 14.3804C43.167 14.3804 43.5229 14.2646 43.7837 14.0332C44.0444 13.8018 44.1748 13.522 44.1748 13.1938C44.1748 12.8394 44.0371 12.5581 43.7617 12.3501C43.4863 12.1392 43.1113 12.0337 42.6367 12.0337H42.228V11.291C42.6206 11.291 42.9209 11.269 43.1289 11.2251C43.3369 11.1782 43.52 11.0625 43.6782 10.8779C43.8394 10.6904 43.9199 10.478 43.9199 10.2407C43.9199 9.95947 43.8101 9.71484 43.5903 9.50684C43.3735 9.29883 43.0791 9.19482 42.707 9.19482C42.3818 9.19482 42.1035 9.27686 41.8721 9.44092C41.6436 9.60205 41.4854 9.81738 41.3975 10.0869C41.3096 10.3535 41.2656 10.5527 41.2656 10.6846L40.4482 10.5C40.6504 9.13184 41.4062 8.44775 42.7158 8.44775C43.3457 8.44775 43.8452 8.62354 44.2144 8.9751C44.5835 9.32373 44.7681 9.73242 44.7681 10.2012C44.7681 10.8018 44.4839 11.2676 43.9155 11.5986C44.2437 11.6895 44.5176 11.8755 44.7373 12.1567C44.96 12.4351 45.0713 12.769 45.0713 13.1587C45.0713 13.7124 44.856 14.1768 44.4253 14.5518C43.9976 14.9238 43.4292 15.1099 42.7202 15.1099C41.5015 15.1099 40.709 14.4668 40.3428 13.1807Z" fill="white"/>
<path d="M49.0791 14.4243C48.7861 14.6733 48.5034 14.8491 48.231 14.9517C47.9614 15.0542 47.6714 15.1055 47.3608 15.1055C46.8481 15.1055 46.4541 14.981 46.1787 14.7319C45.9033 14.48 45.7656 14.1592 45.7656 13.7695C45.7656 13.541 45.8169 13.333 45.9194 13.1455C46.0249 12.9551 46.1611 12.8027 46.3281 12.6885C46.498 12.5742 46.6885 12.4878 46.8994 12.4292C47.0547 12.3882 47.2891 12.3486 47.6025 12.3105C48.2412 12.2344 48.7114 12.1436 49.0132 12.0381C49.0161 11.9297 49.0176 11.8608 49.0176 11.8315C49.0176 11.5093 48.9429 11.2822 48.7935 11.1504C48.5913 10.9717 48.291 10.8823 47.8926 10.8823C47.5205 10.8823 47.2451 10.9482 47.0664 11.0801C46.8906 11.209 46.7603 11.439 46.6753 11.77L45.9019 11.6646C45.9722 11.3335 46.0879 11.0669 46.249 10.8647C46.4102 10.6597 46.6431 10.5029 46.9478 10.3945C47.2524 10.2832 47.6055 10.2275 48.0068 10.2275C48.4053 10.2275 48.729 10.2744 48.978 10.3682C49.2271 10.4619 49.4102 10.5806 49.5273 10.7241C49.6445 10.8647 49.7266 11.0435 49.7734 11.2603C49.7998 11.395 49.813 11.6382 49.813 11.9897V13.0444C49.813 13.7798 49.8291 14.2456 49.8613 14.4419C49.8965 14.6353 49.9639 14.8213 50.0635 15H49.2373C49.1553 14.8359 49.1025 14.644 49.0791 14.4243ZM49.0132 12.6577C48.7261 12.7749 48.2954 12.8745 47.7212 12.9565C47.396 13.0034 47.166 13.0562 47.0312 13.1147C46.8965 13.1733 46.7925 13.2598 46.7192 13.374C46.646 13.4854 46.6094 13.6099 46.6094 13.7476C46.6094 13.9585 46.6885 14.1343 46.8467 14.2749C47.0078 14.4155 47.2422 14.4858 47.5498 14.4858C47.8545 14.4858 48.1255 14.4199 48.3628 14.2881C48.6001 14.1533 48.7744 13.9702 48.8857 13.7388C48.9707 13.5601 49.0132 13.2964 49.0132 12.9478V12.6577Z" fill="white"/>
<path d="M51.0479 10.333H52.8716C53.3198 10.333 53.6523 10.3711 53.8691 10.4473C54.0889 10.5205 54.2764 10.6567 54.4316 10.856C54.5898 11.0552 54.6689 11.2939 54.6689 11.5723C54.6689 11.7949 54.6221 11.9897 54.5283 12.1567C54.4375 12.3208 54.2998 12.4585 54.1152 12.5698C54.335 12.6431 54.5166 12.7808 54.6602 12.9829C54.8066 13.1821 54.8799 13.4194 54.8799 13.6948C54.8506 14.1372 54.6924 14.4653 54.4053 14.6792C54.1182 14.8931 53.7007 15 53.1528 15H51.0479V10.333ZM51.8389 12.2974H52.6826C53.0195 12.2974 53.251 12.2798 53.377 12.2446C53.5029 12.2095 53.6157 12.1392 53.7153 12.0337C53.8149 11.9253 53.8647 11.7964 53.8647 11.647C53.8647 11.4009 53.7769 11.2295 53.6011 11.1328C53.4282 11.0361 53.1309 10.9878 52.709 10.9878H51.8389V12.2974ZM51.8389 14.3496H52.8804C53.3286 14.3496 53.6362 14.2983 53.8032 14.1958C53.9702 14.0903 54.0581 13.9102 54.0669 13.6553C54.0669 13.5059 54.0186 13.3682 53.9219 13.2422C53.8252 13.1133 53.6992 13.0327 53.5439 13.0005C53.3887 12.9653 53.1396 12.9478 52.7969 12.9478H51.8389V14.3496Z" fill="white"/>
<path d="M58.7646 14.4243C58.4717 14.6733 58.189 14.8491 57.9165 14.9517C57.647 15.0542 57.3569 15.1055 57.0464 15.1055C56.5337 15.1055 56.1396 14.981 55.8643 14.7319C55.5889 14.48 55.4512 14.1592 55.4512 13.7695C55.4512 13.541 55.5024 13.333 55.605 13.1455C55.7104 12.9551 55.8467 12.8027 56.0137 12.6885C56.1836 12.5742 56.374 12.4878 56.585 12.4292C56.7402 12.3882 56.9746 12.3486 57.2881 12.3105C57.9268 12.2344 58.397 12.1436 58.6987 12.0381C58.7017 11.9297 58.7031 11.8608 58.7031 11.8315C58.7031 11.5093 58.6284 11.2822 58.479 11.1504C58.2769 10.9717 57.9766 10.8823 57.5781 10.8823C57.2061 10.8823 56.9307 10.9482 56.752 11.0801C56.5762 11.209 56.4458 11.439 56.3608 11.77L55.5874 11.6646C55.6577 11.3335 55.7734 11.0669 55.9346 10.8647C56.0957 10.6597 56.3286 10.5029 56.6333 10.3945C56.938 10.2832 57.291 10.2275 57.6924 10.2275C58.0908 10.2275 58.4146 10.2744 58.6636 10.3682C58.9126 10.4619 59.0957 10.5806 59.2129 10.7241C59.3301 10.8647 59.4121 11.0435 59.459 11.2603C59.4854 11.395 59.4985 11.6382 59.4985 11.9897V13.0444C59.4985 13.7798 59.5146 14.2456 59.5469 14.4419C59.582 14.6353 59.6494 14.8213 59.749 15H58.9229C58.8408 14.8359 58.7881 14.644 58.7646 14.4243ZM58.6987 12.6577C58.4116 12.7749 57.981 12.8745 57.4067 12.9565C57.0815 13.0034 56.8516 13.0562 56.7168 13.1147C56.582 13.1733 56.478 13.2598 56.4048 13.374C56.3315 13.4854 56.2949 13.6099 56.2949 13.7476C56.2949 13.9585 56.374 14.1343 56.5322 14.2749C56.6934 14.4155 56.9277 14.4858 57.2354 14.4858C57.54 14.4858 57.811 14.4199 58.0483 14.2881C58.2856 14.1533 58.46 13.9702 58.5713 13.7388C58.6562 13.5601 58.6987 13.2964 58.6987 12.9478V12.6577Z" fill="white"/>
<path d="M60.7334 10.333H61.5244V12.2754H63.7173V10.333H64.5083V15H63.7173V12.9302H61.5244V15H60.7334V10.333Z" fill="white"/>
<path d="M65.2773 10.333H69.0698V10.9878H67.5669V15H66.7803V10.9878H65.2773V10.333Z" fill="white"/>
<path d="M72.7656 14.4243C72.4727 14.6733 72.1899 14.8491 71.9175 14.9517C71.6479 15.0542 71.3579 15.1055 71.0474 15.1055C70.5347 15.1055 70.1406 14.981 69.8652 14.7319C69.5898 14.48 69.4521 14.1592 69.4521 13.7695C69.4521 13.541 69.5034 13.333 69.606 13.1455C69.7114 12.9551 69.8477 12.8027 70.0146 12.6885C70.1846 12.5742 70.375 12.4878 70.5859 12.4292C70.7412 12.3882 70.9756 12.3486 71.2891 12.3105C71.9277 12.2344 72.3979 12.1436 72.6997 12.0381C72.7026 11.9297 72.7041 11.8608 72.7041 11.8315C72.7041 11.5093 72.6294 11.2822 72.48 11.1504C72.2778 10.9717 71.9775 10.8823 71.5791 10.8823C71.207 10.8823 70.9316 10.9482 70.7529 11.0801C70.5771 11.209 70.4468 11.439 70.3618 11.77L69.5884 11.6646C69.6587 11.3335 69.7744 11.0669 69.9355 10.8647C70.0967 10.6597 70.3296 10.5029 70.6343 10.3945C70.939 10.2832 71.292 10.2275 71.6934 10.2275C72.0918 10.2275 72.4155 10.2744 72.6646 10.3682C72.9136 10.4619 73.0967 10.5806 73.2139 10.7241C73.3311 10.8647 73.4131 11.0435 73.46 11.2603C73.4863 11.395 73.4995 11.6382 73.4995 11.9897V13.0444C73.4995 13.7798 73.5156 14.2456 73.5479 14.4419C73.583 14.6353 73.6504 14.8213 73.75 15H72.9238C72.8418 14.8359 72.7891 14.644 72.7656 14.4243ZM72.6997 12.6577C72.4126 12.7749 71.9819 12.8745 71.4077 12.9565C71.0825 13.0034 70.8525 13.0562 70.7178 13.1147C70.583 13.1733 70.479 13.2598 70.4058 13.374C70.3325 13.4854 70.2959 13.6099 70.2959 13.7476C70.2959 13.9585 70.375 14.1343 70.5332 14.2749C70.6943 14.4155 70.9287 14.4858 71.2363 14.4858C71.541 14.4858 71.812 14.4199 72.0493 14.2881C72.2866 14.1533 72.4609 13.9702 72.5723 13.7388C72.6572 13.5601 72.6997 13.2964 72.6997 12.9478V12.6577Z" fill="white"/>
<path d="M77.5513 10.333V12.3501C77.8032 12.3501 77.9805 12.3018 78.083 12.2051C78.1855 12.1084 78.335 11.8271 78.5312 11.3613C78.7158 10.9189 78.8813 10.6362 79.0278 10.5132C79.1714 10.3931 79.3999 10.333 79.7134 10.333H80.0034V10.9878L79.7881 10.9834C79.5771 10.9834 79.4424 11.0142 79.3838 11.0757C79.3223 11.1401 79.2285 11.332 79.1025 11.6514C78.9854 11.9561 78.877 12.167 78.7773 12.2842C78.6777 12.4014 78.5225 12.5083 78.3115 12.605C78.6543 12.6958 78.9883 13.0122 79.3135 13.5542L80.1836 15H79.3135L78.4653 13.5542C78.2925 13.2612 78.1416 13.0693 78.0127 12.9785C77.8838 12.8877 77.73 12.8423 77.5513 12.8423V15H76.7427V12.8423C76.5669 12.8423 76.4146 12.8877 76.2856 12.9785C76.1567 13.0664 76.0059 13.2583 75.833 13.5542L74.9849 15H74.1147L74.9805 13.5542C75.3086 13.0122 75.644 12.6958 75.9868 12.605C75.7524 12.4966 75.5884 12.3794 75.4946 12.2534C75.4009 12.1245 75.2603 11.8198 75.0728 11.3394C75.0083 11.1782 74.9395 11.0786 74.8662 11.0405C74.79 11.0024 74.6772 10.9834 74.5278 10.9834C74.4897 10.9834 74.4121 10.9849 74.2949 10.9878V10.333H74.4048C74.7095 10.333 74.9233 10.3521 75.0464 10.3901C75.1724 10.4253 75.2837 10.5029 75.3804 10.623C75.48 10.7402 75.6089 10.9863 75.7671 11.3613C75.9604 11.8213 76.1069 12.1011 76.2065 12.2007C76.3091 12.3003 76.4878 12.3501 76.7427 12.3501V10.333H77.5513Z" fill="white"/>
<path d="M80.7505 10.333H81.5415V13.8926L83.7344 10.333H84.5869V15H83.7959V11.4624L81.603 15H80.7505V10.333Z" fill="white"/>
<path d="M85.3516 10.333H89.144V10.9878H87.6411V15H86.8545V10.9878H85.3516V10.333Z" fill="white"/>
<path d="M89.8999 10.333H90.6909V13.8926L92.8838 10.333H93.7363V15H92.9453V11.4624L90.7524 15H89.8999V10.333Z" fill="white"/>
<path d="M97.4365 10.333H99.2603C99.7085 10.333 100.041 10.3711 100.258 10.4473C100.478 10.5205 100.665 10.6567 100.82 10.856C100.979 11.0552 101.058 11.2939 101.058 11.5723C101.058 11.7949 101.011 11.9897 100.917 12.1567C100.826 12.3208 100.688 12.4585 100.504 12.5698C100.724 12.6431 100.905 12.7808 101.049 12.9829C101.195 13.1821 101.269 13.4194 101.269 13.6948C101.239 14.1372 101.081 14.4653 100.794 14.6792C100.507 14.8931 100.089 15 99.5415 15H97.4365V10.333ZM98.2275 12.2974H99.0713C99.4082 12.2974 99.6396 12.2798 99.7656 12.2446C99.8916 12.2095 100.004 12.1392 100.104 12.0337C100.204 11.9253 100.253 11.7964 100.253 11.647C100.253 11.4009 100.166 11.2295 99.9897 11.1328C99.8169 11.0361 99.5195 10.9878 99.0977 10.9878H98.2275V12.2974ZM98.2275 14.3496H99.269C99.7173 14.3496 100.025 14.2983 100.192 14.1958C100.359 14.0903 100.447 13.9102 100.456 13.6553C100.456 13.5059 100.407 13.3682 100.311 13.2422C100.214 13.1133 100.088 13.0327 99.9326 13.0005C99.7773 12.9653 99.5283 12.9478 99.1855 12.9478H98.2275V14.3496Z" fill="white"/>
<rect x="0.5" y="0.5" width="127" height="39" rx="3.5" stroke="#4D4B4B"/>
</svg>
