<svg width="128" height="40" viewBox="0 0 128 40" fill="none" xmlns="http://www.w3.org/2000/svg">
<rect x="0.5" y="0.5" width="127" height="39" rx="3.5" fill="#221F1F"/>
<path d="M11.3916 8.35181C11.1296 8.62881 10.9746 9.05881 10.9746 9.61681V29.5208C10.9746 30.0788 11.1296 30.5078 11.3916 30.7848L22.6086 19.5678L11.3916 8.35181Z" fill="#00E3FF"/>
<path d="M11.4576 8.2868L11.3916 8.3518C11.4136 8.3288 11.4446 8.3188 11.4676 8.2968L11.4576 8.2868Z" fill="#00E3FF"/>
<path d="M11.4586 30.8498L11.4686 30.8398C11.4446 30.8188 11.4136 30.8088 11.3916 30.7848L11.4586 30.8498Z" fill="#00E3FF"/>
<path d="M30.8136 18.2698L26.4096 15.7678H26.4086L22.6086 19.5678L26.4086 23.3698L26.3236 23.4188L26.4086 23.3708L30.8126 20.8688C32.0716 20.1538 32.0716 18.9848 30.8136 18.2698Z" fill="#FFE000"/>
<path d="M22.6086 19.5678L11.3916 30.7848C11.4136 30.8088 11.4446 30.8188 11.4686 30.8398C11.8886 31.2158 12.5316 31.2548 13.2616 30.8398L26.3246 23.4188L26.4096 23.3698L22.6086 19.5678Z" fill="#FF3A44"/>
<path d="M22.6086 19.5688L26.4086 15.7678L26.4096 15.7668L13.2616 8.29681C12.5316 7.88181 11.8866 7.92081 11.4676 8.29681C11.4446 8.31881 11.4136 8.3288 11.3916 8.3518L22.6086 19.5688Z" fill="#00F076"/>
<path d="M56.0029 22.233C53.8859 22.233 52.1609 23.842 52.1609 26.061C52.1609 28.265 53.8859 29.889 56.0029 29.889C58.1199 29.889 59.8449 28.265 59.8449 26.061C59.8449 23.843 58.1199 22.233 56.0029 22.233ZM56.0029 28.381C54.8429 28.381 53.8429 27.424 53.8429 26.061C53.8429 24.684 54.8429 23.741 56.0029 23.741C57.1629 23.741 58.1629 24.683 58.1629 26.061C58.1639 27.424 57.1629 28.381 56.0029 28.381Z" fill="white"/>
<path d="M64.385 22.233C62.268 22.233 60.543 23.842 60.543 26.061C60.543 28.265 62.268 29.889 64.385 29.889C66.502 29.889 68.227 28.265 68.227 26.061C68.228 23.843 66.502 22.233 64.385 22.233ZM64.385 28.381C63.225 28.381 62.225 27.424 62.225 26.061C62.225 24.684 63.226 23.741 64.385 23.741C65.544 23.741 66.545 24.683 66.545 26.061C66.546 27.424 65.545 28.381 64.385 28.381Z" fill="white"/>
<path d="M100.985 18.406H99.3059V29.657H100.985V18.406Z" fill="white"/>
<path d="M46.032 23.409V25.032H49.918C49.802 25.945 49.498 26.612 49.033 27.076C48.468 27.641 47.583 28.265 46.032 28.265C43.64 28.265 41.769 26.337 41.769 23.944C41.769 21.551 43.639 19.623 46.032 19.623C47.323 19.623 48.265 20.131 48.961 20.783L50.106 19.638C49.135 18.71 47.844 18 46.032 18C42.755 18 40 20.668 40 23.945C40 27.222 42.755 29.89 46.032 29.89C47.801 29.89 49.135 29.31 50.179 28.223C51.252 27.15 51.586 25.642 51.586 24.424C51.586 24.047 51.557 23.699 51.499 23.409H46.032Z" fill="white"/>
<path d="M105.11 22.213C103.894 22.213 102.635 22.749 102.114 23.936L103.605 24.558C103.923 23.936 104.517 23.733 105.139 23.733C106.007 23.733 106.89 24.254 106.905 25.18V25.296C106.601 25.122 105.95 24.862 105.154 24.862C103.547 24.862 101.912 25.745 101.912 27.395C101.912 28.9 103.229 29.87 104.706 29.87C105.835 29.87 106.457 29.363 106.848 28.77H106.906V29.638H108.527V25.324C108.526 23.327 107.035 22.213 105.11 22.213ZM104.907 28.379C104.357 28.379 103.59 28.104 103.59 27.424C103.59 26.556 104.545 26.223 105.37 26.223C106.108 26.223 106.456 26.382 106.904 26.599C106.775 27.641 105.877 28.379 104.907 28.379Z" fill="white"/>
<path d="M112.507 27.337H112.449L110.452 22.459H108.643L111.639 29.277L109.931 33.069H111.682L116.3 22.459H114.432L112.507 27.337Z" fill="white"/>
<path d="M74.6751 23.089H74.6161C74.2391 22.64 73.5141 22.234 72.6011 22.234C70.6871 22.234 68.9331 23.916 68.9331 26.076C68.9331 28.222 70.6871 29.889 72.6011 29.889C73.5141 29.889 74.2391 29.483 74.6161 29.019H74.6741V29.57C74.6741 31.034 73.8911 31.817 72.6301 31.817C71.6011 31.817 70.9631 31.078 70.7021 30.454L69.2381 31.063C69.6581 32.078 70.7751 33.325 72.6311 33.325C74.6031 33.325 76.2701 32.165 76.2701 29.338V22.465H74.6751V23.089ZM72.7451 28.381C71.5851 28.381 70.6141 27.41 70.6141 26.076C70.6141 24.728 71.5861 23.742 72.7451 23.742C73.8901 23.742 74.7891 24.728 74.7891 26.076C74.7901 27.41 73.8911 28.381 72.7451 28.381Z" fill="white"/>
<path d="M94.6881 18.406H90.6641V29.657H92.3431V25.394H94.6881C96.5501 25.394 98.3791 24.046 98.3791 21.9C98.3791 19.754 96.5501 18.406 94.6881 18.406ZM94.7321 23.828H92.3431V19.971H94.7311C95.9871 19.971 96.7001 21.011 96.7001 21.899C96.7001 22.772 95.9871 23.828 94.7321 23.828Z" fill="white"/>
<path d="M79.111 18.406H77.429V29.657H79.111V18.406Z" fill="white"/>
<path d="M86.8101 24.669C86.4911 23.814 85.5201 22.233 83.5331 22.233C81.5611 22.233 79.9231 23.784 79.9231 26.061C79.9231 28.207 81.5471 29.889 83.7221 29.889C85.4761 29.889 86.4911 28.816 86.9121 28.193L85.6071 27.323C85.1721 27.961 84.5781 28.381 83.7221 28.381C82.8661 28.381 82.2581 27.989 81.8661 27.221L86.9841 25.104L86.8101 24.669ZM81.5901 25.945C81.5461 24.466 82.7351 23.712 83.5911 23.712C84.2581 23.712 84.8241 24.045 85.0121 24.524L81.5901 25.945Z" fill="white"/>
<path d="M40.3428 13.1807L41.1558 12.9697C41.2173 13.2832 41.3813 13.5967 41.6479 13.9102C41.9175 14.2236 42.2734 14.3804 42.7158 14.3804C43.167 14.3804 43.5229 14.2646 43.7837 14.0332C44.0444 13.8018 44.1748 13.522 44.1748 13.1938C44.1748 12.8394 44.0371 12.5581 43.7617 12.3501C43.4863 12.1392 43.1113 12.0337 42.6367 12.0337H42.228V11.291C42.6206 11.291 42.9209 11.269 43.1289 11.2251C43.3369 11.1782 43.52 11.0625 43.6782 10.8779C43.8394 10.6904 43.9199 10.478 43.9199 10.2407C43.9199 9.95947 43.8101 9.71484 43.5903 9.50684C43.3735 9.29883 43.0791 9.19482 42.707 9.19482C42.3818 9.19482 42.1035 9.27686 41.8721 9.44092C41.6436 9.60205 41.4854 9.81738 41.3975 10.0869C41.3096 10.3535 41.2656 10.5527 41.2656 10.6846L40.4482 10.5C40.6504 9.13184 41.4062 8.44775 42.7158 8.44775C43.3457 8.44775 43.8452 8.62354 44.2144 8.9751C44.5835 9.32373 44.7681 9.73242 44.7681 10.2012C44.7681 10.8018 44.4839 11.2676 43.9155 11.5986C44.2437 11.6895 44.5176 11.8755 44.7373 12.1567C44.96 12.4351 45.0713 12.769 45.0713 13.1587C45.0713 13.7124 44.856 14.1768 44.4253 14.5518C43.9976 14.9238 43.4292 15.1099 42.7202 15.1099C41.5015 15.1099 40.709 14.4668 40.3428 13.1807Z" fill="white"/>
<path d="M49.0791 14.4243C48.7861 14.6733 48.5034 14.8491 48.231 14.9517C47.9614 15.0542 47.6714 15.1055 47.3608 15.1055C46.8481 15.1055 46.4541 14.981 46.1787 14.7319C45.9033 14.48 45.7656 14.1592 45.7656 13.7695C45.7656 13.541 45.8169 13.333 45.9194 13.1455C46.0249 12.9551 46.1611 12.8027 46.3281 12.6885C46.498 12.5742 46.6885 12.4878 46.8994 12.4292C47.0547 12.3882 47.2891 12.3486 47.6025 12.3105C48.2412 12.2344 48.7114 12.1436 49.0132 12.0381C49.0161 11.9297 49.0176 11.8608 49.0176 11.8315C49.0176 11.5093 48.9429 11.2822 48.7935 11.1504C48.5913 10.9717 48.291 10.8823 47.8926 10.8823C47.5205 10.8823 47.2451 10.9482 47.0664 11.0801C46.8906 11.209 46.7603 11.439 46.6753 11.77L45.9019 11.6646C45.9722 11.3335 46.0879 11.0669 46.249 10.8647C46.4102 10.6597 46.6431 10.5029 46.9478 10.3945C47.2524 10.2832 47.6055 10.2275 48.0068 10.2275C48.4053 10.2275 48.729 10.2744 48.978 10.3682C49.2271 10.4619 49.4102 10.5806 49.5273 10.7241C49.6445 10.8647 49.7266 11.0435 49.7734 11.2603C49.7998 11.395 49.813 11.6382 49.813 11.9897V13.0444C49.813 13.7798 49.8291 14.2456 49.8613 14.4419C49.8965 14.6353 49.9639 14.8213 50.0635 15H49.2373C49.1553 14.8359 49.1025 14.644 49.0791 14.4243ZM49.0132 12.6577C48.7261 12.7749 48.2954 12.8745 47.7212 12.9565C47.396 13.0034 47.166 13.0562 47.0312 13.1147C46.8965 13.1733 46.7925 13.2598 46.7192 13.374C46.646 13.4854 46.6094 13.6099 46.6094 13.7476C46.6094 13.9585 46.6885 14.1343 46.8467 14.2749C47.0078 14.4155 47.2422 14.4858 47.5498 14.4858C47.8545 14.4858 48.1255 14.4199 48.3628 14.2881C48.6001 14.1533 48.7744 13.9702 48.8857 13.7388C48.9707 13.5601 49.0132 13.2964 49.0132 12.9478V12.6577Z" fill="white"/>
<path d="M51.0479 10.333H52.8716C53.3198 10.333 53.6523 10.3711 53.8691 10.4473C54.0889 10.5205 54.2764 10.6567 54.4316 10.856C54.5898 11.0552 54.6689 11.2939 54.6689 11.5723C54.6689 11.7949 54.6221 11.9897 54.5283 12.1567C54.4375 12.3208 54.2998 12.4585 54.1152 12.5698C54.335 12.6431 54.5166 12.7808 54.6602 12.9829C54.8066 13.1821 54.8799 13.4194 54.8799 13.6948C54.8506 14.1372 54.6924 14.4653 54.4053 14.6792C54.1182 14.8931 53.7007 15 53.1528 15H51.0479V10.333ZM51.8389 12.2974H52.6826C53.0195 12.2974 53.251 12.2798 53.377 12.2446C53.5029 12.2095 53.6157 12.1392 53.7153 12.0337C53.8149 11.9253 53.8647 11.7964 53.8647 11.647C53.8647 11.4009 53.7769 11.2295 53.6011 11.1328C53.4282 11.0361 53.1309 10.9878 52.709 10.9878H51.8389V12.2974ZM51.8389 14.3496H52.8804C53.3286 14.3496 53.6362 14.2983 53.8032 14.1958C53.9702 14.0903 54.0581 13.9102 54.0669 13.6553C54.0669 13.5059 54.0186 13.3682 53.9219 13.2422C53.8252 13.1133 53.6992 13.0327 53.5439 13.0005C53.3887 12.9653 53.1396 12.9478 52.7969 12.9478H51.8389V14.3496Z" fill="white"/>
<path d="M58.7646 14.4243C58.4717 14.6733 58.189 14.8491 57.9165 14.9517C57.647 15.0542 57.3569 15.1055 57.0464 15.1055C56.5337 15.1055 56.1396 14.981 55.8643 14.7319C55.5889 14.48 55.4512 14.1592 55.4512 13.7695C55.4512 13.541 55.5024 13.333 55.605 13.1455C55.7104 12.9551 55.8467 12.8027 56.0137 12.6885C56.1836 12.5742 56.374 12.4878 56.585 12.4292C56.7402 12.3882 56.9746 12.3486 57.2881 12.3105C57.9268 12.2344 58.397 12.1436 58.6987 12.0381C58.7017 11.9297 58.7031 11.8608 58.7031 11.8315C58.7031 11.5093 58.6284 11.2822 58.479 11.1504C58.2769 10.9717 57.9766 10.8823 57.5781 10.8823C57.2061 10.8823 56.9307 10.9482 56.752 11.0801C56.5762 11.209 56.4458 11.439 56.3608 11.77L55.5874 11.6646C55.6577 11.3335 55.7734 11.0669 55.9346 10.8647C56.0957 10.6597 56.3286 10.5029 56.6333 10.3945C56.938 10.2832 57.291 10.2275 57.6924 10.2275C58.0908 10.2275 58.4146 10.2744 58.6636 10.3682C58.9126 10.4619 59.0957 10.5806 59.2129 10.7241C59.3301 10.8647 59.4121 11.0435 59.459 11.2603C59.4854 11.395 59.4985 11.6382 59.4985 11.9897V13.0444C59.4985 13.7798 59.5146 14.2456 59.5469 14.4419C59.582 14.6353 59.6494 14.8213 59.749 15H58.9229C58.8408 14.8359 58.7881 14.644 58.7646 14.4243ZM58.6987 12.6577C58.4116 12.7749 57.981 12.8745 57.4067 12.9565C57.0815 13.0034 56.8516 13.0562 56.7168 13.1147C56.582 13.1733 56.478 13.2598 56.4048 13.374C56.3315 13.4854 56.2949 13.6099 56.2949 13.7476C56.2949 13.9585 56.374 14.1343 56.5322 14.2749C56.6934 14.4155 56.9277 14.4858 57.2354 14.4858C57.54 14.4858 57.811 14.4199 58.0483 14.2881C58.2856 14.1533 58.46 13.9702 58.5713 13.7388C58.6562 13.5601 58.6987 13.2964 58.6987 12.9478V12.6577Z" fill="white"/>
<path d="M60.7334 10.333H61.5244V12.2754H63.7173V10.333H64.5083V15H63.7173V12.9302H61.5244V15H60.7334V10.333Z" fill="white"/>
<path d="M65.2773 10.333H69.0698V10.9878H67.5669V15H66.7803V10.9878H65.2773V10.333Z" fill="white"/>
<path d="M72.7656 14.4243C72.4727 14.6733 72.1899 14.8491 71.9175 14.9517C71.6479 15.0542 71.3579 15.1055 71.0474 15.1055C70.5347 15.1055 70.1406 14.981 69.8652 14.7319C69.5898 14.48 69.4521 14.1592 69.4521 13.7695C69.4521 13.541 69.5034 13.333 69.606 13.1455C69.7114 12.9551 69.8477 12.8027 70.0146 12.6885C70.1846 12.5742 70.375 12.4878 70.5859 12.4292C70.7412 12.3882 70.9756 12.3486 71.2891 12.3105C71.9277 12.2344 72.3979 12.1436 72.6997 12.0381C72.7026 11.9297 72.7041 11.8608 72.7041 11.8315C72.7041 11.5093 72.6294 11.2822 72.48 11.1504C72.2778 10.9717 71.9775 10.8823 71.5791 10.8823C71.207 10.8823 70.9316 10.9482 70.7529 11.0801C70.5771 11.209 70.4468 11.439 70.3618 11.77L69.5884 11.6646C69.6587 11.3335 69.7744 11.0669 69.9355 10.8647C70.0967 10.6597 70.3296 10.5029 70.6343 10.3945C70.939 10.2832 71.292 10.2275 71.6934 10.2275C72.0918 10.2275 72.4155 10.2744 72.6646 10.3682C72.9136 10.4619 73.0967 10.5806 73.2139 10.7241C73.3311 10.8647 73.4131 11.0435 73.46 11.2603C73.4863 11.395 73.4995 11.6382 73.4995 11.9897V13.0444C73.4995 13.7798 73.5156 14.2456 73.5479 14.4419C73.583 14.6353 73.6504 14.8213 73.75 15H72.9238C72.8418 14.8359 72.7891 14.644 72.7656 14.4243ZM72.6997 12.6577C72.4126 12.7749 71.9819 12.8745 71.4077 12.9565C71.0825 13.0034 70.8525 13.0562 70.7178 13.1147C70.583 13.1733 70.479 13.2598 70.4058 13.374C70.3325 13.4854 70.2959 13.6099 70.2959 13.7476C70.2959 13.9585 70.375 14.1343 70.5332 14.2749C70.6943 14.4155 70.9287 14.4858 71.2363 14.4858C71.541 14.4858 71.812 14.4199 72.0493 14.2881C72.2866 14.1533 72.4609 13.9702 72.5723 13.7388C72.6572 13.5601 72.6997 13.2964 72.6997 12.9478V12.6577Z" fill="white"/>
<path d="M77.5513 10.333V12.3501C77.8032 12.3501 77.9805 12.3018 78.083 12.2051C78.1855 12.1084 78.335 11.8271 78.5312 11.3613C78.7158 10.9189 78.8813 10.6362 79.0278 10.5132C79.1714 10.3931 79.3999 10.333 79.7134 10.333H80.0034V10.9878L79.7881 10.9834C79.5771 10.9834 79.4424 11.0142 79.3838 11.0757C79.3223 11.1401 79.2285 11.332 79.1025 11.6514C78.9854 11.9561 78.877 12.167 78.7773 12.2842C78.6777 12.4014 78.5225 12.5083 78.3115 12.605C78.6543 12.6958 78.9883 13.0122 79.3135 13.5542L80.1836 15H79.3135L78.4653 13.5542C78.2925 13.2612 78.1416 13.0693 78.0127 12.9785C77.8838 12.8877 77.73 12.8423 77.5513 12.8423V15H76.7427V12.8423C76.5669 12.8423 76.4146 12.8877 76.2856 12.9785C76.1567 13.0664 76.0059 13.2583 75.833 13.5542L74.9849 15H74.1147L74.9805 13.5542C75.3086 13.0122 75.644 12.6958 75.9868 12.605C75.7524 12.4966 75.5884 12.3794 75.4946 12.2534C75.4009 12.1245 75.2603 11.8198 75.0728 11.3394C75.0083 11.1782 74.9395 11.0786 74.8662 11.0405C74.79 11.0024 74.6772 10.9834 74.5278 10.9834C74.4897 10.9834 74.4121 10.9849 74.2949 10.9878V10.333H74.4048C74.7095 10.333 74.9233 10.3521 75.0464 10.3901C75.1724 10.4253 75.2837 10.5029 75.3804 10.623C75.48 10.7402 75.6089 10.9863 75.7671 11.3613C75.9604 11.8213 76.1069 12.1011 76.2065 12.2007C76.3091 12.3003 76.4878 12.3501 76.7427 12.3501V10.333H77.5513Z" fill="white"/>
<path d="M80.7505 10.333H81.5415V13.8926L83.7344 10.333H84.5869V15H83.7959V11.4624L81.603 15H80.7505V10.333Z" fill="white"/>
<path d="M85.3516 10.333H89.144V10.9878H87.6411V15H86.8545V10.9878H85.3516V10.333Z" fill="white"/>
<path d="M89.8999 10.333H90.6909V13.8926L92.8838 10.333H93.7363V15H92.9453V11.4624L90.7524 15H89.8999V10.333Z" fill="white"/>
<path d="M97.4365 10.333H99.2603C99.7085 10.333 100.041 10.3711 100.258 10.4473C100.478 10.5205 100.665 10.6567 100.82 10.856C100.979 11.0552 101.058 11.2939 101.058 11.5723C101.058 11.7949 101.011 11.9897 100.917 12.1567C100.826 12.3208 100.688 12.4585 100.504 12.5698C100.724 12.6431 100.905 12.7808 101.049 12.9829C101.195 13.1821 101.269 13.4194 101.269 13.6948C101.239 14.1372 101.081 14.4653 100.794 14.6792C100.507 14.8931 100.089 15 99.5415 15H97.4365V10.333ZM98.2275 12.2974H99.0713C99.4082 12.2974 99.6396 12.2798 99.7656 12.2446C99.8916 12.2095 100.004 12.1392 100.104 12.0337C100.204 11.9253 100.253 11.7964 100.253 11.647C100.253 11.4009 100.166 11.2295 99.9897 11.1328C99.8169 11.0361 99.5195 10.9878 99.0977 10.9878H98.2275V12.2974ZM98.2275 14.3496H99.269C99.7173 14.3496 100.025 14.2983 100.192 14.1958C100.359 14.0903 100.447 13.9102 100.456 13.6553C100.456 13.5059 100.407 13.3682 100.311 13.2422C100.214 13.1133 100.088 13.0327 99.9326 13.0005C99.7773 12.9653 99.5283 12.9478 99.1855 12.9478H98.2275V14.3496Z" fill="white"/>
<rect x="0.5" y="0.5" width="127" height="39" rx="3.5" stroke="#4D4B4B"/>
</svg>
