<svg width="24" height="24" viewBox="0 0 24 24" fill="none" xmlns="http://www.w3.org/2000/svg">
<path fill-rule="evenodd" clip-rule="evenodd" d="M8.32398 5.75374C9.05265 5.26796 10.0017 5 11 5C11.9983 5 12.9474 5.26796 13.676 5.75374C14.3977 6.23485 15 7.00933 15 8C15 8.99067 14.3977 9.76515 13.676 10.2463C12.9474 10.732 11.9983 11 11 11C10.0017 11 9.05265 10.732 8.32398 10.2463C7.6023 9.76515 7 8.99067 7 8C7 7.00933 7.6023 6.23485 8.32398 5.75374ZM9.43338 7.41784C9.06927 7.66058 9 7.8861 9 8C9 8.1139 9.06927 8.33942 9.43338 8.58216C9.7905 8.82024 10.3415 9 11 9C11.6585 9 12.2095 8.82024 12.5666 8.58216C12.9307 8.33942 13 8.1139 13 8C13 7.8861 12.9307 7.66058 12.5666 7.41784C12.2095 7.17976 11.6585 7 11 7C10.3415 7 9.7905 7.17976 9.43338 7.41784Z" fill="#797878"/>
<path fill-rule="evenodd" clip-rule="evenodd" d="M9.69759 22.9535C7.58725 22.8008 5.65054 22.275 4.13918 21.4097C2.31711 20.3665 1 18.7464 1 16.6429V8C1 5.90476 2.27388 4.13028 4.08134 2.92531C5.89579 1.71567 8.34483 1 11 1C13.6552 1 16.1042 1.71567 17.9187 2.92531C19.5805 4.03321 20.8157 5.62256 21 7.5V13H23V23H11C10.7277 23 10.4572 22.994 10.1892 22.9821C10.128 22.9939 10.0647 23 10 23C9.89459 23 9.793 22.9837 9.69759 22.9535ZM3 8C3 6.78153 3.74084 5.55601 5.19074 4.58941C6.63365 3.62747 8.68461 3 11 3C13.3154 3 15.3664 3.62747 16.8093 4.58941C18.2592 5.55601 19 6.78153 19 8C19 9.21847 18.2592 10.444 16.8093 11.4106C15.3664 12.3725 13.3154 13 11 13C8.68461 13 6.63365 12.3725 5.19074 11.4106C3.74084 10.444 3 9.21847 3 8ZM4.08134 13.0747C5.89579 14.2843 8.34483 15 11 15H21V21H19V18C19 17.4477 18.5523 17 18 17C17.4477 17 17 17.4477 17 18V21H15V20C15 19.4477 14.5523 19 14 19C13.4477 19 13 19.4477 13 20V21H11V18C11 17.4477 10.5523 17 10 17C9.44771 17 9 17.4477 9 18V20.8741C7.47688 20.6766 6.14871 20.2556 5.1329 19.674C3.69761 18.8523 3 17.7938 3 16.6429V12.2239C3.33108 12.532 3.69395 12.8164 4.08134 13.0747Z" fill="#797878"/>
</svg>
