<svg width="24" height="24" viewBox="0 0 24 24" fill="none" xmlns="http://www.w3.org/2000/svg">
<path d="M18 8H6V6H18V8Z" fill="#797878"/>
<path d="M6 12H18V10H6V12Z" fill="#797878"/>
<path fill-rule="evenodd" clip-rule="evenodd" d="M1 5C1 2.79086 2.79086 1 5 1H19C21.2091 1 23 2.79086 23 5V14C23 16.2091 21.2091 18 19 18H12.3028L5 22.8685V18C2.79086 18 1 16.2091 1 14V5ZM5 3C3.89543 3 3 3.89543 3 5V14C3 15.1046 3.89543 16 5 16H7V19.1315L11.6972 16H19C20.1046 16 21 15.1046 21 14V5C21 3.89543 20.1046 3 19 3H5Z" fill="#797878"/>
</svg>
