<svg width="24" height="24" viewBox="0 0 24 24" fill="none" xmlns="http://www.w3.org/2000/svg">
<path d="M8.5 10C9.32843 10 10 9.32843 10 8.5C10 7.67157 9.32843 7 8.5 7C7.67157 7 7 7.67157 7 8.5C7 9.32843 7.67157 10 8.5 10Z" fill="#797878"/>
<path d="M17 12.5C17 13.3284 16.3284 14 15.5 14C14.6716 14 14 13.3284 14 12.5C14 11.6716 14.6716 11 15.5 11C16.3284 11 17 11.6716 17 12.5Z" fill="#797878"/>
<path d="M15.7593 7.65081C16.1187 7.23148 16.0701 6.60018 15.6508 6.24076C15.2315 5.88134 14.6002 5.9299 14.2408 6.34923L8.24076 13.3492C7.88134 13.7686 7.9299 14.3999 8.34923 14.7593C8.76855 15.1187 9.39985 15.0701 9.75927 14.6508L15.7593 7.65081Z" fill="#797878"/>
<path fill-rule="evenodd" clip-rule="evenodd" d="M6 2C3.23858 2 1 4.23858 1 7V14C1 16.7614 3.23858 19 6 19H10.9599L17.5 24.0309V19H18C20.7614 19 23 16.7614 23 14V7C23 4.23858 20.7614 2 18 2H6ZM3 7C3 5.34315 4.34315 4 6 4H18C19.6569 4 21 5.34315 21 7V14C21 15.6569 19.6569 17 18 17H15.5V19.9691L11.6401 17H6C4.34315 17 3 15.6569 3 14V7Z" fill="#797878"/>
</svg>
