<svg width="24" height="24" viewBox="0 0 24 24" fill="none" xmlns="http://www.w3.org/2000/svg">
<path fill-rule="evenodd" clip-rule="evenodd" d="M18.0001 8C18.0001 11.3137 15.3138 14 12.0001 14C8.68635 14 6.00006 11.3137 6.00006 8C6.00006 4.68629 8.68635 2 12.0001 2C15.3138 2 18.0001 4.68629 18.0001 8ZM16.0001 8C16.0001 10.2091 14.2092 12 12.0001 12C9.79092 12 8.00006 10.2091 8.00006 8C8.00006 5.79086 9.79092 4 12.0001 4C14.2092 4 16.0001 5.79086 16.0001 8Z" fill="#797878"/>
<path fill-rule="evenodd" clip-rule="evenodd" d="M2.40006 21.8C2.84165 22.1312 3.46802 22.0419 3.79953 21.6007L3.81608 21.5798C3.83276 21.5589 3.86071 21.5247 3.89994 21.4789C3.97845 21.3873 4.10173 21.25 4.26967 21.0821C4.60603 20.7457 5.11815 20.2898 5.80476 19.8321C7.17413 18.9191 9.23437 18 12.0001 18C14.7658 18 16.826 18.9191 18.1954 19.8321C18.882 20.2898 19.3941 20.7457 19.7305 21.0821C19.8984 21.25 20.0217 21.3873 20.1002 21.4789C20.1394 21.5247 20.1674 21.5589 20.184 21.5798L20.2005 21.6007L20.2021 21.6028C20.5341 22.0422 21.1592 22.1307 21.6001 21.8C22.0419 21.4686 22.1308 20.841 21.7995 20.3992L21.7972 20.3963L21.7933 20.3911L21.782 20.3764C21.7729 20.3647 21.7609 20.3493 21.7458 20.3304C21.7156 20.2926 21.6732 20.2409 21.6187 20.1773C21.5097 20.0502 21.3517 19.875 21.1447 19.6679C20.731 19.2543 20.1181 18.7102 19.3048 18.1679C17.6741 17.0809 15.2344 16 12.0001 16C8.76575 16 6.32599 17.0809 4.69536 18.1679C3.88197 18.7102 3.26909 19.2543 2.85545 19.6679C2.64838 19.875 2.49042 20.0502 2.38143 20.1773C2.3269 20.2409 2.28455 20.2926 2.25435 20.3304C2.23924 20.3493 2.22717 20.3647 2.21812 20.3764L2.20682 20.3911L2.20288 20.3963L2.20133 20.3983L2.20006 20.4C1.86869 20.8418 1.95823 21.4686 2.40006 21.8ZM3.00006 21C2.20638 20.4047 2.19982 20.4004 2.20006 20.4L3.00006 21ZM21.0001 21L21.7995 20.3992C21.7998 20.3996 21.8001 20.4 21.0001 21Z" fill="#797878"/>
</svg>
