<svg width="24" height="24" viewBox="0 0 24 24" fill="none" xmlns="http://www.w3.org/2000/svg">
<path d="M10 9C10 8.66002 10.1102 8.1278 10.4115 7.7093C10.6761 7.3418 11.1259 7 12 7C12.8741 7 13.3239 7.3418 13.5885 7.7093C13.8898 8.1278 14 8.66002 14 9C14 9.66725 13.6102 10.0138 12.6688 10.6863L12.5847 10.7462C11.7695 11.3261 10.5 12.2294 10.5 14C10.5 14.5523 10.9477 15 11.5 15C12.0523 15 12.5 14.5523 12.5 14C12.5 13.3327 12.8898 12.9862 13.8312 12.3137L13.9153 12.2538C14.7305 11.6739 16 10.7706 16 9C16 8.33998 15.8102 7.3722 15.2115 6.5407C14.5761 5.6582 13.5259 5 12 5C10.4741 5 9.42386 5.6582 8.78847 6.5407C8.18978 7.3722 8 8.33998 8 9C8 9.55228 8.44772 10 9 10C9.55229 10 10 9.55228 10 9Z" fill="#797878"/>
<path d="M12.5 17C12.5 16.4477 12.0523 16 11.5 16C10.9477 16 10.5 16.4477 10.5 17V17.5C10.5 18.0523 10.9477 18.5 11.5 18.5C12.0523 18.5 12.5 18.0523 12.5 17.5V17Z" fill="#797878"/>
<path fill-rule="evenodd" clip-rule="evenodd" d="M23 12C23 18.0751 18.0751 23 12 23C5.92487 23 1 18.0751 1 12C1 5.92487 5.92487 1 12 1C18.0751 1 23 5.92487 23 12ZM21 12C21 16.9706 16.9706 21 12 21C7.02944 21 3 16.9706 3 12C3 7.02944 7.02944 3 12 3C16.9706 3 21 7.02944 21 12Z" fill="#797878"/>
</svg>
