<svg width="24" height="24" viewBox="0 0 24 24" fill="none" xmlns="http://www.w3.org/2000/svg">
<path d="M15.4999 10.0251C16.3284 10.0251 16.9999 9.35353 16.9999 8.5251C16.9999 7.69667 16.3284 7.0251 15.4999 7.0251C14.6715 7.0251 13.9999 7.69667 13.9999 8.5251C13.9999 9.35353 14.6715 10.0251 15.4999 10.0251Z" fill="#797878"/>
<path fill-rule="evenodd" clip-rule="evenodd" d="M21 6C21 4.34314 19.6568 2.99999 18 3L13.3284 3.00002C12.5327 3.00003 11.7697 3.3161 11.2071 3.8787L3.20705 11.8787C2.03547 13.0503 2.03548 14.9498 3.20706 16.1214L7.91446 20.8287C9.06486 21.9791 10.9225 22.0029 12.102 20.8824L20.0662 13.3163C20.6624 12.7499 21 11.9637 21 11.1413V6ZM18 5C18.5522 5 19 5.44771 19 6V11.1413C19 11.4154 18.8874 11.6775 18.6887 11.8663L10.7245 19.4324C10.3314 19.8059 9.71213 19.798 9.32866 19.4145L4.62127 14.7072C4.23074 14.3166 4.23074 13.6835 4.62126 13.2929L12.6213 5.29292C12.8088 5.10538 13.0632 5.00002 13.3284 5.00002L18 5Z" fill="#797878"/>
</svg>
