<svg width="24" height="24" viewBox="0 0 24 24" fill="none" xmlns="http://www.w3.org/2000/svg">
<path fill-rule="evenodd" clip-rule="evenodd" d="M2 2C1.44772 2 1 2.44772 1 3C1 3.55228 1.44772 4 2 4H4.77924L8.09547 13.9487C8.50381 15.1737 9.65023 16 10.9415 16H16.8377C18.5594 16 20.088 14.8983 20.6325 13.2649L22.0712 8.94868C22.7187 7.00609 21.2728 5 19.2251 5H7.22076L6.44868 2.68377C6.31257 2.27543 5.93043 2 5.5 2H2ZM9.99284 13.3162L7.88743 7H19.2251C19.9077 7 20.3897 7.6687 20.1738 8.31623L18.7351 12.6325C18.4629 13.4491 17.6986 14 16.8377 14H10.9415C10.5111 14 10.1289 13.7246 9.99284 13.3162Z" fill="#797878"/>
<path d="M9 22C10.1046 22 11 21.1046 11 20C11 18.8954 10.1046 18 9 18C7.89543 18 7 18.8954 7 20C7 21.1046 7.89543 22 9 22Z" fill="#797878"/>
<path d="M19 22C20.1046 22 21 21.1046 21 20C21 18.8954 20.1046 18 19 18C17.8954 18 17 18.8954 17 20C17 21.1046 17.8954 22 19 22Z" fill="#797878"/>
</svg>
