<svg width="24" height="24" viewBox="0 0 24 24" fill="none" xmlns="http://www.w3.org/2000/svg">
<path d="M12.0001 14C13.1046 14 14.0001 13.1046 14.0001 12C14.0001 10.8954 13.1046 10 12.0001 10C10.8955 10 10.0001 10.8954 10.0001 12C10.0001 13.1046 10.8955 14 12.0001 14Z" fill="#797878"/>
<path fill-rule="evenodd" clip-rule="evenodd" d="M21.9784 10.8196C22.6014 11.4955 22.6014 12.5045 21.9784 13.1804C20.1395 15.1756 16.0822 19 12 19C7.91785 19 3.86062 15.1756 2.02171 13.1804C1.39869 12.5045 1.39869 11.4955 2.02171 10.8196C3.86062 8.82437 7.91785 5 12 5C16.0822 5 20.1395 8.82437 21.9784 10.8196ZM16.6978 8.80997C18.1858 9.83235 19.476 11.0741 20.345 12C19.476 12.9259 18.1858 14.1677 16.6978 15.19C15.0795 16.302 13.4499 17 12 17C10.5502 17 8.92061 16.302 7.30226 15.19C5.81432 14.1677 4.52413 12.9259 3.65512 12C4.52413 11.0741 5.81432 9.83235 7.30226 8.80997C8.92061 7.69799 10.5502 7 12 7C13.4499 7 15.0795 7.69799 16.6978 8.80997Z" fill="#797878"/>
</svg>
