<svg width="24" height="24" viewBox="0 0 24 24" fill="none" xmlns="http://www.w3.org/2000/svg">
<path fill-rule="evenodd" clip-rule="evenodd" d="M15 9V7H9V17L13.2376 17L13.2401 17L13.2456 17L13.2586 16.9998C13.2683 16.9996 13.2797 16.9993 13.2929 16.9988C13.3191 16.9978 13.3525 16.996 13.3918 16.9928C13.4702 16.9865 13.5745 16.9744 13.6966 16.9514C13.9368 16.906 14.2689 16.8137 14.6107 16.62C15.3596 16.1956 16 15.3664 16 14C16 12.6336 15.3596 11.8044 14.6107 11.38C14.2689 11.1863 13.9368 11.094 13.6966 11.0486C13.5745 11.0256 13.4702 11.0135 13.3918 11.0072C13.3525 11.004 13.3191 11.0022 13.2929 11.0012C13.2856 11.0009 13.2788 11.0007 13.2726 11.0005C13.2676 11.0004 13.2629 11.0003 13.2586 11.0002L13.2456 11L13.2401 11L13.2376 11L11 11V9H15ZM13.2304 14.9994L13.2215 15H11V13H13.2215L13.2304 13.0006C13.2486 13.0021 13.2821 13.0057 13.3254 13.0139C13.4161 13.031 13.5252 13.0637 13.6246 13.12C13.758 13.1956 14 13.3664 14 14C14 14.6336 13.758 14.8044 13.6246 14.88C13.5252 14.9363 13.4161 14.969 13.3254 14.9861C13.2821 14.9943 13.2486 14.9979 13.2304 14.9994Z" fill="#797878"/>
<path fill-rule="evenodd" clip-rule="evenodd" d="M23 12C23 18.0751 18.0751 23 12 23C5.92487 23 1 18.0751 1 12C1 5.92487 5.92487 1 12 1C18.0751 1 23 5.92487 23 12ZM21 12C21 16.9706 16.9706 21 12 21C7.02944 21 3 16.9706 3 12C3 7.02944 7.02944 3 12 3C16.9706 3 21 7.02944 21 12Z" fill="#797878"/>
</svg>
