<svg width="24" height="24" viewBox="0 0 24 24" fill="none" xmlns="http://www.w3.org/2000/svg">
<path d="M15 16C15.5523 16 16 15.5523 16 15C16 14.4477 15.5523 14 15 14C14.4477 14 14 14.4477 14 15C14 15.5523 14.4477 16 15 16Z" fill="#797878"/>
<path fill-rule="evenodd" clip-rule="evenodd" d="M22 5.99999V10.2676C22.5978 10.6134 23 11.2597 23 12V18C23 18.7403 22.5978 19.3866 22 19.7324V21C22 22.1046 21.1046 23 20 23H3C1.89543 23 1 22.1046 1 21V5.99999C1 4.89543 1.89543 3.99999 3 3.99999H8.22837L9.55334 1.91362C10.1949 0.903383 11.5741 0.678926 12.5029 1.4336L15.6614 3.99999H20C21.1046 3.99999 22 4.89542 22 5.99999ZM16.1819 6.99999L11.2417 2.9858L8.69241 6.99999H16.1819ZM6.3232 6.99999L6.95825 5.99999H3V21H20V20H16C13.2386 20 11 17.7614 11 15C11 12.2386 13.2386 10 16 10H20V8.99921C19.9867 8.99973 19.9734 8.99999 19.96 8.99999H5C4.44772 8.99999 4 8.55228 4 7.99999C4 7.44771 4.44772 6.99999 5 6.99999H6.3232ZM20 7.00078V5.99999H18.1228L19.3535 6.99999H19.96C19.9734 6.99999 19.9867 7.00026 20 7.00078ZM16 12C14.3431 12 13 13.3431 13 15C13 16.6568 14.3431 18 16 18H21V12H16Z" fill="#797878"/>
</svg>
