<svg width="240" height="40" viewBox="0 0 240 40" fill="none" xmlns="http://www.w3.org/2000/svg">
<path d="M39.9998 20.0882C39.9558 31.1355 30.947 40.0439 19.9119 39.9998C8.87674 39.9557 -0.04389 30.9591 0.000162457 19.9118C0.044215 8.86448 9.05295 -0.043938 20.0881 0.000163037C31.1453 0.0442641 40.0439 9.04088 39.9998 20.0882Z" fill="#221F1F"/>
<path d="M27.203 29.9007C25.0885 33.6934 22.4674 36.8025 19.5379 36.7364C17.7097 36.6922 15.9696 36.0087 14.3837 34.9282C14.8903 34.0021 18.0841 29.3715 27.203 29.9007ZM39.4716 20.0882C39.4276 30.8268 30.6611 39.5147 19.9123 39.4486C9.1635 39.4045 0.529213 30.6504 0.529213 19.9118C0.529213 12.9438 4.00936 7.93834 7.3133 5.24818C11.3661 1.96265 14.1194 4.47641 15.0886 6.39481C14.9784 5.57894 14.648 3.24158 13.745 1.56574C15.7273 0.882172 17.8639 0.507313 20.0885 0.529363C30.8373 0.595515 39.5157 9.32753 39.4716 20.0882ZM18.9652 8.88652C21.7845 6.96812 26.6523 5.90969 29.2294 9.92289C27.6656 0.749869 20.9035 6.01995 18.9652 8.88652ZM15.0445 17.5524C15.6392 16.8909 16.322 16.2293 17.115 15.634C20.6392 12.9218 24.4938 12.2382 25.7493 14.1345C26.2339 14.8622 26.2559 15.8765 25.8814 16.9791C27.1369 14.9063 27.5334 12.9879 26.7625 11.9295C25.4629 10.1654 21.4321 11.3782 17.7537 14.6417C16.6745 15.5458 15.7714 16.5601 15.0445 17.5524ZM8.89919 19.1841C10.6833 19.5149 12.6216 17.2437 13.2163 14.0684C13.811 10.8931 12.8639 8.07065 11.0798 7.71784C9.29566 7.38708 7.35735 9.65829 6.76264 12.8336C6.16793 15.9868 7.11506 18.8313 8.89919 19.1841ZM33.7008 15.3473C16.6304 26.7916 4.84636 20.9923 4.84636 20.9923C4.67015 24.9614 11.4763 37.1553 19.5819 37.3097C27.7096 37.464 33.7008 15.3473 33.7008 15.3473ZM7.24722 12.8997C7.79788 9.98905 9.47187 7.87219 10.9917 8.1809C12.5115 8.46756 13.3044 11.0695 12.7758 13.9802C12.2252 16.8909 10.5512 19.0077 9.03135 18.699C7.48951 18.4124 6.69656 15.8104 7.24722 12.8997ZM10.4851 15.3694C11.1679 15.5237 11.9168 14.6858 12.1811 13.5171C12.4454 12.3485 12.093 11.268 11.4102 11.1357C10.9476 11.0254 10.4631 11.3782 10.1106 11.9736C10.419 12.1279 10.5732 12.5249 10.419 12.8556C10.2868 13.1643 9.97848 13.3187 9.67011 13.2525C9.53795 14.2889 9.86834 15.215 10.4851 15.3694Z" fill="#05BC52"/>
<path d="M230.532 9H221.49L212 30H219.565L221.199 25.8878H230.779L232.412 30H240L230.532 9ZM222.878 21.6832L226.011 13.8284L229.122 21.6832H222.878Z" fill="white"/>
<path d="M162 14.3828H170.149V30H176.851V14.3828H185V9H162V14.3828Z" fill="white"/>
<path d="M145.644 21.5908H157.489V17.3861H145.644V14.2904H159.511V9H139V30H160V24.802H145.644V21.5908Z" fill="white"/>
<path d="M135.932 12.7426V9H113.181V14.3828H125.418L113 26.2805V30H136V24.5941H123.65L135.932 12.7426Z" fill="white"/>
<path d="M97.9891 9C89.3871 9 84 12.5246 84 19.9885C84 27.4524 89.3654 31 97.9891 31C106.635 31 112 27.4293 112 19.9885C112 12.5476 106.635 9 97.9891 9ZM97.9891 25.4942C93.6881 25.4942 91.0597 23.9277 91.0597 19.9654C91.0597 15.9801 93.6881 14.4597 97.9891 14.4597C102.268 14.4597 104.94 15.9801 104.94 19.9654C104.94 23.9508 102.268 25.4942 97.9891 25.4942Z" fill="white"/>
<path d="M81.7557 16.6007C81.7557 12.165 78.9728 9 72.3439 9H58V30H64.9231V24.0627H69.3801L74.3575 30H83L77.2081 23.1848C80.1041 21.8911 81.7557 19.165 81.7557 16.6007ZM64.9231 13.9439H71.733C73.8371 13.9439 74.6742 15.099 74.6742 16.5776C74.6742 17.571 74.086 19.396 71.6199 19.396H64.9231V13.9439Z" fill="white"/>
<path d="M203.156 9L194.8 16.67V9H188V30H194.8V24.2013L197.356 21.9373L203.178 30H211.667L202.289 17.571L212 9H203.156Z" fill="white"/>
</svg>
