<svg width="80" height="40" viewBox="0 0 80 40" fill="none" xmlns="http://www.w3.org/2000/svg">
<path d="M8.57195 24.329C8.18361 24.0734 7.76549 23.87 7.32765 23.7236C6.88926 23.5789 6.43172 23.5061 5.97161 23.5078C5.68602 23.5052 5.40118 23.5388 5.12346 23.6078C4.88901 23.6645 4.66568 23.7624 4.46321 23.8974C4.28999 24.0131 4.14417 24.1678 4.03659 24.3501C3.93402 24.53 3.8813 24.7359 3.88423 24.9449C3.87676 25.1301 3.92273 25.3133 4.01628 25.4713C4.1135 25.6207 4.24419 25.7435 4.39719 25.8292C4.58746 25.9372 4.79068 26.0186 5.00156 26.0714C5.26774 26.1407 5.5373 26.1951 5.80909 26.2345L6.44902 26.324C6.8206 26.3778 7.18744 26.4623 7.54604 26.5767C7.88685 26.6827 8.20917 26.8445 8.50085 27.0557C8.77871 27.2584 9.00947 27.5227 9.17633 27.8295C9.35433 28.1775 9.44184 28.5676 9.43027 28.9613C9.43913 29.4124 9.33595 29.8583 9.13062 30.2562C8.93305 30.6305 8.65713 30.9543 8.32309 31.2037C7.96503 31.4694 7.56439 31.6672 7.13974 31.788C6.67537 31.9234 6.19499 31.9907 5.7126 31.988C5.38593 31.9863 5.05989 31.9582 4.73747 31.9038C4.39343 31.85 4.05385 31.7691 3.72171 31.6617C3.40676 31.5528 3.101 31.4172 2.80753 31.2563C2.51755 31.1028 2.24643 30.9137 2 30.6931L2.80753 29.4561C2.98213 29.6194 3.17477 29.7608 3.38143 29.8772C3.857 30.147 4.37151 30.3354 4.90507 30.4352C5.17474 30.4873 5.44844 30.5137 5.72275 30.5141C6.00616 30.5179 6.28904 30.4879 6.56583 30.4246C6.80725 30.3701 7.03871 30.2759 7.25147 30.1456C7.43536 30.0335 7.59316 29.8807 7.71364 29.6982C7.82958 29.5195 7.88985 29.3082 7.88632 29.0929C7.89348 28.7285 7.69506 28.3933 7.37844 28.2348C6.87883 27.9938 6.34271 27.8442 5.79386 27.7927L5.07267 27.6874C4.72742 27.6377 4.38737 27.5549 4.05691 27.44C3.73954 27.3317 3.44238 27.1679 3.17828 26.9557C2.91702 26.745 2.70375 26.4772 2.55359 26.1714C2.38211 25.819 2.29501 25.429 2.29965 25.0344C2.29201 24.5897 2.39151 24.15 2.58914 23.7552C2.77963 23.3836 3.04875 23.0615 3.37635 22.813C3.72729 22.5491 4.12128 22.3529 4.5394 22.234C5.00189 22.0979 5.48069 22.0305 5.96146 22.0339C6.58301 22.0256 7.20189 22.1197 7.7949 22.3129C8.33322 22.4938 8.84567 22.7487 9.31854 23.0709L8.57195 24.329ZM13.6253 25.066C14.0425 25.062 14.4559 25.148 14.8392 25.3186C15.1995 25.4802 15.5218 25.7209 15.7838 26.024C16.0543 26.3429 16.2629 26.7129 16.3984 27.1136C16.5514 27.565 16.627 28.0407 16.6218 28.5191V28.7928V29.056H11.9087C11.9427 29.3241 12.0254 29.5831 12.1525 29.8193C12.2622 30.0221 12.4088 30.2008 12.5842 30.3457C12.7523 30.4815 12.9435 30.5833 13.1479 30.6457C13.359 30.71 13.578 30.7419 13.798 30.7405C14.1243 30.7379 14.4475 30.6755 14.7528 30.5562C15.0717 30.4321 15.3686 30.2542 15.6315 30.0298L16.3171 31.0563C15.9583 31.3826 15.5381 31.6282 15.083 31.7775C14.6366 31.9164 14.1727 31.9856 13.7066 31.9828C13.2586 31.9877 12.8138 31.9038 12.3963 31.7353C12.0147 31.5772 11.6688 31.3388 11.3805 31.0352C11.087 30.7238 10.8587 30.3528 10.7101 29.9456C10.5461 29.4913 10.4652 29.0094 10.4714 28.5244C10.4666 28.0451 10.5457 27.5689 10.705 27.1189C10.8484 26.7123 11.0695 26.3399 11.3551 26.024C11.6413 25.7165 11.9876 25.476 12.3709 25.3186C12.7688 25.1487 13.195 25.0611 13.6253 25.0607V25.066ZM13.6 26.3451C13.3748 26.3406 13.1509 26.3799 12.9397 26.4609C12.7497 26.533 12.5766 26.646 12.4318 26.7925C12.2886 26.9452 12.1733 27.1235 12.0916 27.3189C11.9998 27.5263 11.9366 27.746 11.9036 27.9716H15.1947C15.1554 27.5267 14.9771 27.1071 14.6868 26.7767C14.3967 26.481 14.0015 26.3229 13.5949 26.3398L13.6 26.3451ZM20.9591 25.066C21.4151 25.0615 21.8674 25.151 22.2898 25.3291C22.6839 25.5028 23.0322 25.7717 23.3055 26.1135L22.4167 27.0926C22.2124 26.8786 21.9756 26.7008 21.7159 26.5662C21.4572 26.4464 21.1763 26.3871 20.8931 26.3925C20.6384 26.3897 20.3859 26.4417 20.1516 26.5451C19.9282 26.6538 19.7292 26.8098 19.5675 27.0031C19.3947 27.195 19.26 27.4204 19.1714 27.6663C18.9811 28.2195 18.9811 28.8239 19.1714 29.3771C19.2594 29.6249 19.3941 29.8522 19.5675 30.0456C19.7348 30.2304 19.9371 30.3774 20.1618 30.4773C20.3961 30.5807 20.6486 30.6327 20.9033 30.6299C21.2024 30.6305 21.4977 30.5603 21.7666 30.4246C22.0234 30.3002 22.2599 30.135 22.4675 29.9351L23.3258 30.951C23.0407 31.2933 22.6825 31.5618 22.2796 31.7353C21.8592 31.9142 21.4084 32.0037 20.954 31.9985C20.4847 32.0055 20.0186 31.9161 19.5828 31.7353C18.7824 31.4037 18.155 30.7362 17.856 29.8982C17.5376 29.012 17.5376 28.0367 17.856 27.1505C18.1551 26.3217 18.776 25.6609 19.5675 25.3291C20.0078 25.1446 20.4792 25.0533 20.954 25.0607L20.9591 25.066ZM30.4311 29.0244C30.4428 29.4875 30.3561 29.9475 30.1771 30.372C30.0251 30.7256 29.7997 31.0402 29.5169 31.2932C29.2413 31.5328 28.9217 31.7119 28.5773 31.8196C27.869 32.0443 27.1119 32.0443 26.4036 31.8196C26.0578 31.7117 25.7365 31.5327 25.4589 31.2932C25.1744 31.0419 24.9486 30.7269 24.7987 30.372C24.623 29.9466 24.5381 29.487 24.5498 29.0244V25.2344H25.9414V28.9191C25.9344 29.1926 25.9739 29.4653 26.0582 29.7245C26.1286 29.9235 26.2414 30.1035 26.3883 30.2509C26.5324 30.3912 26.7064 30.494 26.8962 30.551C27.2938 30.6745 27.7176 30.6745 28.1151 30.551C28.3049 30.494 28.479 30.3912 28.623 30.2509C28.7699 30.1035 28.8828 29.9235 28.9531 29.7245C29.0393 29.4656 29.0805 29.193 29.075 28.9191V25.2344H30.4666L30.4311 29.0244ZM35.4845 25.066C35.6767 25.0651 35.8687 25.081 36.0584 25.1133C36.232 25.1421 36.4022 25.1898 36.5662 25.2555L36.2361 26.6767C36.0755 26.5933 35.9046 26.5331 35.7282 26.4977C35.5496 26.4577 35.3675 26.4366 35.1848 26.4346C34.9763 26.4319 34.7694 26.4712 34.5754 26.5504C34.3932 26.6254 34.2299 26.7424 34.0979 26.8925C33.9595 27.055 33.8541 27.2448 33.7881 27.4505C33.7101 27.6913 33.6723 27.9441 33.6764 28.198V31.8143H32.2645V25.2344H33.6358V25.9766C33.8313 25.6742 34.1038 25.4337 34.423 25.2818C34.7558 25.1306 35.116 25.0552 35.4794 25.0607L35.4845 25.066ZM40.1315 25.066C40.5487 25.062 40.9621 25.148 41.3454 25.3186C41.7057 25.4802 42.028 25.7209 42.29 26.024C42.5695 26.3408 42.7868 26.7109 42.93 27.1136C43.0829 27.565 43.1585 28.0407 43.1534 28.5191V28.7928V29.056H38.4098C38.4438 29.3241 38.5265 29.5831 38.6536 29.8193C38.7633 30.0221 38.9099 30.2008 39.0853 30.3457C39.2534 30.4815 39.4446 30.5833 39.6491 30.6457C39.8601 30.71 40.0792 30.7419 40.2991 30.7405C40.6254 30.7379 40.9487 30.6755 41.254 30.5562C41.5728 30.4321 41.8697 30.2542 42.1326 30.0298L42.8233 31.051C42.4646 31.3775 42.0443 31.6231 41.5892 31.7722C41.1428 31.9112 40.6789 31.9804 40.2128 31.9775C39.7648 31.9825 39.32 31.8985 38.9025 31.7301C38.5209 31.5719 38.175 31.3335 37.8867 31.03C37.5932 30.7185 37.3649 30.3476 37.2163 29.9403C37.0523 29.4861 36.9714 29.0041 36.9776 28.5191C36.9728 28.0398 37.0519 27.5636 37.2112 27.1136C37.3516 26.7079 37.5692 26.3356 37.8512 26.0187C38.1373 25.7112 38.4837 25.4707 38.8669 25.3134C39.2668 25.1446 39.6947 25.0587 40.1265 25.0607L40.1315 25.066ZM40.1062 26.3451C39.881 26.3406 39.6571 26.3799 39.4459 26.4609C39.2559 26.533 39.0828 26.646 38.938 26.7925C38.7948 26.9452 38.6795 27.1235 38.5978 27.3189C38.5061 27.5263 38.4428 27.746 38.4098 27.9716H41.7111C41.6717 27.5267 41.4934 27.1071 41.2032 26.7767C40.9106 26.4783 40.5111 26.3199 40.1011 26.3398L40.1062 26.3451ZM49.1007 22.0023C49.5023 22.0009 49.9027 22.0468 50.2942 22.1392C50.6658 22.2267 51.0257 22.3611 51.3658 22.5393C51.6911 22.7099 51.9933 22.9241 52.2648 23.1762C52.5295 23.4201 52.7573 23.7041 52.9403 24.0184L51.6909 24.8817C51.4122 24.4559 51.0373 24.1072 50.5989 23.8658C50.1295 23.6107 49.6051 23.4839 49.0753 23.4973C48.6268 23.4924 48.1817 23.5782 47.765 23.75C47.383 23.9147 47.0374 24.1582 46.7492 24.4659C46.4514 24.7829 46.2182 25.1588 46.0636 25.5713C45.732 26.4876 45.732 27.4975 46.0636 28.4138C46.2182 28.8263 46.4514 29.2022 46.7492 29.5192C47.0374 29.8269 47.383 30.0704 47.765 30.2351C48.1817 30.4069 48.6268 30.4927 49.0753 30.4878C50.1067 30.5113 51.0795 29.9923 51.6604 29.1086L52.8793 30.0351C52.6811 30.3361 52.4454 30.6086 52.1784 30.8457C51.9164 31.0918 51.6265 31.3039 51.315 31.4774C50.9826 31.6503 50.6314 31.7811 50.2688 31.8669C49.2256 32.1061 48.1376 32.0219 47.1403 31.6248C45.9767 31.1529 45.0561 30.1988 44.6009 28.9928C44.1246 27.7122 44.1246 26.2939 44.6009 25.0133C45.0561 23.8073 45.9767 22.8532 47.1403 22.3813C47.7639 22.1247 48.4297 21.996 49.1007 22.0023ZM57.2775 25.0449C57.7435 25.0393 58.206 25.1288 58.6387 25.3081C59.0416 25.4747 59.4091 25.7215 59.7204 26.0345C60.0272 26.3463 60.2707 26.7186 60.4365 27.1294C60.781 28.0105 60.781 28.9961 60.4365 29.8772C60.2707 30.288 60.0272 30.6603 59.7204 30.9721C59.4091 31.2851 59.0416 31.5319 58.6387 31.6985C57.7631 32.0511 56.792 32.0511 55.9164 31.6985C55.513 31.5329 55.1453 31.286 54.8346 30.9721C54.525 30.6676 54.2765 30.3026 54.1033 29.8982C53.7588 29.0171 53.7588 28.0316 54.1033 27.1505C54.2681 26.7404 54.5098 26.3682 54.8143 26.0556C55.125 25.7417 55.4927 25.4948 55.8961 25.3291C56.3363 25.1446 56.8078 25.0533 57.2826 25.0607L57.2775 25.0449ZM57.2775 26.3977C57.008 26.3948 56.7406 26.4467 56.4903 26.5504C56.2541 26.6481 56.0398 26.795 55.8606 26.982C55.6809 27.1725 55.5394 27.3979 55.4441 27.6453C55.2409 28.1961 55.2409 28.8052 55.4441 29.3561C55.5394 29.6034 55.6809 29.8288 55.8606 30.0193C56.04 30.2061 56.2543 30.353 56.4903 30.451C56.9964 30.6564 57.5587 30.6564 58.0648 30.451C58.5444 30.2561 58.9262 29.8661 59.1211 29.3718C59.3243 28.821 59.3243 28.2119 59.1211 27.6611C59.0251 27.4129 58.8817 27.1873 58.6996 26.9978C58.5182 26.8111 58.3022 26.6643 58.0648 26.5662C57.8161 26.4631 57.5504 26.4113 57.2826 26.4135L57.2775 26.3977ZM64.8602 25.0449C65.6376 25.0137 66.3814 25.3747 66.8561 26.0135V21.9076H68.2427V31.809H66.8561V31.0195C66.6348 31.3125 66.3539 31.5516 66.0334 31.7196C65.6682 31.9032 65.2659 31.9935 64.8602 31.9828C64.0132 31.9911 63.2 31.6391 62.6103 31.0089C62.3158 30.6891 62.0862 30.3115 61.9348 29.8982C61.6084 29.0027 61.6084 28.0144 61.9348 27.1189C62.0881 26.7113 62.3176 26.3392 62.6103 26.024C63.2 25.3938 64.0132 25.0418 64.8602 25.0502V25.0449ZM65.0278 26.3977C64.7517 26.3932 64.478 26.4507 64.2253 26.5662C63.9974 26.6723 63.7933 26.8264 63.626 27.0189C63.4601 27.2143 63.3324 27.4414 63.2502 27.6874C63.0737 28.216 63.0737 28.7906 63.2502 29.3192C63.3324 29.5652 63.4601 29.7923 63.626 29.9877C63.7933 30.1802 63.9974 30.3343 64.2253 30.4404C64.7324 30.6592 65.3028 30.6592 65.8099 30.4404C66.0387 30.3379 66.2445 30.1874 66.4143 29.9983C66.5797 29.8164 66.7106 29.6039 66.8003 29.3718C66.9858 28.8304 66.9858 28.2393 66.8003 27.6979C66.713 27.4525 66.5802 27.2271 66.4092 27.0347C66.2391 26.8459 66.0334 26.6954 65.8048 26.5925C65.5607 26.4772 65.296 26.4163 65.0278 26.4135V26.3977ZM72.8491 25.0449C73.2663 25.0408 73.6797 25.1268 74.0629 25.2976C74.4234 25.459 74.7457 25.6997 75.0076 26.0029C75.2781 26.3219 75.4867 26.6918 75.6221 27.0926C75.7753 27.5439 75.8509 28.0196 75.8456 28.498V28.7718V29.035H71.1579C71.1911 29.3032 71.2738 29.5624 71.4017 29.7982C71.5112 30.0011 71.6578 30.1799 71.8334 30.3246C72.0014 30.4606 72.1926 30.5624 72.3971 30.6247C72.6082 30.6889 72.8272 30.7208 73.0472 30.7194C73.3734 30.7168 73.6967 30.6544 74.002 30.5352C74.3208 30.411 74.6177 30.2331 74.8806 30.0088L75.5714 31.03C75.2125 31.3562 74.7922 31.6017 74.3372 31.7511C73.8908 31.8902 73.4269 31.9594 72.9608 31.9564C72.5128 31.9614 72.0681 31.8774 71.6505 31.709C71.2689 31.5509 70.9231 31.3125 70.6348 31.0089C70.3412 30.6975 70.113 30.3265 69.9644 29.9193C69.8003 29.465 69.7194 28.983 69.7257 28.498C69.7208 28.0187 69.7999 27.5425 69.9593 27.0926C70.1028 26.686 70.3239 26.3137 70.6094 25.9977C70.8955 25.6901 71.2419 25.4496 71.6251 25.2923C72.0153 25.1355 72.4306 25.0569 72.8491 25.0607V25.0449ZM76.5109 31.7933V31.4774H76.6379V31.409H76.3078V31.4774H76.45V31.809L76.5109 31.7933ZM77.1458 31.7933V31.3932H77.0442L76.9274 31.6669L76.8106 31.3932H76.709V31.7933H76.7801V31.4932L76.8867 31.7511H76.9579L77.0645 31.4932V31.7933H77.1458ZM72.8237 26.324C72.5986 26.3196 72.3746 26.3588 72.1635 26.4398C71.9735 26.512 71.8004 26.625 71.6556 26.7715C71.5123 26.9241 71.397 27.1025 71.3153 27.2979C71.2237 27.5053 71.1604 27.725 71.1274 27.9506H74.4185C74.3824 27.5001 74.2039 27.0745 73.9106 26.7399C73.6158 26.4589 73.2234 26.3145 72.8237 26.3398V26.324Z" fill="#F79E1B"/>
<path d="M13.1256 18.2489H11.5715V10.0477L8.76294 17.2645H7.12757L4.32916 10.1266V18.2489H2.76489V8.28425H5.14685L7.94526 15.4063L10.7386 8.28425H13.1205L13.1256 18.2489ZM21.3025 18.2489H19.8652V17.433C19.6356 17.737 19.3443 17.985 19.0119 18.1594C18.6338 18.3479 18.2176 18.44 17.7981 18.4278C16.9185 18.4375 16.0738 18.0721 15.4619 17.4172C15.1582 17.0898 14.92 16.7034 14.761 16.2802C14.4221 15.3507 14.4221 14.325 14.761 13.3955C14.9201 12.9724 15.1583 12.586 15.4619 12.2585C16.0738 11.6036 16.9185 11.2381 17.7981 11.2478C18.2181 11.2363 18.6345 11.3302 19.0119 11.5216C19.3442 11.6984 19.6353 11.9481 19.8652 12.2533V11.4321H21.3025V18.2489ZM17.9657 12.6533C17.6792 12.6483 17.3951 12.7075 17.1328 12.827C16.8972 12.937 16.6861 13.0965 16.5132 13.2955C16.3409 13.4989 16.2082 13.7348 16.1221 13.9904C15.9387 14.5394 15.9387 15.1363 16.1221 15.6853C16.209 15.9416 16.3436 16.1777 16.5183 16.3802C16.691 16.5794 16.9021 16.739 17.1379 16.8487C17.6643 17.0768 18.257 17.0768 18.7834 16.8487C19.0197 16.742 19.2324 16.5861 19.4081 16.3907C19.5852 16.1902 19.7232 15.956 19.8144 15.7011C20.0065 15.1392 20.0065 14.5259 19.8144 13.964C19.7232 13.7091 19.5852 13.475 19.4081 13.2745C19.2322 13.0792 19.0196 12.9234 18.7834 12.8165C18.5251 12.7025 18.2464 12.6469 17.9657 12.6533ZM27.8897 13.1376C27.7694 13.066 27.6457 13.001 27.5189 12.9428C27.3537 12.8684 27.1841 12.8051 27.011 12.7533C26.8242 12.6948 26.6343 12.6473 26.4422 12.6112C26.2412 12.5728 26.0372 12.5534 25.8328 12.5533C25.5116 12.5343 25.1921 12.613 24.9135 12.7796C24.7113 12.9019 24.5874 13.1266 24.5885 13.3692C24.5848 13.4763 24.6151 13.5817 24.6748 13.6693C24.7352 13.7532 24.8134 13.8216 24.9033 13.8693C25.0126 13.9269 25.1287 13.9693 25.2487 13.9956C25.3807 14.0272 25.5229 14.0553 25.6753 14.0798L26.3559 14.1851C26.9609 14.2501 27.5397 14.4748 28.0369 14.8378C28.4545 15.1591 28.6921 15.6732 28.6718 16.2117C28.6748 16.5243 28.6051 16.8331 28.4686 17.1119C28.326 17.3811 28.1263 17.6132 27.8846 17.7909C27.601 18.0018 27.2826 18.157 26.945 18.2489C26.531 18.3633 26.1038 18.4182 25.6753 18.4121C25.506 18.4121 25.3096 18.4015 25.0862 18.3805C24.8448 18.3567 24.6054 18.3145 24.3701 18.2541C24.1064 18.1857 23.8482 18.0959 23.5981 17.9857C23.3326 17.8685 23.0819 17.7182 22.8515 17.5382L23.5168 16.4223C23.6395 16.5207 23.7685 16.6104 23.9028 16.6907C24.0533 16.7794 24.2115 16.8534 24.3751 16.9118C24.5654 16.9795 24.7607 17.0306 24.9592 17.0645C25.1993 17.105 25.4422 17.1243 25.6855 17.1224C26.0703 17.1449 26.4545 17.0671 26.8028 16.896C27.0314 16.7869 27.1795 16.5516 27.1837 16.2907C27.1802 16.0921 27.076 15.91 26.9095 15.8117C26.6435 15.6584 26.3493 15.5651 26.0461 15.5379L25.3604 15.4432C24.7552 15.3923 24.177 15.1621 23.6946 14.7799C23.3161 14.4486 23.1047 13.9561 23.1207 13.4429C23.1165 13.1263 23.1826 12.813 23.3137 12.527C23.4394 12.2557 23.6257 12.0193 23.8571 11.8374C24.1136 11.6405 24.4028 11.4942 24.7103 11.4058C25.0789 11.2992 25.4603 11.2478 25.8429 11.2531C26.3363 11.2502 26.828 11.3139 27.3056 11.4426C27.7308 11.552 28.137 11.7296 28.5093 11.969L27.8897 13.1376ZM34.7054 12.7796H32.166V15.7485C32.1657 15.9493 32.1983 16.1486 32.2625 16.3381C32.3092 16.4846 32.3854 16.6191 32.486 16.7329C32.5772 16.8342 32.6904 16.9118 32.8161 16.9592C32.9479 17.0087 33.0872 17.0337 33.2275 17.0329C33.4622 17.031 33.6945 16.9846 33.9131 16.896C34.1364 16.8098 34.3508 16.7004 34.553 16.5697L35.1219 17.7593C34.8421 17.9532 34.5423 18.1139 34.228 18.2383C33.869 18.3763 33.4884 18.4442 33.1056 18.4384C32.4657 18.4769 31.8383 18.2431 31.3686 17.7909C30.9069 17.2354 30.6799 16.5108 30.7389 15.7801V12.7849H29.4336V11.4321H30.7389V9.36862H32.1812V11.4321H34.7206L34.7054 12.7796ZM39.1239 11.2478C39.5565 11.2422 39.9855 11.33 40.3835 11.5058C40.7575 11.6732 41.0919 11.9229 41.3637 12.2375C41.6451 12.5686 41.8624 12.9529 42.0036 13.3692C42.1613 13.8377 42.2386 14.3312 42.2322 14.8273V15.1116V15.38H37.3413C37.3769 15.6575 37.4631 15.9255 37.5952 16.1696C37.7107 16.3728 37.8624 16.5514 38.0422 16.696C38.2164 16.8364 38.4145 16.9418 38.6262 17.0066C38.8454 17.074 39.073 17.1077 39.3017 17.1066C39.6485 17.1075 39.9927 17.0433 40.3175 16.9171C40.6462 16.7943 40.9533 16.6164 41.2266 16.3907L41.9427 17.4435C41.5704 17.7815 41.1346 18.036 40.6628 18.191C40.2001 18.336 39.7191 18.4087 39.2357 18.4068C38.7634 18.4238 38.2924 18.3452 37.8492 18.1752C37.4487 18.0128 37.0854 17.7653 36.7826 17.4488C36.4779 17.1252 36.241 16.7399 36.0868 16.317C35.9163 15.846 35.8319 15.3462 35.838 14.8431C35.832 14.3461 35.9128 13.8521 36.0767 13.385C36.2258 12.9628 36.4555 12.5761 36.7521 12.248C37.0379 11.9334 37.3838 11.6842 37.7679 11.5163C38.198 11.334 38.6594 11.2444 39.1239 11.2531V11.2478ZM39.0985 12.5744C38.8647 12.5699 38.6321 12.611 38.4129 12.6954C38.2223 12.7736 38.0493 12.8919 37.905 13.0428C37.7575 13.1952 37.6371 13.3734 37.5495 13.5692C37.4488 13.7876 37.3787 14.0199 37.3413 14.2588H40.7542C40.7086 13.7949 40.5157 13.3598 40.2057 13.0218C39.9103 12.7235 39.5108 12.562 39.0985 12.5744ZM47.2246 11.2478C47.4236 11.2465 47.6224 11.2624 47.8188 11.2952C47.9925 11.3265 48.1626 11.3759 48.3267 11.4426L47.9814 12.9165C47.8207 12.832 47.6499 12.7701 47.4735 12.7323C47.2881 12.6918 47.0992 12.6706 46.9097 12.6691C46.6942 12.667 46.4804 12.7081 46.28 12.7902C46.0861 12.867 45.9122 12.9895 45.7721 13.1481C45.6272 13.3165 45.5166 13.5134 45.447 13.7272C45.366 13.9763 45.3265 14.238 45.3302 14.501V18.2541H43.8929V11.411H45.315V12.1796C45.5162 11.8738 45.7935 11.63 46.1174 11.4742C46.462 11.3205 46.8343 11.2451 47.2094 11.2531L47.2246 11.2478ZM52.1358 11.2478C52.6093 11.2428 53.0789 11.3359 53.5172 11.5216C53.9347 11.6989 54.3043 11.9789 54.5939 12.3375L53.6747 13.3534C53.4616 13.1385 53.2163 12.9608 52.9484 12.827C52.6802 12.7024 52.3891 12.6395 52.0952 12.6428C51.8318 12.6402 51.5707 12.694 51.3283 12.8007C51.0939 12.9035 50.8829 13.0559 50.7087 13.2481C50.5308 13.4481 50.3927 13.6824 50.3024 13.9377C50.1043 14.5112 50.1043 15.1382 50.3024 15.7117C50.3929 15.9669 50.5309 16.2012 50.7087 16.4012C50.883 16.5933 51.094 16.7457 51.3283 16.8487C51.5707 16.9554 51.8318 17.0092 52.0952 17.0066C52.4005 17.0096 52.7026 16.9412 52.9789 16.8066C53.246 16.6715 53.4911 16.4939 53.7051 16.2802L54.5889 17.3066C54.2931 17.6629 53.9209 17.9424 53.502 18.1225C53.0655 18.3083 52.5975 18.4014 52.1256 18.3963C51.6388 18.4034 51.1555 18.3103 50.7036 18.1225C49.8768 17.781 49.2263 17.0954 48.9108 16.2328C48.5807 15.3143 48.5807 14.3034 48.9108 13.385C49.2263 12.5224 49.8768 11.8368 50.7036 11.4952C51.156 11.3189 51.6375 11.2366 52.1206 11.2531L52.1358 11.2478ZM62.2274 18.2489H60.7901V17.433C60.5605 17.737 60.2692 17.985 59.9368 18.1594C59.5587 18.3479 59.1425 18.44 58.723 18.4278C57.8434 18.4375 56.9987 18.0721 56.3868 17.4172C56.0831 17.0898 55.8449 16.7034 55.6859 16.2802C55.3469 15.3507 55.3469 14.325 55.6859 13.3955C55.845 12.9724 56.0832 12.586 56.3868 12.2585C56.9987 11.6036 57.8434 11.2381 58.723 11.2478C59.143 11.2363 59.5594 11.3302 59.9368 11.5216C60.2691 11.6984 60.5602 11.9481 60.7901 12.2533V11.4321H62.2274V18.2489ZM58.8957 12.6533C58.6092 12.6483 58.3251 12.7075 58.0628 12.827C57.8271 12.937 57.6161 13.0965 57.4431 13.2955C57.2709 13.4989 57.1381 13.7348 57.0521 13.9904C56.8686 14.5394 56.8686 15.1363 57.0521 15.6853C57.1381 15.9408 57.2709 16.1768 57.4431 16.3802C57.616 16.5793 57.827 16.7388 58.0628 16.8487C58.5893 17.0762 59.1817 17.0762 59.7083 16.8487C59.9445 16.7419 60.1572 16.586 60.333 16.3907C60.5107 16.1907 60.6488 15.9564 60.7393 15.7011C60.9322 15.1394 60.9322 14.5258 60.7393 13.964C60.6488 13.7088 60.5107 13.4745 60.333 13.2745C60.1571 13.0792 59.9445 12.9234 59.7083 12.8165C59.4531 12.7041 59.178 12.6485 58.9007 12.6533H58.8957ZM67.6769 11.2531C67.8759 11.2518 68.0747 11.2677 68.2711 11.3005C68.4448 11.3318 68.6149 11.3812 68.779 11.4479L68.4336 12.9218C68.273 12.8373 68.1022 12.7753 67.9258 12.7375C67.7403 12.6971 67.5515 12.676 67.362 12.6744C67.1465 12.6721 66.9326 12.7132 66.7322 12.7954C66.5384 12.8722 66.3645 12.9948 66.2244 13.1534C66.0795 13.3217 65.9689 13.5187 65.8993 13.7324C65.8183 13.9816 65.7788 14.2433 65.7825 14.5062V18.2594H64.3452V11.4163H65.7825V12.1848C65.9843 11.8762 66.2635 11.6305 66.59 11.4742C66.9346 11.3207 67.307 11.2453 67.682 11.2531H67.6769ZM72.39 11.2531C72.81 11.2416 73.2264 11.3355 73.6039 11.5268C73.936 11.7038 74.2271 11.9535 74.4571 12.2585V8H75.8944V18.2489H74.4571V17.433C74.2275 17.737 73.9362 17.985 73.6039 18.1594C73.2257 18.3479 72.8095 18.44 72.39 18.4278C71.5104 18.4375 70.6657 18.0721 70.0538 17.4172C69.7447 17.0911 69.5013 16.7046 69.3377 16.2802C68.9987 15.3507 68.9987 14.325 69.3377 13.3955C69.4968 12.9724 69.7349 12.586 70.0385 12.2585C70.6505 11.6036 71.4952 11.2381 72.3748 11.2478L72.39 11.2531ZM77.5704 17.6225C77.6277 17.6211 77.6848 17.6318 77.738 17.654C77.7891 17.6762 77.8357 17.7084 77.8751 17.7488C77.9138 17.7879 77.9448 17.8344 77.9665 17.8857C78.0112 17.9932 78.0112 18.115 77.9665 18.2226C77.9447 18.2738 77.9137 18.3202 77.8751 18.3594C77.8355 18.3996 77.789 18.4318 77.738 18.4542C77.6852 18.4785 77.6281 18.4911 77.5704 18.491C77.3994 18.4935 77.2435 18.3899 77.1742 18.2278C77.1296 18.1203 77.1296 17.9985 77.1742 17.8909C77.2177 17.7853 77.2999 17.7019 77.4028 17.6593C77.4573 17.6348 77.5161 17.6223 77.5755 17.6225H77.5704ZM77.5704 18.3963C77.614 18.3969 77.6573 18.3879 77.6974 18.3699C77.7353 18.3521 77.7698 18.3271 77.7989 18.2962C77.9248 18.1632 77.9248 17.9503 77.7989 17.8172C77.7699 17.7861 77.7355 17.7611 77.6974 17.7435C77.6555 17.7346 77.6123 17.7346 77.5704 17.7435C77.5285 17.735 77.4853 17.735 77.4434 17.7435C77.3519 17.7895 77.2865 17.8772 77.2665 17.9806C77.2466 18.0839 77.2744 18.191 77.3418 18.2699C77.3709 18.3009 77.4054 18.3259 77.4434 18.3436C77.4836 18.3691 77.5287 18.3853 77.5755 18.391L77.5704 18.3963ZM77.5704 17.8699C77.6123 17.8675 77.6537 17.8805 77.6872 17.9067C77.7144 17.9299 77.7294 17.965 77.7278 18.0015C77.7296 18.0327 77.7186 18.0634 77.6974 18.0857C77.6723 18.11 77.6401 18.1248 77.6059 18.1278L77.7329 18.2805H77.6313L77.5145 18.1278H77.479V18.2805H77.3977V17.8751L77.5704 17.8699ZM77.4739 17.9436V18.0488H77.5704C77.587 18.0538 77.6046 18.0538 77.6212 18.0488C77.6275 18.0356 77.6275 18.02 77.6212 18.0067C77.6284 17.9937 77.6284 17.9776 77.6212 17.9646C77.6045 17.9599 77.587 17.9599 77.5704 17.9646L77.4739 17.9436ZM72.5373 12.6796C72.2508 12.6746 71.9667 12.7338 71.7044 12.8533C71.4687 12.9633 71.2577 13.1228 71.0848 13.3218C70.9125 13.5252 70.7798 13.7612 70.6937 14.0167C70.5103 14.5657 70.5103 15.1627 70.6937 15.7117C70.7798 15.9672 70.9125 16.2031 71.0848 16.4065C71.2576 16.6056 71.4687 16.7652 71.7044 16.875C72.2309 17.1025 72.8234 17.1025 73.3499 16.875C73.5862 16.7682 73.7988 16.6124 73.9746 16.417C74.1698 16.2079 74.3203 15.9587 74.4165 15.6853C74.609 15.1235 74.609 14.5101 74.4165 13.9482C74.326 13.693 74.1879 13.4587 74.0101 13.2587C73.8342 13.0634 73.6217 12.9076 73.3855 12.8007C73.126 12.6923 72.8473 12.642 72.5678 12.6533L72.5373 12.6796Z" fill="#EB001B"/>
</svg>
