<svg xmlns="http://www.w3.org/2000/svg" xmlns:xlink="http://www.w3.org/1999/xlink">
<defs>

<symbol viewBox="0 0 24 24" id="icon-telegram">
<path d="M2.3749 11.3184C7.74359 8.9193 11.3236 7.33767 13.1148 6.5735C18.2292 4.39166 19.2919 4.01265 19.9846 4.00013C20.1369 3.99738 20.4776 4.03611 20.6982 4.21974C20.8845 4.3748 20.9358 4.58426 20.9603 4.73128C20.9848 4.87829 21.0154 5.21319 20.9911 5.47487C20.714 8.46165 19.5147 15.7098 18.9046 19.055C18.6465 20.4705 18.1382 20.9451 17.6461 20.9916C16.5766 21.0925 15.7645 20.2667 14.7287 19.5702C13.1078 18.4805 12.1921 17.8021 10.6188 16.7387C8.80053 15.5097 9.97923 14.8343 11.0155 13.7304C11.2866 13.4415 15.9987 9.04547 16.0899 8.64668C16.1013 8.59681 16.1119 8.41089 16.0042 8.31273C15.8965 8.21456 15.7376 8.24813 15.6229 8.27483C15.4604 8.31267 12.871 10.0681 7.85486 13.541C7.11988 14.0587 6.45416 14.3109 5.8577 14.2977C5.20015 14.2831 3.93528 13.9163 2.99498 13.6028C1.84166 13.2183 0.925027 13.015 1.00485 12.362C1.04642 12.0218 1.5031 11.674 2.3749 11.3184Z"/>
</symbol>

<symbol viewBox="0 0 24 24" id="icon-twitter">
<path d="M22 5.89987C21.2511 6.22617 20.4568 6.44054 19.6434 6.53589C20.5006 6.03145 21.1418 5.23724 21.4474 4.30158C20.6419 4.77178 19.7608 5.10316 18.8419 5.28142C17.572 3.94396 15.5468 3.61429 13.9068 4.47809C12.2669 5.34188 11.4225 7.18309 11.8493 8.96464C8.54981 8.80168 5.47574 7.26804 3.39205 4.74536C2.301 6.59019 2.85701 8.95191 4.66131 10.1367C4.0096 10.117 3.37222 9.94368 2.80263 9.63141V9.68195C2.80275 11.6043 4.17973 13.2603 6.09466 13.6409C5.49042 13.8027 4.85655 13.8264 4.24157 13.7101C4.779 15.355 6.31944 16.4819 8.07502 16.5145C6.62155 17.6369 4.82661 18.2455 2.97901 18.2424C2.65184 18.2427 2.32494 18.224 2 18.1864C3.87639 19.3727 6.06019 20.0023 8.29047 20C15.8379 20 19.9649 13.8474 19.9649 8.51096C19.9649 8.3363 19.9605 8.16165 19.9527 7.98809C20.7563 7.41788 21.4497 6.71064 22 5.89987Z"/>
</symbol>

<symbol viewBox="0 0 24 24" id="icon-viber">
<path d="M19.4936 13.21C19.0146 17.2743 16.1937 17.5306 15.6737 17.7066C15.4517 17.7817 13.3948 18.321 10.8078 18.1419L8.00391 21.3407L8.00091 17.6551L7.97891 17.6489C4.21201 16.5466 4.33901 12.4134 4.38101 10.2438C4.42301 8.07427 4.81 6.29684 5.95997 5.10194C8.02391 3.13205 12.2758 3.42641 12.2758 3.42641C15.8667 3.44287 17.5887 4.5822 17.9866 4.96403C19.3126 6.15996 19.9876 9.02011 19.4936 13.21ZM18.9676 3.94924C18.4956 3.49227 16.5897 2.0339 12.3448 2.01434C12.3448 2.01434 7.33893 1.69632 4.898 4.05525C3.54003 5.48686 3.06205 7.58129 3.01105 10.179C2.96105 12.7767 2.89505 17.6438 7.34793 18.9642L7.35193 18.9653L7.34993 20.9794C7.34993 20.9794 7.32193 21.7956 7.83092 21.9613C8.4469 22.163 8.80889 21.5434 9.39787 20.8755C9.72087 20.5091 10.1669 19.9708 10.5028 19.5591C13.5488 19.8277 15.8907 19.2112 16.1567 19.1207C16.7717 18.9097 20.2516 18.4404 20.8176 13.5743C21.4005 8.55388 20.5336 5.38086 18.9676 3.94924Z"/>
<path d="M16.2517 13.8168C15.9735 13.5717 15.6905 13.3325 15.4027 13.0995C15.1407 12.8967 14.7227 12.624 14.4887 12.485C14.0697 12.2391 13.6408 12.3934 13.4638 12.6353L13.0958 13.1221C12.9078 13.3691 12.6168 13.3269 12.5408 13.3115C11.9978 13.1715 11.4198 12.8216 10.8298 12.2329C10.2318 11.639 9.87086 11.0184 9.74086 10.3731L9.73186 10.3309C9.69227 10.1336 9.73312 9.92823 9.84486 9.76281L9.86486 9.74634C10.1129 9.5086 10.5728 9.21939 10.6348 8.9446C10.8158 8.46602 10.0309 7.46975 9.91886 7.29376C9.91886 7.29376 9.34787 6.51569 9.14488 6.36748C8.92588 6.17914 8.58589 6.0721 8.2439 6.28926L8.2269 6.30264C7.24293 6.98809 6.88694 7.38124 6.98394 7.96892L7.03493 8.20563C7.53392 9.82456 8.49689 11.5505 9.93386 13.0871C11.3548 14.6052 12.8928 15.514 14.4077 16.1439C14.8017 16.2787 15.2097 16.1624 15.6287 15.7939L15.6357 15.7888C15.9567 15.48 16.2107 15.1496 16.4007 14.7956L16.4027 14.7884C16.5857 14.4117 16.5227 14.0577 16.2517 13.8168ZM13.8927 10.2712C13.8317 10.2707 13.7819 10.2208 13.7798 10.158C13.7598 9.73811 13.6498 9.417 13.4528 9.2019C13.2568 8.98885 12.9628 8.86946 12.5808 8.84785C12.5179 8.84291 12.4703 8.78713 12.4738 8.72229C12.4748 8.69098 12.488 8.6614 12.5103 8.64013C12.5327 8.61887 12.5624 8.60769 12.5928 8.60908C13.0348 8.63378 13.3788 8.77787 13.6158 9.0362C13.8517 9.2935 13.9837 9.66607 14.0057 10.1457C14.0092 10.2109 13.9611 10.2668 13.8977 10.2712H13.8927Z"/>
<path d="M15.0135 10.6674H15.0105C14.9473 10.6646 14.8982 10.6099 14.9005 10.5449C14.9175 9.73906 14.6895 9.05875 14.2205 8.51945C13.9866 8.24952 13.6991 8.03438 13.3775 7.88855C13.0187 7.73054 12.6361 7.63724 12.2465 7.61273C12.1836 7.60673 12.1369 7.54999 12.1416 7.48511C12.1453 7.42011 12.1994 7.37044 12.2625 7.37395C13.1665 7.44394 13.8805 7.77534 14.3875 8.3589C14.8965 8.94348 15.1455 9.68142 15.1265 10.5501C15.1265 10.6145 15.076 10.6668 15.0135 10.6674Z"/>
<path d="M16.1613 11.1404C16.1311 11.1402 16.1022 11.1275 16.081 11.1053C16.0598 11.0831 16.0481 11.0532 16.0483 11.0221C16.0433 10.3099 15.9394 9.66559 15.7374 9.10673C15.5439 8.56253 15.2378 8.06809 14.8404 7.65762C14.4588 7.2612 14.0039 6.94762 13.5024 6.73546C12.9825 6.52419 12.4284 6.41661 11.8695 6.41846C11.8063 6.41678 11.7563 6.36302 11.7575 6.29805C11.7575 6.23347 11.8077 6.18081 11.8705 6.17969C13.1104 6.18895 14.1634 6.62842 14.9994 7.48574C15.4184 7.91698 15.7384 8.43364 15.9504 9.02131C16.1613 9.60589 16.2703 10.279 16.2763 11.019C16.2775 11.084 16.2275 11.1377 16.1643 11.1394L16.1613 11.1404Z"/>
</symbol>

<symbol viewBox="0 0 24 24" id="icon-youtube">
<path d="M19.8144 5.41728C20.6786 5.65197 21.352 6.32558 21.5822 7.18578C22 8.74562 22 12 22 12C22 12 22 15.2544 21.5811 16.8131C21.3517 17.6738 20.678 18.3477 19.8133 18.5816C18.2544 19 12 19 12 19C12 19 5.74556 19 4.18556 18.5827C3.32137 18.348 2.64803 17.6744 2.41778 16.8142C2 15.2544 2 12 2 12C2 12 2 8.74562 2.41778 7.18578C2.64776 6.32526 3.32186 5.65173 4.18667 5.41839C5.74556 5 12 5 12 5C12 5 18.2544 5 19.8144 5.41728ZM9.95465 9.04588V14.9541L15.1824 12L9.95465 9.04588Z"/>
</symbol>

<symbol viewBox="0 0 24 24" id="icon-instagram">
<path d="M21.94 7.87667C21.8911 6.81222 21.7222 6.08556 21.4756 5.44889C21.22 4.79111 20.8778 4.23333 20.3222 3.67778C19.7667 3.12222 19.2089 2.78 18.5511 2.52444C17.9144 2.27778 17.1878 2.10778 16.1233 2.06C15.0567 2.01111 14.7156 2 12 2C9.28444 2 8.94333 2.01111 7.87667 2.06C6.81222 2.10889 6.08556 2.27778 5.45 2.52444C4.79222 2.78 4.23444 3.12222 3.67889 3.67778C3.12333 4.23333 2.78111 4.79111 2.52556 5.44889C2.27778 6.08556 2.10889 6.81222 2.06 7.87667C2.01111 8.94333 2 9.28444 2 12C2 14.7156 2.01111 15.0567 2.06 16.1233C2.10889 17.1878 2.27778 17.9144 2.52444 18.5511C2.78 19.2089 3.12222 19.7667 3.67778 20.3222C4.23333 20.8789 4.79111 21.22 5.44889 21.4756C6.08556 21.7233 6.81222 21.8922 7.87667 21.94C8.94333 21.9889 9.28444 22 12 22C14.7156 22 15.0567 21.9878 16.1233 21.94C17.1878 21.8911 17.9144 21.7222 18.5511 21.4756C19.2089 21.22 19.7667 20.8778 20.3222 20.3222C20.8778 19.7667 21.22 19.2089 21.4756 18.5511C21.7222 17.9156 21.8922 17.1878 21.94 16.1233C21.9889 15.0567 22 14.7156 22 12C22 9.28444 21.9889 8.94333 21.94 7.87667ZM20.1522 16.0467C20.1078 17.0233 19.9444 17.5533 19.8078 17.9067C19.6471 18.3414 19.3913 18.7347 19.0589 19.0578C18.736 19.3903 18.3426 19.6462 17.9078 19.8067C17.5544 19.9444 17.0244 20.1078 16.0478 20.1511C14.9922 20.1989 14.6756 20.21 12.0011 20.21C9.32667 20.21 9.01 20.2 7.95444 20.1511C6.97778 20.1067 6.44778 19.9433 6.09445 19.8067C5.62667 19.6256 5.29333 19.4078 4.94333 19.0578C4.59333 18.7078 4.37556 18.3733 4.19444 17.9067C4.05778 17.5533 3.89444 17.0233 3.85 16.0467C3.8 14.9911 3.79 14.6744 3.79 12C3.79 9.32556 3.8 9.00889 3.84889 7.95333C3.89333 6.97667 4.05667 6.44667 4.19333 6.09333C4.37556 5.62556 4.59222 5.29222 4.94222 4.94222C5.26516 4.60973 5.6585 4.35383 6.09333 4.19333C6.44667 4.05667 6.97667 3.89333 7.95333 3.84889C9.00889 3.8 9.32556 3.78889 12 3.78889C14.6744 3.78889 14.9911 3.79889 16.0467 3.84778C17.0233 3.89222 17.5533 4.05556 17.9067 4.19222C18.3744 4.37444 18.7078 4.59111 19.0578 4.94111C19.4078 5.29111 19.6256 5.62556 19.8067 6.09222C19.9433 6.44556 20.1067 6.97556 20.1511 7.95222C20.1989 9.00889 20.2089 9.32556 20.2089 11.9989C20.21 14.6744 20.2 14.9911 20.1522 16.0467ZM12 6.86778C9.16555 6.86778 6.86778 9.16555 6.86778 12C6.86778 14.8344 9.16555 17.1322 12 17.1322C14.8344 17.1322 17.1322 14.8344 17.1322 12C17.1322 9.16555 14.8344 6.86778 12 6.86778ZM12 15.3422C10.8057 15.3422 9.7022 14.7051 9.10507 13.6708C8.50794 12.6366 8.50794 11.3623 9.10507 10.3281C9.7022 9.2938 10.8057 8.65667 12 8.65667C13.8462 8.65667 15.3428 10.1533 15.3428 11.9994C15.3428 13.8456 13.8462 15.3422 12 15.3422ZM17.3289 5.47333C16.6671 5.47333 16.1306 6.00985 16.1306 6.67167C16.1306 7.33349 16.6671 7.87 17.3289 7.87C17.9907 7.87 18.5272 7.33349 18.5272 6.67167C18.5272 6.00985 17.9907 5.47333 17.3289 5.47333Z"/>
</symbol>

<symbol viewBox="0 0 24 24" id="icon-facebook">
<path d="M15.6376 11.9807H12.9681V22H8.92358V11.9807H7V8.45957H8.92358V6.18098C8.92358 4.55153 9.67909 2 13.0041 2L16 2.01284V5.43073H13.8263C13.4697 5.43073 12.9684 5.61324 12.9684 6.39053V8.46285H15.9909L15.6376 11.9807Z"/>
</symbol>

<symbol viewBox="0 0 24 24" id="icon-catalog">
<path d="M13 5C13 3.34315 14.3431 2 16 2H19C20.6569 2 22 3.34315 22 5V8C22 9.65685 20.6569 11 19 11H16C14.3431 11 13 9.65685 13 8V5ZM16 4C15.4477 4 15 4.44772 15 5V8C15 8.55228 15.4477 9 16 9H19C19.5523 9 20 8.55228 20 8V5C20 4.44772 19.5523 4 19 4H16Z"/>
<path d="M2 16C2 14.3431 3.34315 13 5 13H8C9.65685 13 11 14.3431 11 16V19C11 20.6569 9.65685 22 8 22H5C3.34315 22 2 20.6569 2 19V16ZM5 15C4.44772 15 4 15.4477 4 16V19C4 19.5523 4.44772 20 5 20H8C8.55228 20 9 19.5523 9 19V16C9 15.4477 8.55228 15 8 15H5Z"/>
<path d="M16 13C14.3431 13 13 14.3431 13 16V19C13 20.6569 14.3431 22 16 22H19C20.6569 22 22 20.6569 22 19V16C22 14.3431 20.6569 13 19 13H16ZM15 16C15 15.4477 15.4477 15 16 15H19C19.5523 15 20 15.4477 20 16V19C20 19.5523 19.5523 20 19 20H16C15.4477 20 15 19.5523 15 19V16Z"/>
<path d="M8.89574 10.31C8.20201 10.7471 7.38054 11 6.5 11C4.01472 11 2 8.98528 2 6.5C2 4.01472 4.01472 2 6.5 2C8.98528 2 11 4.01472 11 6.5C11 7.38054 10.7471 8.20201 10.31 8.89574L11.7071 10.2929C12.0976 10.6834 12.0976 11.3166 11.7071 11.7071C11.3166 12.0976 10.6834 12.0976 10.2929 11.7071L8.89574 10.31ZM4 6.5C4 5.11929 5.11929 4 6.5 4C7.88071 4 9 5.11929 9 6.5C9 7.88071 7.88071 9 6.5 9C5.11929 9 4 7.88071 4 6.5Z"/>
</symbol>

<symbol viewBox="0 0 24 24" id="icon-home">
<path d="M13.317 2.8237C12.563 2.16391 11.437 2.16391 10.683 2.8237L3.68299 8.9487C3.24896 9.32848 3 9.87713 3 10.4539V20.0001C3 21.1047 3.89543 22.0001 5 22.0001H19C20.1046 22.0001 21 21.1047 21 20.0001V10.4539C21 9.87713 20.751 9.32848 20.317 8.94871L13.317 2.8237ZM5 10.4539L12 4.32886L19 10.4539V20.0001H14V15H10V20.0001H5V10.4539Z"/>
</symbol>

<symbol viewBox="0 0 24 24" id="icon-heart">
<path d="M3.4181 5.31884C4.3842 4.17658 5.79264 3.5 7.5 3.5C8.64319 3.5 9.73774 4.12595 10.5785 4.76152C11.0976 5.15389 11.5814 5.5976 12 6.02293C12.4186 5.5976 12.9024 5.15389 13.4215 4.76152C14.2623 4.12595 15.3568 3.5 16.5 3.5C18.2379 3.5 19.6462 4.25107 20.5986 5.43888C21.5344 6.60607 22 8.15129 22 9.75C22 11.1935 21.2886 12.5788 20.3937 13.7719C19.4851 14.9835 18.2955 16.118 17.1402 17.0807C15.9797 18.0478 14.824 18.8661 13.9609 19.4414C13.5285 19.7297 13.1674 19.9584 12.9131 20.1159C12.7859 20.1946 12.6852 20.2556 12.6156 20.2974C12.5807 20.3183 12.5537 20.3344 12.5349 20.3455L12.5129 20.3585L12.5068 20.3621L12.5049 20.3632C12.5047 20.3633 12.5039 20.3638 12 19.5C11.4961 20.3638 11.4959 20.3637 11.4957 20.3635L11.4932 20.362L11.4869 20.3584L11.4649 20.3454C11.446 20.3342 11.4189 20.3181 11.384 20.2971C11.3142 20.2552 11.2133 20.194 11.086 20.1149C10.8313 19.9568 10.4698 19.727 10.0369 19.4369C9.17311 18.8578 8.01633 18.0324 6.85483 17.0516C5.69827 16.075 4.50799 14.9201 3.59923 13.6782C2.70165 12.4516 2 11.0332 2 9.55041C2 7.94929 2.46738 6.44292 3.4181 5.31884ZM12 19.5L11.4957 20.3635L12 20.6577L12.5039 20.3638L12 19.5ZM12.0005 18.3281C12.2251 18.1873 12.5152 18.0016 12.8516 17.7773C13.676 17.2277 14.7703 16.4522 15.8598 15.5443C16.9545 14.632 18.0149 13.6103 18.7938 12.5719C19.5864 11.5149 20 10.5565 20 9.75C20 8.52048 19.6401 7.4407 19.0382 6.68995C18.4528 5.95981 17.6111 5.5 16.5 5.5C16.0337 5.5 15.3824 5.78637 14.6276 6.35695C13.9067 6.90189 13.2361 7.59488 12.759 8.15109L12 9.0359L11.241 8.15109C10.7639 7.59488 10.0933 6.90189 9.37244 6.35695C8.61764 5.78637 7.96631 5.5 7.5 5.5C6.35836 5.5 5.5168 5.9345 4.94515 6.61039C4.35812 7.30447 4 8.3233 4 9.55041C4 10.4174 4.42335 11.4176 5.21327 12.4971C5.99201 13.5614 7.05173 14.6002 8.14517 15.5235C9.23367 16.4427 10.3269 17.2235 11.1506 17.7756C11.4866 18.0009 11.7762 18.1871 12.0005 18.3281Z"/>
</symbol>

<symbol viewBox="0 0 24 24" id="icon-compare">
<path d="M14.8342 4.9863C14.4262 6.15864 13.3114 7 12.0001 7C10.6887 7 9.5739 6.15864 9.16596 4.9863C9.112 4.99531 9.05658 5 9.00006 5H4.00006C3.44778 5 3.00006 4.55228 3.00006 4C3.00006 3.44772 3.44778 3 4.00006 3H9.00006C9.05658 3 9.112 3.00469 9.16596 3.0137C9.5739 1.84136 10.6887 1 12.0001 1C13.3114 1 14.4262 1.84136 14.8342 3.0137C14.8881 3.00469 14.9435 3 15.0001 3H20.0001C20.5523 3 21.0001 3.44772 21.0001 4C21.0001 4.55228 20.5523 5 20.0001 5H15.0001C14.9435 5 14.8881 4.99531 14.8342 4.9863ZM13.0001 4C13.0001 4.55228 12.5523 5 12.0001 5C11.4478 5 11.0001 4.55228 11.0001 4C11.0001 3.44772 11.4478 3 12.0001 3C12.5523 3 13.0001 3.44772 13.0001 4Z"/>
<path d="M11 16L6.35329 8.39627C5.96336 7.75821 5.03665 7.75821 4.64672 8.39627L0 16V16.0229C0.000555256 16.1161 0.007944 16.4862 0.085468 17C0.342989 18.7068 1.37442 22 5.5 22C9.62559 22 10.657 18.7068 10.9145 17C10.9921 16.4862 10.9994 16.1161 11 16.0229V16ZM8.045 15L5.5 10.8355L2.955 15H8.045ZM2.11531 17C2.18858 17.3674 2.30443 17.779 2.4838 18.1753C2.72014 18.6975 3.03947 19.1349 3.46447 19.4427C3.86928 19.7359 4.48971 20 5.5 20C6.51029 20 7.13073 19.7359 7.53553 19.4427C7.96054 19.1349 8.27987 18.6975 8.51621 18.1753C8.69557 17.779 8.81142 17.3674 8.8847 17H2.11531Z"/>
<path d="M24 16L19.3533 8.39628C18.9634 7.75821 18.0367 7.75821 17.6468 8.39627L13 16V16.0229C13.0005 16.116 13.0079 16.4861 13.0855 17C13.343 18.7068 14.3745 22 18.5001 22C22.6256 22 23.657 18.7068 23.9145 17C23.992 16.4862 23.9994 16.1162 24 16.023V16ZM21.045 15L18.5 10.8355L15.955 15H21.045ZM15.1153 17C15.1886 17.3674 15.3044 17.779 15.4838 18.1753C15.7202 18.6975 16.0395 19.1349 16.4645 19.4427C16.8693 19.7359 17.4898 20 18.5001 20C19.5103 20 20.1308 19.7359 20.5356 19.4427C20.9606 19.1349 21.2799 18.6975 21.5162 18.1753C21.6956 17.779 21.8114 17.3674 21.8847 17H15.1153Z"/>
</symbol>

<symbol viewBox="0 0 24 24" id="icon-magnifier">
<path d="M10 2C5.58172 2 2 5.58172 2 10C2 14.4183 5.58172 18 10 18C11.8487 18 13.551 17.3729 14.9056 16.3199L20.2929 21.7071C20.6834 22.0976 21.3166 22.0976 21.7071 21.7071C22.0976 21.3166 22.0976 20.6834 21.7071 20.2929L16.3199 14.9056C17.3729 13.551 18 11.8487 18 10C18 5.58172 14.4183 2 10 2ZM4 10C4 6.68629 6.68629 4 10 4C13.3137 4 16 6.68629 16 10C16 13.3137 13.3137 16 10 16C6.68629 16 4 13.3137 4 10Z"/>
</symbol>

<symbol viewBox="0 0 24 24" id="icon-microphone">
<path d="M14 11V6C14 4.89543 13.1046 4 12 4C10.8954 4 10 4.89543 10 6V11C10 12.1046 10.8954 13 12 13C13.1046 13 14 12.1046 14 11ZM12 2C9.79086 2 8 3.79086 8 6V11C8 13.2091 9.79086 15 12 15C14.2091 15 16 13.2091 16 11V6C16 3.79086 14.2091 2 12 2ZM5 10C5.55228 10 6 10.4477 6 11C6 14.3137 8.68629 17 12 17C15.3137 17 18 14.3137 18 11C18 10.4477 18.4477 10 19 10C19.5523 10 20 10.4477 20 11C20 15.0796 16.9463 18.446 13 18.9381V22C13 22.5523 12.5523 23 12 23C11.4477 23 11 22.5523 11 22V18.9381C7.05369 18.446 4 15.0796 4 11C4 10.4477 4.44772 10 5 10Z"/>
</symbol>

<symbol viewBox="0 0 24 24" id="icon-orders">
<path d="M8 7C8 7.55228 7.55231 8 7 8C6.44769 8 6 7.55228 6 7C6 6.44772 6.44769 6 7 6C7.55231 6 8 6.44772 8 7Z"/>
<path d="M7 12C7.55231 12 8 11.5523 8 11C8 10.4477 7.55231 10 7 10C6.44769 10 6 10.4477 6 11C6 11.5523 6.44769 12 7 12Z"/>
<path d="M8 15C8 15.5523 7.55231 16 7 16C6.44769 16 6 15.5523 6 15C6 14.4477 6.44769 14 7 14C7.55231 14 8 14.4477 8 15Z"/>
<path d="M11 6C10.4477 6 10 6.44772 10 7C10 7.55228 10.4477 8 11 8H17C17.5523 8 18 7.55228 18 7C18 6.44772 17.5523 6 17 6H11Z"/>
<path d="M10 11C10 10.4477 10.4477 10 11 10H17C17.5523 10 18 10.4477 18 11C18 11.5523 17.5523 12 17 12H11C10.4477 12 10 11.5523 10 11Z"/>
<path d="M11 14C10.4477 14 10 14.4477 10 15C10 15.5523 10.4477 16 11 16H17C17.5523 16 18 15.5523 18 15C18 14.4477 17.5523 14 17 14H11Z"/>
<path d="M2 6C2 3.79086 3.79083 2 6 2H18C20.2092 2 22 3.79086 22 6V18C22 20.2091 20.2092 22 18 22H6C3.79083 22 2 20.2091 2 18V6ZM6 4C4.89545 4 4 4.89543 4 6V18C4 19.1046 4.89545 20 6 20H18C19.1046 20 20 19.1046 20 18V6C20 4.89543 19.1046 4 18 4H6Z"/>
</symbol>

<symbol viewBox="0 0 24 24" id="icon-menu">
<path d="M22 3H2C1.44772 3 1 3.44772 1 4C1 4.55228 1.44772 5 2 5H22C22.5523 5 23 4.55228 23 4C23 3.44772 22.5523 3 22 3Z"/>
<path d="M22 11H2C1.44772 11 1 11.4477 1 12C1 12.5523 1.44772 13 2 13H22C22.5523 13 23 12.5523 23 12C23 11.4477 22.5523 11 22 11Z"/>
<path d="M22 19H2C1.44772 19 1 19.4477 1 20C1 20.5523 1.44772 21 2 21H22C22.5523 21 23 20.5523 23 20C23 19.4477 22.5523 19 22 19Z"/>
</symbol>

<symbol viewBox="0 0 24 24" id="icon-basket">
<path fill-rule="evenodd" clip-rule="evenodd" d="M2 2C1.44772 2 1 2.44772 1 3C1 3.55228 1.44772 4 2 4H4.77924L8.09547 13.9487C8.50381 15.1737 9.65023 16 10.9415 16H16.8377C18.5594 16 20.088 14.8983 20.6325 13.2649L22.0712 8.94868C22.7187 7.00609 21.2728 5 19.2251 5H7.22076L6.44868 2.68377C6.31257 2.27543 5.93043 2 5.5 2H2ZM9.99284 13.3162L7.88743 7H19.2251C19.9077 7 20.3897 7.6687 20.1738 8.31623L18.7351 12.6325C18.4629 13.4491 17.6986 14 16.8377 14H10.9415C10.5111 14 10.1289 13.7246 9.99284 13.3162Z" fill="#797878"/>
<path d="M9 22C10.1046 22 11 21.1046 11 20C11 18.8954 10.1046 18 9 18C7.89543 18 7 18.8954 7 20C7 21.1046 7.89543 22 9 22Z" fill="#797878"/>
<path d="M19 22C20.1046 22 21 21.1046 21 20C21 18.8954 20.1046 18 19 18C17.8954 18 17 18.8954 17 20C17 21.1046 17.8954 22 19 22Z" fill="#797878"/>
</symbol>


<symbol viewBox="0 0 24 24" id="icon-chevron-small">
<path d="M6.91159 9.08857C7.30086 8.69929 7.93189 8.69895 8.32159 9.0878L12.2062 12.964L16.0908 9.0878C16.4805 8.69895 17.1115 8.69929 17.5008 9.08857C17.8904 9.47814 17.8904 10.1098 17.5008 10.4993L12.2062 15.794L6.91159 10.4993C6.52201 10.1098 6.52201 9.47814 6.91159 9.08857Z"/>
</symbol>

</defs>
</svg>