<svg xmlns="http://www.w3.org/2000/svg" xmlns:xlink="http://www.w3.org/1999/xlink" style="display:none;">
<defs>

<symbol viewBox="0 0 24 24" id="icon-telegram">
<path d="M2.3749 11.3184C7.74359 8.9193 11.3236 7.33767 13.1148 6.5735C18.2292 4.39166 19.2919 4.01265 19.9846 4.00013C20.1369 3.99738 20.4776 4.03611 20.6982 4.21974C20.8845 4.3748 20.9358 4.58426 20.9603 4.73128C20.9848 4.87829 21.0154 5.21319 20.9911 5.47487C20.714 8.46165 19.5147 15.7098 18.9046 19.055C18.6465 20.4705 18.1382 20.9451 17.6461 20.9916C16.5766 21.0925 15.7645 20.2667 14.7287 19.5702C13.1078 18.4805 12.1921 17.8021 10.6188 16.7387C8.80053 15.5097 9.97923 14.8343 11.0155 13.7304C11.2866 13.4415 15.9987 9.04547 16.0899 8.64668C16.1013 8.59681 16.1119 8.41089 16.0042 8.31273C15.8965 8.21456 15.7376 8.24813 15.6229 8.27483C15.4604 8.31267 12.871 10.0681 7.85486 13.541C7.11988 14.0587 6.45416 14.3109 5.8577 14.2977C5.20015 14.2831 3.93528 13.9163 2.99498 13.6028C1.84166 13.2183 0.925027 13.015 1.00485 12.362C1.04642 12.0218 1.5031 11.674 2.3749 11.3184Z"/>
</symbol>

<symbol viewBox="0 0 24 24" id="icon-twitter">
<path d="M22 5.89987C21.2511 6.22617 20.4568 6.44054 19.6434 6.53589C20.5006 6.03145 21.1418 5.23724 21.4474 4.30158C20.6419 4.77178 19.7608 5.10316 18.8419 5.28142C17.572 3.94396 15.5468 3.61429 13.9068 4.47809C12.2669 5.34188 11.4225 7.18309 11.8493 8.96464C8.54981 8.80168 5.47574 7.26804 3.39205 4.74536C2.301 6.59019 2.85701 8.95191 4.66131 10.1367C4.0096 10.117 3.37222 9.94368 2.80263 9.63141V9.68195C2.80275 11.6043 4.17973 13.2603 6.09466 13.6409C5.49042 13.8027 4.85655 13.8264 4.24157 13.7101C4.779 15.355 6.31944 16.4819 8.07502 16.5145C6.62155 17.6369 4.82661 18.2455 2.97901 18.2424C2.65184 18.2427 2.32494 18.224 2 18.1864C3.87639 19.3727 6.06019 20.0023 8.29047 20C15.8379 20 19.9649 13.8474 19.9649 8.51096C19.9649 8.3363 19.9605 8.16165 19.9527 7.98809C20.7563 7.41788 21.4497 6.71064 22 5.89987Z"/>
</symbol>

<symbol viewBox="0 0 24 24" id="icon-viber">
<path d="M19.4936 13.21C19.0146 17.2743 16.1937 17.5306 15.6737 17.7066C15.4517 17.7817 13.3948 18.321 10.8078 18.1419L8.00391 21.3407L8.00091 17.6551L7.97891 17.6489C4.21201 16.5466 4.33901 12.4134 4.38101 10.2438C4.42301 8.07427 4.81 6.29684 5.95997 5.10194C8.02391 3.13205 12.2758 3.42641 12.2758 3.42641C15.8667 3.44287 17.5887 4.5822 17.9866 4.96403C19.3126 6.15996 19.9876 9.02011 19.4936 13.21ZM18.9676 3.94924C18.4956 3.49227 16.5897 2.0339 12.3448 2.01434C12.3448 2.01434 7.33893 1.69632 4.898 4.05525C3.54003 5.48686 3.06205 7.58129 3.01105 10.179C2.96105 12.7767 2.89505 17.6438 7.34793 18.9642L7.35193 18.9653L7.34993 20.9794C7.34993 20.9794 7.32193 21.7956 7.83092 21.9613C8.4469 22.163 8.80889 21.5434 9.39787 20.8755C9.72087 20.5091 10.1669 19.9708 10.5028 19.5591C13.5488 19.8277 15.8907 19.2112 16.1567 19.1207C16.7717 18.9097 20.2516 18.4404 20.8176 13.5743C21.4005 8.55388 20.5336 5.38086 18.9676 3.94924Z"/>
<path d="M16.2517 13.8168C15.9735 13.5717 15.6905 13.3325 15.4027 13.0995C15.1407 12.8967 14.7227 12.624 14.4887 12.485C14.0697 12.2391 13.6408 12.3934 13.4638 12.6353L13.0958 13.1221C12.9078 13.3691 12.6168 13.3269 12.5408 13.3115C11.9978 13.1715 11.4198 12.8216 10.8298 12.2329C10.2318 11.639 9.87086 11.0184 9.74086 10.3731L9.73186 10.3309C9.69227 10.1336 9.73312 9.92823 9.84486 9.76281L9.86486 9.74634C10.1129 9.5086 10.5728 9.21939 10.6348 8.9446C10.8158 8.46602 10.0309 7.46975 9.91886 7.29376C9.91886 7.29376 9.34787 6.51569 9.14488 6.36748C8.92588 6.17914 8.58589 6.0721 8.2439 6.28926L8.2269 6.30264C7.24293 6.98809 6.88694 7.38124 6.98394 7.96892L7.03493 8.20563C7.53392 9.82456 8.49689 11.5505 9.93386 13.0871C11.3548 14.6052 12.8928 15.514 14.4077 16.1439C14.8017 16.2787 15.2097 16.1624 15.6287 15.7939L15.6357 15.7888C15.9567 15.48 16.2107 15.1496 16.4007 14.7956L16.4027 14.7884C16.5857 14.4117 16.5227 14.0577 16.2517 13.8168ZM13.8927 10.2712C13.8317 10.2707 13.7819 10.2208 13.7798 10.158C13.7598 9.73811 13.6498 9.417 13.4528 9.2019C13.2568 8.98885 12.9628 8.86946 12.5808 8.84785C12.5179 8.84291 12.4703 8.78713 12.4738 8.72229C12.4748 8.69098 12.488 8.6614 12.5103 8.64013C12.5327 8.61887 12.5624 8.60769 12.5928 8.60908C13.0348 8.63378 13.3788 8.77787 13.6158 9.0362C13.8517 9.2935 13.9837 9.66607 14.0057 10.1457C14.0092 10.2109 13.9611 10.2668 13.8977 10.2712H13.8927Z"/>
<path d="M15.0135 10.6674H15.0105C14.9473 10.6646 14.8982 10.6099 14.9005 10.5449C14.9175 9.73906 14.6895 9.05875 14.2205 8.51945C13.9866 8.24952 13.6991 8.03438 13.3775 7.88855C13.0187 7.73054 12.6361 7.63724 12.2465 7.61273C12.1836 7.60673 12.1369 7.54999 12.1416 7.48511C12.1453 7.42011 12.1994 7.37044 12.2625 7.37395C13.1665 7.44394 13.8805 7.77534 14.3875 8.3589C14.8965 8.94348 15.1455 9.68142 15.1265 10.5501C15.1265 10.6145 15.076 10.6668 15.0135 10.6674Z"/>
<path d="M16.1613 11.1404C16.1311 11.1402 16.1022 11.1275 16.081 11.1053C16.0598 11.0831 16.0481 11.0532 16.0483 11.0221C16.0433 10.3099 15.9394 9.66559 15.7374 9.10673C15.5439 8.56253 15.2378 8.06809 14.8404 7.65762C14.4588 7.2612 14.0039 6.94762 13.5024 6.73546C12.9825 6.52419 12.4284 6.41661 11.8695 6.41846C11.8063 6.41678 11.7563 6.36302 11.7575 6.29805C11.7575 6.23347 11.8077 6.18081 11.8705 6.17969C13.1104 6.18895 14.1634 6.62842 14.9994 7.48574C15.4184 7.91698 15.7384 8.43364 15.9504 9.02131C16.1613 9.60589 16.2703 10.279 16.2763 11.019C16.2775 11.084 16.2275 11.1377 16.1643 11.1394L16.1613 11.1404Z"/>
</symbol>

<symbol viewBox="0 0 24 24" id="icon-youtube">
<path d="M19.8144 5.41728C20.6786 5.65197 21.352 6.32558 21.5822 7.18578C22 8.74562 22 12 22 12C22 12 22 15.2544 21.5811 16.8131C21.3517 17.6738 20.678 18.3477 19.8133 18.5816C18.2544 19 12 19 12 19C12 19 5.74556 19 4.18556 18.5827C3.32137 18.348 2.64803 17.6744 2.41778 16.8142C2 15.2544 2 12 2 12C2 12 2 8.74562 2.41778 7.18578C2.64776 6.32526 3.32186 5.65173 4.18667 5.41839C5.74556 5 12 5 12 5C12 5 18.2544 5 19.8144 5.41728ZM9.95465 9.04588V14.9541L15.1824 12L9.95465 9.04588Z"/>
</symbol>

<symbol viewBox="0 0 24 24" id="icon-instagram">
<path d="M21.94 7.87667C21.8911 6.81222 21.7222 6.08556 21.4756 5.44889C21.22 4.79111 20.8778 4.23333 20.3222 3.67778C19.7667 3.12222 19.2089 2.78 18.5511 2.52444C17.9144 2.27778 17.1878 2.10778 16.1233 2.06C15.0567 2.01111 14.7156 2 12 2C9.28444 2 8.94333 2.01111 7.87667 2.06C6.81222 2.10889 6.08556 2.27778 5.45 2.52444C4.79222 2.78 4.23444 3.12222 3.67889 3.67778C3.12333 4.23333 2.78111 4.79111 2.52556 5.44889C2.27778 6.08556 2.10889 6.81222 2.06 7.87667C2.01111 8.94333 2 9.28444 2 12C2 14.7156 2.01111 15.0567 2.06 16.1233C2.10889 17.1878 2.27778 17.9144 2.52444 18.5511C2.78 19.2089 3.12222 19.7667 3.67778 20.3222C4.23333 20.8789 4.79111 21.22 5.44889 21.4756C6.08556 21.7233 6.81222 21.8922 7.87667 21.94C8.94333 21.9889 9.28444 22 12 22C14.7156 22 15.0567 21.9878 16.1233 21.94C17.1878 21.8911 17.9144 21.7222 18.5511 21.4756C19.2089 21.22 19.7667 20.8778 20.3222 20.3222C20.8778 19.7667 21.22 19.2089 21.4756 18.5511C21.7222 17.9156 21.8922 17.1878 21.94 16.1233C21.9889 15.0567 22 14.7156 22 12C22 9.28444 21.9889 8.94333 21.94 7.87667ZM20.1522 16.0467C20.1078 17.0233 19.9444 17.5533 19.8078 17.9067C19.6471 18.3414 19.3913 18.7347 19.0589 19.0578C18.736 19.3903 18.3426 19.6462 17.9078 19.8067C17.5544 19.9444 17.0244 20.1078 16.0478 20.1511C14.9922 20.1989 14.6756 20.21 12.0011 20.21C9.32667 20.21 9.01 20.2 7.95444 20.1511C6.97778 20.1067 6.44778 19.9433 6.09445 19.8067C5.62667 19.6256 5.29333 19.4078 4.94333 19.0578C4.59333 18.7078 4.37556 18.3733 4.19444 17.9067C4.05778 17.5533 3.89444 17.0233 3.85 16.0467C3.8 14.9911 3.79 14.6744 3.79 12C3.79 9.32556 3.8 9.00889 3.84889 7.95333C3.89333 6.97667 4.05667 6.44667 4.19333 6.09333C4.37556 5.62556 4.59222 5.29222 4.94222 4.94222C5.26516 4.60973 5.6585 4.35383 6.09333 4.19333C6.44667 4.05667 6.97667 3.89333 7.95333 3.84889C9.00889 3.8 9.32556 3.78889 12 3.78889C14.6744 3.78889 14.9911 3.79889 16.0467 3.84778C17.0233 3.89222 17.5533 4.05556 17.9067 4.19222C18.3744 4.37444 18.7078 4.59111 19.0578 4.94111C19.4078 5.29111 19.6256 5.62556 19.8067 6.09222C19.9433 6.44556 20.1067 6.97556 20.1511 7.95222C20.1989 9.00889 20.2089 9.32556 20.2089 11.9989C20.21 14.6744 20.2 14.9911 20.1522 16.0467ZM12 6.86778C9.16555 6.86778 6.86778 9.16555 6.86778 12C6.86778 14.8344 9.16555 17.1322 12 17.1322C14.8344 17.1322 17.1322 14.8344 17.1322 12C17.1322 9.16555 14.8344 6.86778 12 6.86778ZM12 15.3422C10.8057 15.3422 9.7022 14.7051 9.10507 13.6708C8.50794 12.6366 8.50794 11.3623 9.10507 10.3281C9.7022 9.2938 10.8057 8.65667 12 8.65667C13.8462 8.65667 15.3428 10.1533 15.3428 11.9994C15.3428 13.8456 13.8462 15.3422 12 15.3422ZM17.3289 5.47333C16.6671 5.47333 16.1306 6.00985 16.1306 6.67167C16.1306 7.33349 16.6671 7.87 17.3289 7.87C17.9907 7.87 18.5272 7.33349 18.5272 6.67167C18.5272 6.00985 17.9907 5.47333 17.3289 5.47333Z"/>
</symbol>

<symbol viewBox="0 0 24 24" id="icon-facebook">
<path d="M15.6376 11.9807H12.9681V22H8.92358V11.9807H7V8.45957H8.92358V6.18098C8.92358 4.55153 9.67909 2 13.0041 2L16 2.01284V5.43073H13.8263C13.4697 5.43073 12.9684 5.61324 12.9684 6.39053V8.46285H15.9909L15.6376 11.9807Z"/>
</symbol>

<symbol viewBox="0 0 24 24" id="icon-catalog">
<path fill-rule="evenodd" clip-rule="evenodd" d="M13 5C13 3.34315 14.3431 2 16 2H19C20.6569 2 22 3.34315 22 5V8C22 9.65685 20.6569 11 19 11H16C14.3431 11 13 9.65685 13 8V5ZM16 4C15.4477 4 15 4.44772 15 5V8C15 8.55228 15.4477 9 16 9H19C19.5523 9 20 8.55228 20 8V5C20 4.44772 19.5523 4 19 4H16Z"/>
<path fill-rule="evenodd" clip-rule="evenodd" d="M2 16C2 14.3431 3.34315 13 5 13H8C9.65685 13 11 14.3431 11 16V19C11 20.6569 9.65685 22 8 22H5C3.34315 22 2 20.6569 2 19V16ZM5 15C4.44772 15 4 15.4477 4 16V19C4 19.5523 4.44772 20 5 20H8C8.55228 20 9 19.5523 9 19V16C9 15.4477 8.55228 15 8 15H5Z"/>
<path fill-rule="evenodd" clip-rule="evenodd" d="M16 13C14.3431 13 13 14.3431 13 16V19C13 20.6569 14.3431 22 16 22H19C20.6569 22 22 20.6569 22 19V16C22 14.3431 20.6569 13 19 13H16ZM15 16C15 15.4477 15.4477 15 16 15H19C19.5523 15 20 15.4477 20 16V19C20 19.5523 19.5523 20 19 20H16C15.4477 20 15 19.5523 15 19V16Z"/>
<path fill-rule="evenodd" clip-rule="evenodd" d="M8.89574 10.31C8.20201 10.7471 7.38054 11 6.5 11C4.01472 11 2 8.98528 2 6.5C2 4.01472 4.01472 2 6.5 2C8.98528 2 11 4.01472 11 6.5C11 7.38054 10.7471 8.20201 10.31 8.89574L11.7071 10.2929C12.0976 10.6834 12.0976 11.3166 11.7071 11.7071C11.3166 12.0976 10.6834 12.0976 10.2929 11.7071L8.89574 10.31ZM4 6.5C4 5.11929 5.11929 4 6.5 4C7.88071 4 9 5.11929 9 6.5C9 7.88071 7.88071 9 6.5 9C5.11929 9 4 7.88071 4 6.5Z"/>
</symbol>


<symbol viewBox="0 0 24 24" id="icon-home">
<path d="M13.317 2.8237C12.563 2.16391 11.437 2.16391 10.683 2.8237L3.68299 8.9487C3.24896 9.32848 3 9.87713 3 10.4539V20.0001C3 21.1047 3.89543 22.0001 5 22.0001H19C20.1046 22.0001 21 21.1047 21 20.0001V10.4539C21 9.87713 20.751 9.32848 20.317 8.94871L13.317 2.8237ZM5 10.4539L12 4.32886L19 10.4539V20.0001H14V15H10V20.0001H5V10.4539Z"/>
</symbol>

<symbol viewBox="0 0 24 24" id="icon-heart">
<path d="M3.4181 5.31884C4.3842 4.17658 5.79264 3.5 7.5 3.5C8.64319 3.5 9.73774 4.12595 10.5785 4.76152C11.0976 5.15389 11.5814 5.5976 12 6.02293C12.4186 5.5976 12.9024 5.15389 13.4215 4.76152C14.2623 4.12595 15.3568 3.5 16.5 3.5C18.2379 3.5 19.6462 4.25107 20.5986 5.43888C21.5344 6.60607 22 8.15129 22 9.75C22 11.1935 21.2886 12.5788 20.3937 13.7719C19.4851 14.9835 18.2955 16.118 17.1402 17.0807C15.9797 18.0478 14.824 18.8661 13.9609 19.4414C13.5285 19.7297 13.1674 19.9584 12.9131 20.1159C12.7859 20.1946 12.6852 20.2556 12.6156 20.2974C12.5807 20.3183 12.5537 20.3344 12.5349 20.3455L12.5129 20.3585L12.5068 20.3621L12.5049 20.3632C12.5047 20.3633 12.5039 20.3638 12 19.5C11.4961 20.3638 11.4959 20.3637 11.4957 20.3635L11.4932 20.362L11.4869 20.3584L11.4649 20.3454C11.446 20.3342 11.4189 20.3181 11.384 20.2971C11.3142 20.2552 11.2133 20.194 11.086 20.1149C10.8313 19.9568 10.4698 19.727 10.0369 19.4369C9.17311 18.8578 8.01633 18.0324 6.85483 17.0516C5.69827 16.075 4.50799 14.9201 3.59923 13.6782C2.70165 12.4516 2 11.0332 2 9.55041C2 7.94929 2.46738 6.44292 3.4181 5.31884ZM12 19.5L11.4957 20.3635L12 20.6577L12.5039 20.3638L12 19.5ZM12.0005 18.3281C12.2251 18.1873 12.5152 18.0016 12.8516 17.7773C13.676 17.2277 14.7703 16.4522 15.8598 15.5443C16.9545 14.632 18.0149 13.6103 18.7938 12.5719C19.5864 11.5149 20 10.5565 20 9.75C20 8.52048 19.6401 7.4407 19.0382 6.68995C18.4528 5.95981 17.6111 5.5 16.5 5.5C16.0337 5.5 15.3824 5.78637 14.6276 6.35695C13.9067 6.90189 13.2361 7.59488 12.759 8.15109L12 9.0359L11.241 8.15109C10.7639 7.59488 10.0933 6.90189 9.37244 6.35695C8.61764 5.78637 7.96631 5.5 7.5 5.5C6.35836 5.5 5.5168 5.9345 4.94515 6.61039C4.35812 7.30447 4 8.3233 4 9.55041C4 10.4174 4.42335 11.4176 5.21327 12.4971C5.99201 13.5614 7.05173 14.6002 8.14517 15.5235C9.23367 16.4427 10.3269 17.2235 11.1506 17.7756C11.4866 18.0009 11.7762 18.1871 12.0005 18.3281Z"/>
</symbol>

<symbol viewBox="0 0 24 24" id="icon-compare">
<path fill-rule="evenodd" clip-rule="evenodd" d="M14.8342 4.9863C14.4262 6.15864 13.3114 7 12.0001 7C10.6887 7 9.5739 6.15864 9.16596 4.9863C9.112 4.99531 9.05658 5 9.00006 5H4.00006C3.44778 5 3.00006 4.55228 3.00006 4C3.00006 3.44772 3.44778 3 4.00006 3H9.00006C9.05658 3 9.112 3.00469 9.16596 3.0137C9.5739 1.84136 10.6887 1 12.0001 1C13.3114 1 14.4262 1.84136 14.8342 3.0137C14.8881 3.00469 14.9435 3 15.0001 3H20.0001C20.5523 3 21.0001 3.44772 21.0001 4C21.0001 4.55228 20.5523 5 20.0001 5H15.0001C14.9435 5 14.8881 4.99531 14.8342 4.9863ZM13.0001 4C13.0001 4.55228 12.5523 5 12.0001 5C11.4478 5 11.0001 4.55228 11.0001 4C11.0001 3.44772 11.4478 3 12.0001 3C12.5523 3 13.0001 3.44772 13.0001 4Z"/>
<path fill-rule="evenodd" clip-rule="evenodd" d="M11 16L6.35329 8.39627C5.96336 7.75821 5.03665 7.75821 4.64672 8.39627L0 16V16.0229C0.000555256 16.1161 0.007944 16.4862 0.085468 17C0.342989 18.7068 1.37442 22 5.5 22C9.62559 22 10.657 18.7068 10.9145 17C10.9921 16.4862 10.9994 16.1161 11 16.0229V16ZM8.045 15L5.5 10.8355L2.955 15H8.045ZM2.11531 17C2.18858 17.3674 2.30443 17.779 2.4838 18.1753C2.72014 18.6975 3.03947 19.1349 3.46447 19.4427C3.86928 19.7359 4.48971 20 5.5 20C6.51029 20 7.13073 19.7359 7.53553 19.4427C7.96054 19.1349 8.27987 18.6975 8.51621 18.1753C8.69557 17.779 8.81142 17.3674 8.8847 17H2.11531Z"/>
<path fill-rule="evenodd" clip-rule="evenodd" d="M24 16L19.3533 8.39628C18.9634 7.75821 18.0367 7.75821 17.6468 8.39627L13 16V16.0229C13.0005 16.116 13.0079 16.4861 13.0855 17C13.343 18.7068 14.3745 22 18.5001 22C22.6256 22 23.657 18.7068 23.9145 17C23.992 16.4862 23.9994 16.1162 24 16.023V16ZM21.045 15L18.5 10.8355L15.955 15H21.045ZM15.1153 17C15.1886 17.3674 15.3044 17.779 15.4838 18.1753C15.7202 18.6975 16.0395 19.1349 16.4645 19.4427C16.8693 19.7359 17.4898 20 18.5001 20C19.5103 20 20.1308 19.7359 20.5356 19.4427C20.9606 19.1349 21.2799 18.6975 21.5162 18.1753C21.6956 17.779 21.8114 17.3674 21.8847 17H15.1153Z"/>
</symbol>


<symbol viewBox="0 0 24 24" id="icon-magnifier">
<path d="M10 2C5.58172 2 2 5.58172 2 10C2 14.4183 5.58172 18 10 18C11.8487 18 13.551 17.3729 14.9056 16.3199L20.2929 21.7071C20.6834 22.0976 21.3166 22.0976 21.7071 21.7071C22.0976 21.3166 22.0976 20.6834 21.7071 20.2929L16.3199 14.9056C17.3729 13.551 18 11.8487 18 10C18 5.58172 14.4183 2 10 2ZM4 10C4 6.68629 6.68629 4 10 4C13.3137 4 16 6.68629 16 10C16 13.3137 13.3137 16 10 16C6.68629 16 4 13.3137 4 10Z"/>
</symbol>

<symbol viewBox="0 0 24 24" id="icon-microphone">
<path d="M14 11V6C14 4.89543 13.1046 4 12 4C10.8954 4 10 4.89543 10 6V11C10 12.1046 10.8954 13 12 13C13.1046 13 14 12.1046 14 11ZM12 2C9.79086 2 8 3.79086 8 6V11C8 13.2091 9.79086 15 12 15C14.2091 15 16 13.2091 16 11V6C16 3.79086 14.2091 2 12 2ZM5 10C5.55228 10 6 10.4477 6 11C6 14.3137 8.68629 17 12 17C15.3137 17 18 14.3137 18 11C18 10.4477 18.4477 10 19 10C19.5523 10 20 10.4477 20 11C20 15.0796 16.9463 18.446 13 18.9381V22C13 22.5523 12.5523 23 12 23C11.4477 23 11 22.5523 11 22V18.9381C7.05369 18.446 4 15.0796 4 11C4 10.4477 4.44772 10 5 10Z"/>
</symbol>

<symbol viewBox="0 0 24 24" id="icon-orders">
<path d="M8 7C8 7.55228 7.55231 8 7 8C6.44769 8 6 7.55228 6 7C6 6.44772 6.44769 6 7 6C7.55231 6 8 6.44772 8 7Z"/>
<path d="M7 12C7.55231 12 8 11.5523 8 11C8 10.4477 7.55231 10 7 10C6.44769 10 6 10.4477 6 11C6 11.5523 6.44769 12 7 12Z"/>
<path d="M8 15C8 15.5523 7.55231 16 7 16C6.44769 16 6 15.5523 6 15C6 14.4477 6.44769 14 7 14C7.55231 14 8 14.4477 8 15Z"/>
<path d="M11 6C10.4477 6 10 6.44772 10 7C10 7.55228 10.4477 8 11 8H17C17.5523 8 18 7.55228 18 7C18 6.44772 17.5523 6 17 6H11Z"/>
<path d="M10 11C10 10.4477 10.4477 10 11 10H17C17.5523 10 18 10.4477 18 11C18 11.5523 17.5523 12 17 12H11C10.4477 12 10 11.5523 10 11Z"/>
<path d="M11 14C10.4477 14 10 14.4477 10 15C10 15.5523 10.4477 16 11 16H17C17.5523 16 18 15.5523 18 15C18 14.4477 17.5523 14 17 14H11Z"/>
<path d="M2 6C2 3.79086 3.79083 2 6 2H18C20.2092 2 22 3.79086 22 6V18C22 20.2091 20.2092 22 18 22H6C3.79083 22 2 20.2091 2 18V6ZM6 4C4.89545 4 4 4.89543 4 6V18C4 19.1046 4.89545 20 6 20H18C19.1046 20 20 19.1046 20 18V6C20 4.89543 19.1046 4 18 4H6Z"/>
</symbol>

<symbol viewBox="0 0 24 24" id="icon-menu">
<path d="M22 3H2C1.44772 3 1 3.44772 1 4C1 4.55228 1.44772 5 2 5H22C22.5523 5 23 4.55228 23 4C23 3.44772 22.5523 3 22 3Z"/>
<path d="M22 11H2C1.44772 11 1 11.4477 1 12C1 12.5523 1.44772 13 2 13H22C22.5523 13 23 12.5523 23 12C23 11.4477 22.5523 11 22 11Z"/>
<path d="M22 19H2C1.44772 19 1 19.4477 1 20C1 20.5523 1.44772 21 2 21H22C22.5523 21 23 20.5523 23 20C23 19.4477 22.5523 19 22 19Z"/>
</symbol>

<symbol viewBox="0 0 24 24" id="icon-basket">
<path fill-rule="evenodd" clip-rule="evenodd" d="M2 2C1.44772 2 1 2.44772 1 3C1 3.55228 1.44772 4 2 4H4.77924L8.09547 13.9487C8.50381 15.1737 9.65023 16 10.9415 16H16.8377C18.5594 16 20.088 14.8983 20.6325 13.2649L22.0712 8.94868C22.7187 7.00609 21.2728 5 19.2251 5H7.22076L6.44868 2.68377C6.31257 2.27543 5.93043 2 5.5 2H2ZM9.99284 13.3162L7.88743 7H19.2251C19.9077 7 20.3897 7.6687 20.1738 8.31623L18.7351 12.6325C18.4629 13.4491 17.6986 14 16.8377 14H10.9415C10.5111 14 10.1289 13.7246 9.99284 13.3162Z" fill="#797878"/>
<path d="M9 22C10.1046 22 11 21.1046 11 20C11 18.8954 10.1046 18 9 18C7.89543 18 7 18.8954 7 20C7 21.1046 7.89543 22 9 22Z" fill="#797878"/>
<path d="M19 22C20.1046 22 21 21.1046 21 20C21 18.8954 20.1046 18 19 18C17.8954 18 17 18.8954 17 20C17 21.1046 17.8954 22 19 22Z" fill="#797878"/>
</symbol>

<symbol viewBox="0 0 24 24" id="icon-chevron-small">
<path d="M6.91159 9.08857C7.30086 8.69929 7.93189 8.69895 8.32159 9.0878L12.2062 12.964L16.0908 9.0878C16.4805 8.69895 17.1115 8.69929 17.5008 9.08857C17.8904 9.47814 17.8904 10.1098 17.5008 10.4993L12.2062 15.794L6.91159 10.4993C6.52201 10.1098 6.52201 9.47814 6.91159 9.08857Z"/>
</symbol>

<symbol viewBox="0 0 24 24" id="icon-envelope-gear">
<path fill-rule="evenodd" clip-rule="evenodd" d="M1 6.01983C0.999682 6.00448 0.999718 5.9891 1.00011 5.9737C1.01424 4.32895 2.35192 3 4 3H20C21.6479 3 22.9854 4.32861 22.9999 5.97306C23.0003 5.98885 23.0003 6.00462 23 6.02036V12C23 12.5523 22.5523 13 22 13C21.4477 13 21 12.5523 21 12V7.61801L12.4472 11.8944C12.1657 12.0352 11.8343 12.0352 11.5528 11.8944L3 7.61801V17C3 17.5523 3.44772 18 4 18H11C11.5523 18 12 18.4477 12 19C12 19.5523 11.5523 20 11 20H4C2.34315 20 1 18.6569 1 17V6.01983ZM3.15769 5.46078L12 9.88194L20.8423 5.46079C20.6645 5.18364 20.3537 5 20 5H4C3.64629 5 3.33547 5.18364 3.15769 5.46078Z"/>
<path fill-rule="evenodd" clip-rule="evenodd" d="M18.9664 13.684C18.6431 12.7756 17.3584 12.7756 17.0351 13.684C16.8316 14.256 16.1777 14.5265 15.6293 14.266C14.7587 13.8524 13.8496 14.7602 14.2636 15.6305C14.5244 16.1788 14.2537 16.8323 13.6816 17.0356C12.7733 17.3584 12.7733 18.643 13.6816 18.9658C14.2537 19.1691 14.5244 19.8226 14.2636 20.3709C13.8496 21.2413 14.7587 22.149 15.6293 21.7355C16.1777 21.4749 16.8316 21.7454 17.0351 22.3174C17.3584 23.2259 18.6431 23.2259 18.9664 22.3174C19.1699 21.7454 19.8238 21.4749 20.3722 21.7355C21.2428 22.149 22.1519 21.2413 21.7379 20.3709C21.4771 19.8226 21.7478 19.1691 22.3198 18.9658C23.2282 18.643 23.2282 17.3584 22.3198 17.0356C21.7478 16.8323 21.4771 16.1788 21.7379 15.6305C22.1519 14.7602 21.2428 13.8524 20.3722 14.266C19.8238 14.5265 19.1699 14.256 18.9664 13.684ZM18.0007 20.0095C19.1108 20.0095 20.0107 19.1102 20.0107 18.0008C20.0107 16.8914 19.1108 15.9921 18.0007 15.9921C16.8907 15.9921 15.9908 16.8914 15.9908 18.0008C15.9908 19.1102 16.8907 20.0095 18.0007 20.0095Z"/>
</symbol>

<symbol viewBox="0 0 24 24" id="icon-discount">
<path d="M15.7071 9.70711C16.0976 9.31658 16.0976 8.68342 15.7071 8.29289C15.3166 7.90237 14.6834 7.90237 14.2929 8.29289L8.29289 14.2929C7.90237 14.6834 7.90237 15.3166 8.29289 15.7071C8.68342 16.0976 9.31658 16.0976 9.70711 15.7071L15.7071 9.70711Z"/>
<path d="M16 14.5C16 15.3284 15.3284 16 14.5 16C13.6716 16 13 15.3284 13 14.5C13 13.6716 13.6716 13 14.5 13C15.3284 13 16 13.6716 16 14.5Z"/>
<path d="M9.5 11C10.3284 11 11 10.3284 11 9.5C11 8.67157 10.3284 8 9.5 8C8.67157 8 8 8.67157 8 9.5C8 10.3284 8.67157 11 9.5 11Z"/>
<path fill-rule="evenodd" clip-rule="evenodd" d="M14.3905 2.49746C13.19 0.914258 10.81 0.914258 9.6095 2.49746L8.96345 3.34949C8.74511 3.63744 8.38841 3.78519 8.03041 3.73597L6.9711 3.59032C5.00276 3.31969 3.31979 5.00265 3.59043 6.971L3.73608 8.0303C3.7853 8.3883 3.63755 8.74501 3.3496 8.96334L2.49757 9.6094C0.914365 10.8099 0.914365 13.1899 2.49757 14.3904L3.3496 15.0364C3.63755 15.2548 3.7853 15.6115 3.73608 15.9695L3.59043 17.0288C3.31979 18.9971 5.00275 20.6801 6.9711 20.4095L8.03041 20.2638C8.38841 20.2146 8.74511 20.3624 8.96345 20.6503L9.6095 21.5023C10.81 23.0855 13.19 23.0855 14.3905 21.5023L15.0366 20.6503C15.2549 20.3624 15.6116 20.2146 15.9696 20.2638L17.0289 20.4095C18.9972 20.6801 20.6802 18.9971 20.4096 17.0288L20.2639 15.9695C20.2147 15.6115 20.3625 15.2548 20.6504 15.0364L21.5024 14.3904C23.0856 13.1899 23.0856 10.8099 21.5024 9.6094L20.6504 8.96334C20.3625 8.74501 20.2147 8.3883 20.2639 8.0303L20.4096 6.971C20.6802 5.00265 18.9973 3.31969 17.0289 3.59032L15.9696 3.73597C15.6116 3.78519 15.2549 3.63744 15.0366 3.34949L14.3905 2.49746ZM11.2032 3.70586C11.6033 3.17813 12.3967 3.17813 12.7968 3.70586L13.4429 4.55789C14.0979 5.42174 15.168 5.865 16.242 5.71733L17.3013 5.57168C17.9574 5.48147 18.5184 6.04246 18.4282 6.69857L18.2826 7.75787C18.1349 8.83188 18.5782 9.90199 19.442 10.557L20.294 11.2031C20.8218 11.6032 20.8218 12.3966 20.294 12.7967L19.442 13.4428C18.5782 14.0978 18.1349 15.1679 18.2826 16.2419L18.4282 17.3012C18.5184 17.9573 17.9574 18.5183 17.3013 18.4281L16.242 18.2825C15.168 18.1348 14.0979 18.5781 13.4429 19.4419L12.7968 20.2939C12.3967 20.8217 11.6033 20.8217 11.2032 20.2939L10.5571 19.4419C9.9021 18.5781 8.83198 18.1348 7.75798 18.2825L6.69868 18.4281C6.04256 18.5183 5.48158 17.9573 5.57179 17.3012L5.71743 16.2419C5.8651 15.1679 5.42185 14.0978 4.558 13.4428L3.70597 12.7967C3.17823 12.3966 3.17823 11.6032 3.70597 11.2031L4.558 10.557C5.42185 9.90199 5.8651 8.83187 5.71743 7.75787L5.57179 6.69857C5.48158 6.04246 6.04256 5.48147 6.69868 5.57168L7.75798 5.71733C8.83198 5.865 9.9021 5.42174 10.5571 4.55789L11.2032 3.70586Z"/>
</symbol>

<symbol viewBox="0 0 24 24" id="icon-chat">
<path d="M6 9C6.55228 9 7 8.55229 7 8C7 7.44772 6.55228 7 6 7C5.44772 7 5 7.44772 5 8C5 8.55229 5.44772 9 6 9Z"/>
<path d="M11 8C11 8.55229 10.5523 9 10 9C9.44771 9 9 8.55229 9 8C9 7.44772 9.44771 7 10 7C10.5523 7 11 7.44772 11 8Z"/>
<path d="M14 9C14.5523 9 15 8.55229 15 8C15 7.44772 14.5523 7 14 7C13.4477 7 13 7.44772 13 8C13 8.55229 13.4477 9 14 9Z"/>
<path fill-rule="evenodd" clip-rule="evenodd" d="M1 5C1 2.79086 2.79086 1 5 1H15C17.2091 1 19 2.79086 19 5V11C19 13.2091 17.2091 15 15 15H10.3508L5.62469 18.7809C5.32452 19.021 4.91328 19.0678 4.56681 18.9013C4.22035 18.7348 4 18.3844 4 18V14.874C2.27477 14.4299 1 12.8638 1 11V5ZM6 14V15.9194L9.37531 13.2191C9.55262 13.0773 9.77293 13 10 13H15C16.1046 13 17 12.1046 17 11V5C17 3.89543 16.1046 3 15 3H5C3.89543 3 3 3.89543 3 5V11C3 12.1046 3.89543 13 5 13C5.55228 13 6 13.4477 6 14Z"/>
<path d="M22 5C21.4477 5 21 5.44772 21 6V15C21 16.1046 20.1046 17 19 17C18.4477 17 18 17.4477 18 18V19.9194L14.6247 17.2191C14.4474 17.0773 14.2271 17 14 17H11C10.4477 17 10 17.4477 10 18C10 18.5523 10.4477 19 11 19H13.6492L18.3753 22.7809C18.6755 23.021 19.0867 23.0678 19.4332 22.9013C19.7797 22.7348 20 22.3844 20 22V18.874C21.7252 18.4299 23 16.8638 23 15V6C23 5.44772 22.5523 5 22 5Z"/>
</symbol>

<symbol viewBox="0 0 24 24" id="icon-eye">
<path d="M12.0001 14C13.1046 14 14.0001 13.1046 14.0001 12C14.0001 10.8954 13.1046 10 12.0001 10C10.8955 10 10.0001 10.8954 10.0001 12C10.0001 13.1046 10.8955 14 12.0001 14Z"/>
<path fill-rule="evenodd" clip-rule="evenodd" d="M21.9784 10.8196C22.6014 11.4955 22.6014 12.5045 21.9784 13.1804C20.1395 15.1756 16.0822 19 12 19C7.91785 19 3.86062 15.1756 2.02171 13.1804C1.39869 12.5045 1.39869 11.4955 2.02171 10.8196C3.86062 8.82437 7.91785 5 12 5C16.0822 5 20.1395 8.82437 21.9784 10.8196ZM16.6978 8.80997C18.1858 9.83235 19.476 11.0741 20.345 12C19.476 12.9259 18.1858 14.1677 16.6978 15.19C15.0795 16.302 13.4499 17 12 17C10.5502 17 8.92061 16.302 7.30226 15.19C5.81432 14.1677 4.52413 12.9259 3.65512 12C4.52413 11.0741 5.81432 9.83235 7.30226 8.80997C8.92061 7.69799 10.5502 7 12 7C13.4499 7 15.0795 7.69799 16.6978 8.80997Z"/>
</symbol>

<symbol viewBox="0 0 24 24" id="icon-ruler">
<path fill-rule="evenodd" clip-rule="evenodd" d="M8.32398 5.75374C9.05265 5.26796 10.0017 5 11 5C11.9983 5 12.9474 5.26796 13.676 5.75374C14.3977 6.23485 15 7.00933 15 8C15 8.99067 14.3977 9.76515 13.676 10.2463C12.9474 10.732 11.9983 11 11 11C10.0017 11 9.05265 10.732 8.32398 10.2463C7.6023 9.76515 7 8.99067 7 8C7 7.00933 7.6023 6.23485 8.32398 5.75374ZM9.43338 7.41784C9.06927 7.66058 9 7.8861 9 8C9 8.1139 9.06927 8.33942 9.43338 8.58216C9.7905 8.82024 10.3415 9 11 9C11.6585 9 12.2095 8.82024 12.5666 8.58216C12.9307 8.33942 13 8.1139 13 8C13 7.8861 12.9307 7.66058 12.5666 7.41784C12.2095 7.17976 11.6585 7 11 7C10.3415 7 9.7905 7.17976 9.43338 7.41784Z"/>
<path fill-rule="evenodd" clip-rule="evenodd" d="M9.69759 22.9535C7.58725 22.8008 5.65054 22.275 4.13918 21.4097C2.31711 20.3665 1 18.7464 1 16.6429V8C1 5.90476 2.27388 4.13028 4.08134 2.92531C5.89579 1.71567 8.34483 1 11 1C13.6552 1 16.1042 1.71567 17.9187 2.92531C19.5805 4.03321 20.8157 5.62256 21 7.5V13H23V23H11C10.7277 23 10.4572 22.994 10.1892 22.9821C10.128 22.9939 10.0647 23 10 23C9.89459 23 9.793 22.9837 9.69759 22.9535ZM3 8C3 6.78153 3.74084 5.55601 5.19074 4.58941C6.63365 3.62747 8.68461 3 11 3C13.3154 3 15.3664 3.62747 16.8093 4.58941C18.2592 5.55601 19 6.78153 19 8C19 9.21847 18.2592 10.444 16.8093 11.4106C15.3664 12.3725 13.3154 13 11 13C8.68461 13 6.63365 12.3725 5.19074 11.4106C3.74084 10.444 3 9.21847 3 8ZM4.08134 13.0747C5.89579 14.2843 8.34483 15 11 15H21V21H19V18C19 17.4477 18.5523 17 18 17C17.4477 17 17 17.4477 17 18V21H15V20C15 19.4477 14.5523 19 14 19C13.4477 19 13 19.4477 13 20V21H11V18C11 17.4477 10.5523 17 10 17C9.44771 17 9 17.4477 9 18V20.8741C7.47688 20.6766 6.14871 20.2556 5.1329 19.674C3.69761 18.8523 3 17.7938 3 16.6429V12.2239C3.33108 12.532 3.69395 12.8164 4.08134 13.0747Z"/>
</symbol>

<symbol viewBox="0 0 24 24" id="icon-user">
<path fill-rule="evenodd" clip-rule="evenodd" d="M18.0001 8C18.0001 11.3137 15.3138 14 12.0001 14C8.68635 14 6.00006 11.3137 6.00006 8C6.00006 4.68629 8.68635 2 12.0001 2C15.3138 2 18.0001 4.68629 18.0001 8ZM16.0001 8C16.0001 10.2091 14.2092 12 12.0001 12C9.79092 12 8.00006 10.2091 8.00006 8C8.00006 5.79086 9.79092 4 12.0001 4C14.2092 4 16.0001 5.79086 16.0001 8Z"/>
<path fill-rule="evenodd" clip-rule="evenodd" d="M2.40006 21.8C2.84165 22.1312 3.46802 22.0419 3.79953 21.6007L3.81608 21.5798C3.83276 21.5589 3.86071 21.5247 3.89994 21.4789C3.97845 21.3873 4.10173 21.25 4.26967 21.0821C4.60603 20.7457 5.11815 20.2898 5.80476 19.8321C7.17413 18.9191 9.23437 18 12.0001 18C14.7658 18 16.826 18.9191 18.1954 19.8321C18.882 20.2898 19.3941 20.7457 19.7305 21.0821C19.8984 21.25 20.0217 21.3873 20.1002 21.4789C20.1394 21.5247 20.1674 21.5589 20.184 21.5798L20.2005 21.6007L20.2021 21.6028C20.5341 22.0422 21.1592 22.1307 21.6001 21.8C22.0419 21.4686 22.1308 20.841 21.7995 20.3992L21.7972 20.3963L21.7933 20.3911L21.782 20.3764C21.7729 20.3647 21.7609 20.3493 21.7458 20.3304C21.7156 20.2926 21.6732 20.2409 21.6187 20.1773C21.5097 20.0502 21.3517 19.875 21.1447 19.6679C20.731 19.2543 20.1181 18.7102 19.3048 18.1679C17.6741 17.0809 15.2344 16 12.0001 16C8.76575 16 6.32599 17.0809 4.69536 18.1679C3.88197 18.7102 3.26909 19.2543 2.85545 19.6679C2.64838 19.875 2.49042 20.0502 2.38143 20.1773C2.3269 20.2409 2.28455 20.2926 2.25435 20.3304C2.23924 20.3493 2.22717 20.3647 2.21812 20.3764L2.20682 20.3911L2.20288 20.3963L2.20133 20.3983L2.20006 20.4C1.86869 20.8418 1.95823 21.4686 2.40006 21.8ZM3.00006 21C2.20638 20.4047 2.19982 20.4004 2.20006 20.4L3.00006 21ZM21.0001 21L21.7995 20.3992C21.7998 20.3996 21.8001 20.4 21.0001 21Z"/>
</symbol>

<symbol viewBox="0 0 24 24" id="icon-money">
<path d="M15 16C15.5523 16 16 15.5523 16 15C16 14.4477 15.5523 14 15 14C14.4477 14 14 14.4477 14 15C14 15.5523 14.4477 16 15 16Z"/>
<path fill-rule="evenodd" clip-rule="evenodd" d="M22 5.99999V10.2676C22.5978 10.6134 23 11.2597 23 12V18C23 18.7403 22.5978 19.3866 22 19.7324V21C22 22.1046 21.1046 23 20 23H3C1.89543 23 1 22.1046 1 21V5.99999C1 4.89543 1.89543 3.99999 3 3.99999H8.22837L9.55334 1.91362C10.1949 0.903383 11.5741 0.678926 12.5029 1.4336L15.6614 3.99999H20C21.1046 3.99999 22 4.89542 22 5.99999ZM16.1819 6.99999L11.2417 2.9858L8.69241 6.99999H16.1819ZM6.3232 6.99999L6.95825 5.99999H3V21H20V20H16C13.2386 20 11 17.7614 11 15C11 12.2386 13.2386 10 16 10H20V8.99921C19.9867 8.99973 19.9734 8.99999 19.96 8.99999H5C4.44772 8.99999 4 8.55228 4 7.99999C4 7.44771 4.44772 6.99999 5 6.99999H6.3232ZM20 7.00078V5.99999H18.1228L19.3535 6.99999H19.96C19.9734 6.99999 19.9867 7.00026 20 7.00078ZM16 12C14.3431 12 13 13.3431 13 15C13 16.6568 14.3431 18 16 18H21V12H16Z"/>
</symbol>

<symbol viewBox="0 0 24 24" id="icon-bonus">
<path fill-rule="evenodd" clip-rule="evenodd" d="M15 9V7H9V17L13.2376 17L13.2401 17L13.2456 17L13.2586 16.9998C13.2683 16.9996 13.2797 16.9993 13.2929 16.9988C13.3191 16.9978 13.3525 16.996 13.3918 16.9928C13.4702 16.9865 13.5745 16.9744 13.6966 16.9514C13.9368 16.906 14.2689 16.8137 14.6107 16.62C15.3596 16.1956 16 15.3664 16 14C16 12.6336 15.3596 11.8044 14.6107 11.38C14.2689 11.1863 13.9368 11.094 13.6966 11.0486C13.5745 11.0256 13.4702 11.0135 13.3918 11.0072C13.3525 11.004 13.3191 11.0022 13.2929 11.0012C13.2856 11.0009 13.2788 11.0007 13.2726 11.0005C13.2676 11.0004 13.2629 11.0003 13.2586 11.0002L13.2456 11L13.2401 11L13.2376 11L11 11V9H15ZM13.2304 14.9994L13.2215 15H11V13H13.2215L13.2304 13.0006C13.2486 13.0021 13.2821 13.0057 13.3254 13.0139C13.4161 13.031 13.5252 13.0637 13.6246 13.12C13.758 13.1956 14 13.3664 14 14C14 14.6336 13.758 14.8044 13.6246 14.88C13.5252 14.9363 13.4161 14.969 13.3254 14.9861C13.2821 14.9943 13.2486 14.9979 13.2304 14.9994Z"/>
<path fill-rule="evenodd" clip-rule="evenodd" d="M23 12C23 18.0751 18.0751 23 12 23C5.92487 23 1 18.0751 1 12C1 5.92487 5.92487 1 12 1C18.0751 1 23 5.92487 23 12ZM21 12C21 16.9706 16.9706 21 12 21C7.02944 21 3 16.9706 3 12C3 7.02944 7.02944 3 12 3C16.9706 3 21 7.02944 21 12Z"/>
</symbol>

<symbol viewBox="0 0 24 24" id="icon-simple-comment">
<path d="M18 8H6V6H18V8Z"/>
<path d="M6 12H18V10H6V12Z"/>
<path fill-rule="evenodd" clip-rule="evenodd" d="M1 5C1 2.79086 2.79086 1 5 1H19C21.2091 1 23 2.79086 23 5V14C23 16.2091 21.2091 18 19 18H12.3028L5 22.8685V18C2.79086 18 1 16.2091 1 14V5ZM5 3C3.89543 3 3 3.89543 3 5V14C3 15.1046 3.89543 16 5 16H7V19.1315L11.6972 16H19C20.1046 16 21 15.1046 21 14V5C21 3.89543 20.1046 3 19 3H5Z"/>
</symbol>

<symbol viewBox="0 0 24 24" id="icon-tag">
<path d="M15.4999 10.0251C16.3284 10.0251 16.9999 9.35353 16.9999 8.5251C16.9999 7.69667 16.3284 7.0251 15.4999 7.0251C14.6715 7.0251 13.9999 7.69667 13.9999 8.5251C13.9999 9.35353 14.6715 10.0251 15.4999 10.0251Z"/>
<path fill-rule="evenodd" clip-rule="evenodd" d="M21 6C21 4.34314 19.6568 2.99999 18 3L13.3284 3.00002C12.5327 3.00003 11.7697 3.3161 11.2071 3.8787L3.20705 11.8787C2.03547 13.0503 2.03548 14.9498 3.20706 16.1214L7.91446 20.8287C9.06486 21.9791 10.9225 22.0029 12.102 20.8824L20.0662 13.3163C20.6624 12.7499 21 11.9637 21 11.1413V6ZM18 5C18.5522 5 19 5.44771 19 6V11.1413C19 11.4154 18.8874 11.6775 18.6887 11.8663L10.7245 19.4324C10.3314 19.8059 9.71213 19.798 9.32866 19.4145L4.62127 14.7072C4.23074 14.3166 4.23074 13.6835 4.62126 13.2929L12.6213 5.29292C12.8088 5.10538 13.0632 5.00002 13.3284 5.00002L18 5Z"/>
</symbol>

<symbol viewBox="0 0 24 24" id="icon-microphone">
<path fill-rule="evenodd" clip-rule="evenodd" d="M14 11V6C14 4.89543 13.1046 4 12 4C10.8954 4 10 4.89543 10 6V11C10 12.1046 10.8954 13 12 13C13.1046 13 14 12.1046 14 11ZM12 2C9.79086 2 8 3.79086 8 6V11C8 13.2091 9.79086 15 12 15C14.2091 15 16 13.2091 16 11V6C16 3.79086 14.2091 2 12 2ZM5 10C5.55228 10 6 10.4477 6 11C6 14.3137 8.68629 17 12 17C15.3137 17 18 14.3137 18 11C18 10.4477 18.4477 10 19 10C19.5523 10 20 10.4477 20 11C20 15.0796 16.9463 18.446 13 18.9381V22C13 22.5523 12.5523 23 12 23C11.4477 23 11 22.5523 11 22V18.9381C7.05369 18.446 4 15.0796 4 11C4 10.4477 4.44772 10 5 10Z"/>
</symbol>

<symbol viewBox="0 0 24 24" id="icon-delivery-shop">
<path fill-rule="evenodd" clip-rule="evenodd" d="M3.67702 1C2.85921 1 2.12379 1.4979 1.82007 2.25722L0.394676 5.82069C0.0241111 6.7471 0.393039 7.80492 1.25935 8.29996L1.99998 8.72318V21C1.99998 22.1046 2.89541 23 3.99998 23H20C21.1046 23 22 22.1046 22 21V8.72318L22.7406 8.29996C23.6069 7.80492 23.9759 6.7471 23.6053 5.82069L22.1799 2.25722C21.8762 1.4979 21.1408 1 20.323 1H3.67702ZM20 9.57291C19.2309 9.65316 18.4427 9.43479 17.8138 8.93171L17 8.28062L16.3741 8.78136C15.2784 9.65788 13.7216 9.65788 12.6259 8.78136L12 8.28062L11.3741 8.78136C10.2784 9.65788 8.72156 9.65788 7.6259 8.78136L6.99999 8.28062L6.18613 8.93171C5.55727 9.43479 4.7691 9.65316 3.99998 9.57291V21H4.99998V12.998C4.99998 11.8907 5.89809 11 6.99998 11L17 11C18.1014 11 19 11.8898 19 12.9976V21H20V9.57291ZM12 21H6.99999L6.99998 13L12 13V21ZM14 21H17V13H14V21ZM3.67702 3H20.323L21.7483 6.56347L20.1841 7.45735C19.8279 7.66087 19.3836 7.62623 19.0632 7.36997L18.2494 6.71889C17.5189 6.13454 16.481 6.13454 15.7506 6.71889L15.1247 7.21962C14.7595 7.51179 14.2405 7.51179 13.8753 7.21962L13.2494 6.71889C12.5189 6.13454 11.481 6.13454 10.7506 6.71889L10.1247 7.21962C9.75946 7.51179 9.24051 7.51179 8.87529 7.21962L8.24938 6.71889C7.51894 6.13454 6.48103 6.13454 5.7506 6.71889L4.93674 7.36997C4.61641 7.62623 4.17207 7.66087 3.81591 7.45735L2.25163 6.56347L3.67702 3Z"/>
</symbol>

<symbol viewBox="0 0 24 24" id="icon-question-empty">
<path d="M10 9C10 8.66002 10.1102 8.1278 10.4115 7.7093C10.6761 7.3418 11.1259 7 12 7C12.8741 7 13.3239 7.3418 13.5885 7.7093C13.8898 8.1278 14 8.66002 14 9C14 9.66725 13.6102 10.0138 12.6688 10.6863L12.5847 10.7462C11.7695 11.3261 10.5 12.2294 10.5 14C10.5 14.5523 10.9477 15 11.5 15C12.0523 15 12.5 14.5523 12.5 14C12.5 13.3327 12.8898 12.9862 13.8312 12.3137L13.9153 12.2538C14.7305 11.6739 16 10.7706 16 9C16 8.33998 15.8102 7.3722 15.2115 6.5407C14.5761 5.6582 13.5259 5 12 5C10.4741 5 9.42386 5.6582 8.78847 6.5407C8.18978 7.3722 8 8.33998 8 9C8 9.55228 8.44772 10 9 10C9.55229 10 10 9.55228 10 9Z"/>
<path d="M12.5 17C12.5 16.4477 12.0523 16 11.5 16C10.9477 16 10.5 16.4477 10.5 17V17.5C10.5 18.0523 10.9477 18.5 11.5 18.5C12.0523 18.5 12.5 18.0523 12.5 17.5V17Z"/>
<path fill-rule="evenodd" clip-rule="evenodd" d="M23 12C23 18.0751 18.0751 23 12 23C5.92487 23 1 18.0751 1 12C1 5.92487 5.92487 1 12 1C18.0751 1 23 5.92487 23 12ZM21 12C21 16.9706 16.9706 21 12 21C7.02944 21 3 16.9706 3 12C3 7.02944 7.02944 3 12 3C16.9706 3 21 7.02944 21 12Z"/>
</symbol>

<symbol viewBox="0 0 24 24" id="icon-fat-armchair">
<path d="M11 7C11 7.55228 10.5523 8 10 8C9.44772 8 9 7.55228 9 7C9 6.44772 9.44772 6 10 6C10.5523 6 11 6.44772 11 7Z" fill="#797878"/>
<path d="M13 8C13.5523 8 14 7.55228 14 7C14 6.44772 13.5523 6 13 6C12.4477 6 12 6.44772 12 7C12 7.55228 12.4477 8 13 8Z" fill="#797878"/>
<path d="M11 10C11 10.5523 10.5523 11 10 11C9.44772 11 9 10.5523 9 10C9 9.44772 9.44772 9 10 9C10.5523 9 11 9.44772 11 10Z" fill="#797878"/>
<path d="M13 11C13.5523 11 14 10.5523 14 10C14 9.44772 13.5523 9 13 9C12.4477 9 12 9.44772 12 10C12 10.5523 12.4477 11 13 11Z" fill="#797878"/>
<path fill-rule="evenodd" clip-rule="evenodd" d="M8 3C6.34315 3 5 4.34315 5 6V10H4C2.89543 10 2 10.8954 2 12V21H4V22H6V21H17V22H19V21H21V12C21 10.8954 20.1046 10 19 10H18V6C18 4.34315 16.6569 3 15 3H8ZM18 12V19H19V12H18ZM16 6C16 5.44772 15.5523 5 15 5H8C7.44772 5 7 5.44772 7 6V13H16V6ZM16 15H7V19H16V15ZM5 19H4V12H5V19Z" fill="#797878"/>
</symbol>

<symbol viewBox="0 0 24 24" id="icon-fat-bathroom">
<path fill-rule="evenodd" clip-rule="evenodd" d="M10.6422 7.14489C10.9925 6.7002 11.466 6.35703 12.0112 6.16678C12.1558 4.37694 13.6812 3 15.5 3C17.4121 3 19 4.52187 19 6.44541V10.0179C20.0702 10.1613 20.8547 11.1473 20.7148 12.2513L20.1763 16.5027C19.9571 18.233 18.6534 19.5885 17 19.9213V22H15V20H8V22H6V19.9213C4.34659 19.5885 3.04285 18.233 2.82367 16.5027L2.28517 12.2513C2.13383 11.0566 3.065 10 4.26931 10H17V6.44541C17 5.66783 16.3494 5 15.5 5C14.7493 5 14.1538 5.52176 14.0256 6.17989C14.5553 6.37257 15.0154 6.71024 15.3578 7.14489C16.0414 8.01253 15.1046 9 14 9H12C10.8954 9 9.95859 8.01253 10.6422 7.14489ZM10 12H8V13H10V12ZM6 12H4.26931L4.80782 16.2513C4.93441 17.2507 5.78456 18 6.79196 18H16.208C17.2154 18 18.0656 17.2507 18.1922 16.2513L18.7307 12H12V15H6V12Z" fill="#797878"/>
</symbol>

<symbol viewBox="0 0 24 24" id="icon-fat-bear">
<path d="M11.5081 15C12.3365 15 13.0081 14.3284 13.0081 13.5C13.0081 12.6716 12.3365 12 11.5081 12C10.6797 12 10.0081 12.6716 10.0081 13.5C10.0081 14.3284 10.6797 15 11.5081 15Z" fill="#797878"/>
<path d="M14.0081 11C14.5604 11 15.0081 10.5523 15.0081 10C15.0081 9.44772 14.5604 9 14.0081 9C13.4558 9 13.0081 9.44772 13.0081 10C13.0081 10.5523 13.4558 11 14.0081 11Z" fill="#797878"/>
<path d="M10.0081 10C10.0081 10.5523 9.5604 11 9.00812 11C8.45583 11 8.00812 10.5523 8.00812 10C8.00812 9.44772 8.45583 9 9.00812 9C9.5604 9 10.0081 9.44772 10.0081 10Z" fill="#797878"/>
<path fill-rule="evenodd" clip-rule="evenodd" d="M5.47928 3C6.64368 3 7.67417 3.66068 8.30386 4.67448C9.30567 4.23977 10.4032 4 11.5538 4C12.677 4 13.7495 4.22845 14.7318 4.64365C15.3631 3.64731 16.3845 3 17.537 3C19.4541 3 21.0082 4.79086 21.0082 7C21.0082 8.28676 20.4809 9.4316 19.6618 10.1633C19.9426 11.0551 20.0947 12.0088 20.0947 13C20.0947 17.9706 16.2708 22 11.5538 22C6.83681 22 3.01293 17.9706 3.01293 13C3.01293 12.032 3.15796 11.0996 3.42638 10.2258C2.56635 9.49777 2.00812 8.32401 2.00812 7C2.00812 4.79086 3.56221 3 5.47928 3ZM5.33822 10.8131L5.72566 9.5518L4.71858 8.6993C4.3339 8.37366 4.00812 7.77139 4.00812 7C4.00812 5.61974 4.92364 5 5.47928 5C5.84262 5 6.27835 5.20397 6.6049 5.72973L7.51596 7.19655L9.09998 6.5092C9.85701 6.18071 10.684 6 11.5538 6C12.4029 6 13.2111 6.17221 13.9531 6.48585L15.5141 7.14565L16.4212 5.71412C16.7471 5.19975 17.1769 5 17.537 5C18.0927 5 19.0082 5.61974 19.0082 7C19.0082 7.74859 18.7009 8.3399 18.3294 8.67172L17.3662 9.53213L17.7541 10.7641C17.9743 11.463 18.0947 12.2142 18.0947 13C18.0947 16.966 15.0689 20 11.5538 20C8.03876 20 5.01293 16.966 5.01293 13C5.01293 12.2325 5.12782 11.498 5.33822 10.8131Z" fill="#797878"/>
</symbol>

<symbol viewBox="0 0 24 24" id="icon-fat-clip">
<path d="M19.0524 4.90998C20.4308 6.28832 20.4308 8.52305 19.0524 9.90139L8.98643 19.9674L10.4006 21.3816L20.4666 11.3156C22.626 9.15621 22.626 5.65515 20.4666 3.49576C18.3072 1.33637 14.8062 1.33637 12.6468 3.49576L3.49692 12.6466L4.91113 14.0609L14.062 4.90996C15.4404 3.53214 17.6742 3.53181 19.0524 4.90998Z" fill="#797878"/>
<path d="M4.41007 15.3918L13.561 6.24096L14.9752 7.65517L5.82452 16.8058C4.95157 17.6788 4.95189 19.0944 5.82484 19.9674C6.69779 20.8403 8.11348 20.8403 8.98643 19.9674L10.4006 21.3816C8.74665 23.0356 6.06463 23.0356 4.41063 21.3816C2.75671 19.7277 2.75631 17.0459 4.41007 15.3918Z" fill="#797878"/>
<path d="M16.3064 7.65521C15.9388 7.28765 15.3427 7.28761 14.9752 7.65517L13.561 6.24096C14.7096 5.09235 16.572 5.09239 17.7206 6.241C18.8692 7.38956 18.8692 9.25172 17.7207 10.4003L9.4851 18.6363L8.07088 17.2221L16.3065 8.98642C16.6741 8.61886 16.674 8.02277 16.3064 7.65521Z" fill="#797878"/>
</symbol>

<symbol viewBox="0 0 24 24" id="icon-fat-clothes">
<path d="M12.0042 11C11.4519 11 11.0042 10.5523 11.0042 10C11.0042 9.44771 11.4519 9 12.0042 9C12.5565 9 13.0042 9.44771 13.0042 10C13.0042 10.5523 12.5565 11 12.0042 11Z" fill="#797878"/>
<path d="M11.0042 14C11.0042 14.5523 11.4519 15 12.0042 15C12.5565 15 13.0042 14.5523 13.0042 14C13.0042 13.4477 12.5565 13 12.0042 13C11.4519 13 11.0042 13.4477 11.0042 14Z" fill="#797878"/>
<path fill-rule="evenodd" clip-rule="evenodd" d="M6.67088 3H10.4184L12.0042 4.58579L13.59 3H17.3375L22.1354 6.59838L20.7124 12.2902L18.0042 11.3874V22H6.00421V11.3874L3.29598 12.2902L1.87303 6.59838L6.67088 3ZM7.33755 5L4.13539 7.40162L4.71245 9.70983L8.00421 8.61257V20H16.0042V8.61257L19.296 9.70983L19.873 7.40162L16.6709 5H14.4184L12.0042 7.41421L9.59 5H7.33755Z" fill="#797878"/>
</symbol>

<symbol viewBox="0 0 24 24" id="icon-fat-coctail">
<path fill-rule="evenodd" clip-rule="evenodd" d="M6.72006 9.61592C6.20026 9.86233 5.61919 10 5.00812 10C2.79898 10 1.00812 8.20914 1.00812 6C1.00812 3.79086 2.79898 2 5.00812 2C7.21726 2 9.00812 3.79086 9.00812 6H13.4887L15.8354 2H20.0081V4H16.9808L15.8075 6H20.0081L13.0081 15.3333V19H16.0081V21H8.00812V19H11.0081V15.3333L6.72006 9.61592ZM3.00812 6C3.00812 4.89543 3.90355 4 5.00812 4C6.11269 4 7.00812 4.89543 7.00812 6H4.00812L5.46838 7.94701C5.32097 7.98165 5.16697 8 5.00812 8C3.90355 8 3.00812 7.10457 3.00812 6ZM8.00812 8H12.3154L11.1456 9.99399L12.8706 11.006L14.6341 8H16.0081L12.0081 13.3333L8.00812 8Z" fill="#797878"/>
</symbol>

<symbol viewBox="0 0 24 24" id="icon-fat-game">
<path d="M7.00001 7V9H5.00001V11H7.00001V13H9.00001V11H11V9H9.00001V7H7.00001Z" fill="#797878"/>
<path d="M16 9C16.5523 9 17 8.55228 17 8C17 7.44772 16.5523 7 16 7C15.4477 7 15 7.44772 15 8C15 8.55228 15.4477 9 16 9Z" fill="#797878"/>
<path d="M17 12C17 12.5523 16.5523 13 16 13C15.4477 13 15 12.5523 15 12C15 11.4477 15.4477 11 16 11C16.5523 11 17 11.4477 17 12Z" fill="#797878"/>
<path d="M14 11C14.5523 11 15 10.5523 15 10C15 9.44772 14.5523 9 14 9C13.4477 9 13 9.44772 13 10C13 10.5523 13.4477 11 14 11Z" fill="#797878"/>
<path d="M19 10C19 10.5523 18.5523 11 18 11C17.4477 11 17 10.5523 17 10C17 9.44772 17.4477 9 18 9C18.5523 9 19 9.44772 19 10Z" fill="#797878"/>
<path fill-rule="evenodd" clip-rule="evenodd" d="M2.19858 21.0993C3.28815 21.6441 4.59897 21.4759 5.51573 20.6737L8.70748 17.881C10.5926 16.2315 13.4074 16.2315 15.2925 17.881L18.4843 20.6737C19.401 21.4759 20.7119 21.6441 21.8014 21.0993L22.1161 20.942C23.2466 20.3767 23.9016 19.1635 23.7539 17.9082L22.4156 6.53263C22.1786 4.51818 20.4714 3 18.443 3H16.7082C16.2425 3 15.7831 3.10844 15.3666 3.31672L13.3416 4.32918C12.4971 4.75147 11.5029 4.75147 10.6584 4.32918L8.63344 3.31672C8.21688 3.10844 7.75754 3 7.2918 3H5.557C3.52866 3 1.8214 4.51818 1.5844 6.53263L0.246106 17.9081C0.0984218 19.1635 0.753384 20.3767 1.88392 20.942L2.19858 21.0993ZM14.2361 6.11803L16.261 5.10557C16.3998 5.03615 16.553 5 16.7082 5H18.443C19.4572 5 20.3108 5.75909 20.4293 6.76632L21.7676 18.1418C21.8168 18.5603 21.5985 18.9647 21.2217 19.1531L20.907 19.3104C20.5438 19.492 20.1069 19.436 19.8013 19.1686L16.6095 16.3758C13.9704 14.0665 10.0297 14.0665 7.39047 16.3758L4.19873 19.1686C3.89314 19.436 3.4562 19.492 3.09301 19.3104L2.77834 19.1531C2.4015 18.9647 2.18318 18.5603 2.23241 18.1418L3.5707 6.76632C3.6892 5.75909 4.54283 5 5.557 5H7.2918C7.44705 5 7.60016 5.03614 7.73902 5.10557L9.76394 6.11803C11.1716 6.82185 12.8284 6.82185 14.2361 6.11803Z" fill="#797878"/>
</symbol>

<symbol viewBox="0 0 24 24" id="icon-fat-garden">
<path fill-rule="evenodd" clip-rule="evenodd" d="M15 3V12H11V17C11 17.8267 11.2398 19.0445 11.9885 20.0843C12.7739 21.1751 14.0741 22 16 22C17.9259 22 19.2261 21.1751 20.0115 20.0843C20.7602 19.0445 21 17.8267 21 17V12H17V3H15ZM13 14H15V17H17V14H19V17C19 17.5066 18.8398 18.2889 18.3885 18.9157C17.9739 19.4915 17.2741 20 16 20C14.7259 20 14.0261 19.4915 13.6115 18.9157C13.1602 18.2889 13 17.5066 13 17V14Z" fill="#797878"/>
<path d="M8 8H12V3H10V6H8V3H6V6H4V3H2V8H6V22H8V8Z" fill="#797878"/>
</symbol>

<symbol viewBox="0 0 24 24" id="icon-fat-household">
<path d="M8 7C8.55228 7 9 6.55228 9 6C9 5.44772 8.55228 5 8 5C7.44772 5 7 5.44772 7 6C7 6.55228 7.44772 7 8 7Z" fill="#797878"/>
<path d="M12 6C12 6.55228 11.5523 7 11 7C10.4477 7 10 6.55228 10 6C10 5.44772 10.4477 5 11 5C11.5523 5 12 5.44772 12 6Z" fill="#797878"/>
<path fill-rule="evenodd" clip-rule="evenodd" d="M17 13C17 15.7614 14.7614 18 12 18C9.23858 18 7 15.7614 7 13C7 10.2386 9.23858 8 12 8C14.7614 8 17 10.2386 17 13ZM15 13C15 14.6569 13.6569 16 12 16C10.3431 16 9 14.6569 9 13C9 11.3431 10.3431 10 12 10C13.6569 10 15 11.3431 15 13Z" fill="#797878"/>
<path fill-rule="evenodd" clip-rule="evenodd" d="M4 4C4 2.89543 4.89543 2 6 2H18C19.1046 2 20 2.89543 20 4V19C20 20.1046 19.1046 21 18 21H6C4.89543 21 4 20.1046 4 19V4ZM6 4H18V19H6V4Z" fill="#797878"/>
</symbol>

<symbol viewBox="0 0 24 24" id="icon-fat-label">
<path d="M15.3601 9.44344C16.0811 9.44344 16.6655 8.85898 16.6655 8.13801C16.6655 7.41704 16.0811 6.83258 15.3601 6.83258C14.6391 6.83258 14.0547 7.41704 14.0547 8.13801C14.0547 8.85898 14.6391 9.44344 15.3601 9.44344Z" fill="#797878"/>
<path fill-rule="evenodd" clip-rule="evenodd" d="M1.70711 14.4763C1.31658 14.0858 1.31658 13.4526 1.70711 13.0621L11.7371 3.03216C11.9519 2.81735 12.2527 2.71183 12.5546 2.74538L19.5895 3.52704C20.0544 3.57869 20.4213 3.94564 20.473 4.41049L21.2546 11.4454C21.2882 11.7473 21.1826 12.0481 20.9678 12.2629L10.9379 22.2929C10.5474 22.6834 9.91419 22.6834 9.52366 22.2929L1.70711 14.4763ZM10.2308 20.1716L3.82843 13.7692L12.8114 4.78622L18.5735 5.42646L19.2138 11.1886L10.2308 20.1716Z" fill="#797878"/>
</symbol>

<symbol viewBox="0 0 24 24" id="icon-fat-laptop">
<path d="M11.0081 8C11.5604 8 12.0081 7.55228 12.0081 7C12.0081 6.44772 11.5604 6 11.0081 6C10.4558 6 10.0081 6.44772 10.0081 7C10.0081 7.55228 10.4558 8 11.0081 8Z" fill="#797878"/>
<path d="M9.00812 7C9.00812 7.55228 8.5604 8 8.00812 8C7.45583 8 7.00812 7.55228 7.00812 7C7.00812 6.44772 7.45583 6 8.00812 6C8.5604 6 9.00812 6.44772 9.00812 7Z" fill="#797878"/>
<path d="M8.00812 11C8.5604 11 9.00812 10.5523 9.00812 10C9.00812 9.44771 8.5604 9 8.00812 9C7.45583 9 7.00812 9.44771 7.00812 10C7.00812 10.5523 7.45583 11 8.00812 11Z" fill="#797878"/>
<path fill-rule="evenodd" clip-rule="evenodd" d="M4.00812 4V15H3.00812C2.45583 15 2.00812 15.4477 2.00812 16V20C2.00812 20.5523 2.45583 21 3.00812 21H21.0081C21.5604 21 22.0081 20.5523 22.0081 20V16C22.0081 15.4477 21.5604 15 21.0081 15H20.0081V4C20.0081 3.44772 19.5604 3 19.0081 3H5.00812C4.45583 3 4.00812 3.44772 4.00812 4ZM6.00812 5V15H18.0081V5H6.00812ZM4.00812 19V17H20.0081V19H4.00812Z" fill="#797878"/>
</symbol>

<symbol viewBox="0 0 24 24" id="icon-fat-parfume">
<path fill-rule="evenodd" clip-rule="evenodd" d="M13.0093 6.06978C13.0115 6.13336 13.0166 6.19618 13.0246 6.25812C12.4177 6.60152 12.0081 7.25292 12.0081 8V10C12.0081 10.2373 12.0494 10.465 12.1253 10.6761C10.8366 11.3421 10.0081 12.5578 10.0081 14.5714C10.0081 16.24 10.577 18.4305 11.5052 20.1355C11.2079 20.3088 11.0081 20.6311 11.0081 21C11.0081 21.5523 11.4558 22 12.0081 22H19.0081C19.5604 22 20.0081 21.5523 20.0081 21C20.0081 20.6311 19.8083 20.3088 19.511 20.1355C20.4392 18.4305 21.0081 16.24 21.0081 14.5714C21.0081 12.5578 20.1796 11.3421 18.8909 10.6761C18.9668 10.465 19.0081 10.2373 19.0081 10V8C19.0081 7.25292 18.5985 6.60152 17.9916 6.25812C18.0025 6.17362 18.0081 6.08747 18.0081 6V5C18.0081 3.89543 17.1127 3 16.0081 3H15.0081C14.2551 3 13.5993 3.41612 13.2582 4.03094C11.4582 4.17899 9.53433 4.8674 7.9869 6.28846C6.3482 7.79333 5.20901 10.0488 5.03215 13.1443C3.32014 13.4687 2.00812 15.3163 2.00812 17.5469C2.00812 20.0063 3.6031 22 5.57062 22C7.53813 22 9.13312 20.0063 9.13312 17.5469C9.13312 15.7318 8.26437 14.1703 7.01828 13.4768C7.12717 10.7129 8.09897 8.90093 9.33968 7.76154C10.4014 6.78653 11.7191 6.25001 13.0093 6.06978ZM16.0081 5H15.0081V6H16.0081V5ZM17.0081 8V10H14.0081V8H17.0081ZM15.5081 12C14.1719 12 13.2855 12.2524 12.7793 12.6129C12.3958 12.8861 12.0081 13.3707 12.0081 14.5714C12.0081 15.4829 12.2401 16.7098 12.6826 17.8965C13.0049 18.7605 13.3933 19.4818 13.783 20H17.2333C17.6229 19.4818 18.0114 18.7605 18.3336 17.8965C18.7762 16.7098 19.0081 15.4829 19.0081 14.5714C19.0081 13.3707 18.6204 12.8861 18.2369 12.6129C17.7307 12.2524 16.8444 12 15.5081 12ZM7.13312 17.5469C7.13312 19.3412 6.04016 20 5.57062 20C5.10107 20 4.00812 19.3412 4.00812 17.5469C4.00812 15.7525 5.10107 15.0938 5.57062 15.0938C6.04016 15.0938 7.13312 15.7525 7.13312 17.5469Z" fill="#797878"/>
</symbol>

<symbol viewBox="0 0 24 24" id="icon-fat-smartphone">
<path d="M13 17C13 17.5523 12.5523 18 12 18C11.4477 18 11 17.5523 11 17C11 16.4477 11.4477 16 12 16C12.5523 16 13 16.4477 13 17Z" fill="#797878"/>
<path fill-rule="evenodd" clip-rule="evenodd" d="M5 4C5 2.89543 5.89543 2 7 2H17C18.1046 2 19 2.89543 19 4V19C19 20.1046 18.1046 21 17 21H7C5.89543 21 5 20.1046 5 19V4ZM7 4H17V19H7L7 4Z" fill="#797878"/>
</symbol>


<symbol viewBox="0 0 24 24" id="icon-fat-sport">
<path fill-rule="evenodd" clip-rule="evenodd" d="M13.6668 16.4536C15.4854 16.1614 17.3096 15.1189 18.661 13.4231C21.2266 10.2039 21.1169 5.8493 18.416 3.69684C15.7151 1.54438 11.4458 2.40915 8.88029 5.62837C7.7229 7.08065 7.10997 8.764 7.03377 10.372L7.00867 10.3687C6.97757 10.6033 6.95413 10.9572 6.92833 11.3468C6.91829 11.4984 6.90788 11.6555 6.89653 11.813C6.85343 12.4112 6.79212 13.11 6.6812 13.8375C6.45572 15.3165 6.04552 16.7615 5.30278 17.7107L5.28141 17.7373L3.29064 20.2354L4.85471 21.4819L6.84557 18.9838L6.86477 18.9599C7.47473 18.2158 8.75517 17.6259 10.2389 17.1997C11.4536 16.8507 12.6199 16.6591 13.3236 16.5434L13.3248 16.5432C13.4582 16.5213 13.575 16.5021 13.6723 16.4851L13.6668 16.4536ZM16.3725 12.9606C16.6235 12.7274 16.866 12.4664 17.097 12.1767C17.328 11.8868 17.5282 11.5921 17.6996 11.2954L16.0643 9.99209L14.7372 11.6573L16.3725 12.9606ZM14.0736 12.49L15.5112 13.6357C14.5014 14.2941 13.4224 14.5695 12.4524 14.5243L14.0736 12.49ZM13.2585 11.8404L11.2976 14.3009C10.9549 14.1777 10.6424 14.0062 10.3718 13.7906C10.1012 13.5749 9.86418 13.3084 9.66755 13.0017L11.6284 10.5413L13.2585 11.8404ZM13.9221 11.0077L15.2492 9.34253L13.6191 8.0434L12.292 9.70861L13.9221 11.0077ZM16.7279 9.15939L18.1655 10.3051C18.5818 9.17386 18.6095 8.06068 18.349 7.12528L16.7279 9.15939ZM17.8736 6.04947L15.9128 8.50983L14.2827 7.2107L16.2434 4.75043C16.5862 4.87368 16.8989 5.04521 17.1695 5.2609C17.4401 5.47652 17.677 5.74291 17.8736 6.04947ZM13.4676 6.56114L15.0886 4.52722C14.1187 4.48209 13.04 4.75751 12.0303 5.41567L13.4676 6.56114ZM11.4769 9.05905L12.804 7.39384L11.1689 6.09078C10.918 6.32402 10.6754 6.585 10.4444 6.87485C10.2134 7.16465 10.0132 7.45933 9.84184 7.75598L11.4769 9.05905ZM9.37594 8.74625L10.8133 9.89175L9.19226 11.9258C8.93184 10.9904 8.95961 9.87736 9.37594 8.74625ZM9.21046 15.4211C9.18192 15.3993 9.15354 15.3771 9.12533 15.3547C8.91555 15.1875 8.7214 15.007 8.54293 14.8148C8.48616 15.113 8.41984 15.4182 8.34169 15.7251C8.63362 15.6123 8.92547 15.5115 9.21046 15.4211Z" fill="#797878"/>
<path d="M4.30176 8.26958C5.13019 8.26958 5.80176 7.59801 5.80176 6.76958C5.80176 5.94116 5.13019 5.26958 4.30176 5.26958C3.47333 5.26958 2.80176 5.94116 2.80176 6.76958C2.80176 7.59801 3.47333 8.26958 4.30176 8.26958Z" fill="#797878"/>
</symbol>

<symbol viewBox="0 0 24 24" id="icon-fat-tools">
<path fill-rule="evenodd" clip-rule="evenodd" d="M10.75 11H13C14.3088 11 15.4219 10.1619 15.8318 8.99302C15.8872 8.99764 15.9433 9 16 9H18C19.1046 9 20 8.10457 20 7H22V6H20C20 4.89543 19.1046 4 18 4H16C15.9433 4 15.8872 4.00236 15.8318 4.00698C15.4219 2.83814 14.3088 2 13 2H6C4.34315 2 3 3.34315 3 5V8C3 9.5731 4.21078 10.8634 5.75127 10.9898L5.25 15H5C3.89543 15 3 15.8954 3 17V19C3 20.1046 3.89543 21 5 21H11C12.1046 21 13 20.1046 13 19V17C13 15.8954 12.1046 15 11 15H10.25L10.75 11ZM13 4H6C5.44772 4 5 4.44772 5 5V8C5 8.55228 5.44772 9 6 9H13C13.5523 9 14 8.55228 14 8V5C14 4.44772 13.5523 4 13 4ZM8.73444 11H7.76556L7.26556 15H8.23444L8.73444 11ZM5 17L5 19H11L11 17H5ZM16 6V7H18V6H16Z" fill="#797878"/>
</symbol>

<symbol viewBox="0 0 24 24" id="icon-tag">
<path d="M15.4999 10.0251C16.3284 10.0251 16.9999 9.35353 16.9999 8.5251C16.9999 7.69667 16.3284 7.0251 15.4999 7.0251C14.6715 7.0251 13.9999 7.69667 13.9999 8.5251C13.9999 9.35353 14.6715 10.0251 15.4999 10.0251Z" fill="#797878"/>
<path fill-rule="evenodd" clip-rule="evenodd" d="M21 6C21 4.34314 19.6568 2.99999 18 3L13.3284 3.00002C12.5327 3.00003 11.7697 3.3161 11.2071 3.8787L3.20705 11.8787C2.03547 13.0503 2.03548 14.9498 3.20706 16.1214L7.91446 20.8287C9.06486 21.9791 10.9225 22.0029 12.102 20.8824L20.0662 13.3163C20.6624 12.7499 21 11.9637 21 11.1413V6ZM18 5C18.5522 5 19 5.44771 19 6V11.1413C19 11.4154 18.8874 11.6775 18.6887 11.8663L10.7245 19.4324C10.3314 19.8059 9.71213 19.798 9.32866 19.4145L4.62127 14.7072C4.23074 14.3166 4.23074 13.6835 4.62126 13.2929L12.6213 5.29292C12.8088 5.10538 13.0632 5.00002 13.3284 5.00002L18 5Z" fill="#797878"/>
</symbol>


</defs>
</svg>