<svg width="80" height="40" viewBox="0 0 80 40" fill="none" xmlns="http://www.w3.org/2000/svg">
<path fill-rule="evenodd" clip-rule="evenodd" d="M33.5012 20.944L30.0931 29.721L29.7296 27.9377C28.8809 25.7509 27.0433 23.4568 24.9033 22.5271L28.0211 33.7973L31.7068 33.7956L37.188 20.944H33.5012Z" fill="#1B548E"/>
<path fill-rule="evenodd" clip-rule="evenodd" d="M36.4225 33.8099L38.6013 20.9315H42.0831L39.9028 33.8099H36.4225Z" fill="#1B548E"/>
<path fill-rule="evenodd" clip-rule="evenodd" d="M52.5334 21.249C51.8453 20.9893 50.7597 20.7071 49.413 20.7071C45.9684 20.7071 43.5486 22.4555 43.5275 24.9563C43.5053 26.8086 45.2579 27.8419 46.5753 28.4573C47.9349 29.087 48.389 29.4912 48.3847 30.0546C48.3714 30.9174 47.297 31.3107 46.2983 31.3107C44.9065 31.3107 44.1648 31.1166 43.0237 30.6376L42.5715 30.4322L42.0842 33.3143C42.8989 33.6731 44.4027 33.9841 45.9659 34.0001C49.6212 34.0001 51.9995 32.2715 52.0278 29.6022C52.0425 28.133 51.1122 27.0208 49.1013 26.1027C47.8877 25.5058 47.137 25.1101 47.1481 24.505C47.1492 23.9706 47.7778 23.3979 49.1432 23.3979C50.2835 23.3798 51.1036 23.6295 51.7491 23.893L52.0596 24.0406L52.5334 21.249ZM61.4637 20.9449H58.7737C57.9397 20.9449 57.3146 21.1718 56.9465 22.0137L51.7777 33.8139H55.4348C55.4348 33.8139 56.0326 32.2257 56.1679 31.8775C56.5668 31.8775 60.1187 31.8854 60.6257 31.8854C60.7334 32.3344 61.0497 33.8139 61.0497 33.8139H64.2831L61.4637 20.9449ZM57.1697 29.2435C57.4588 28.5044 58.5569 25.6438 58.5569 25.6438C58.5354 25.6786 58.8424 24.8989 59.0199 24.4168L59.2518 25.5269C59.2518 25.5269 59.9208 28.6001 60.0604 29.2435H57.1697Z" fill="#1B548E"/>
<path fill-rule="evenodd" clip-rule="evenodd" d="M26.9314 20.9372H21.3157L21.2828 21.1589C25.649 22.2254 28.53 24.8441 29.7294 27.9408L28.5089 22.0221C28.2993 21.2078 27.6881 20.9659 26.9314 20.9372Z" fill="#E89F3E"/>
<path fill-rule="evenodd" clip-rule="evenodd" d="M10.7819 17.8249H8.5613L6 6.79888L8.454 6.40698L10.2066 15.036L14.6703 6.52096H17.0275L10.7819 17.8249Z" fill="#1B548E"/>
<path fill-rule="evenodd" clip-rule="evenodd" d="M22.329 14.2207H17.034C16.8894 15.7538 17.6354 16.4228 18.8995 16.4228C19.9586 16.4228 20.8903 16.0473 21.8929 15.4439L21.885 16.9771C20.9018 17.5644 19.7654 17.9396 18.433 17.9396C16.1273 17.9396 14.6045 16.6836 15.0621 13.8452C15.4747 11.2845 17.3299 9.73533 19.482 9.73533C21.9587 9.73533 22.7824 11.5131 22.4224 13.7478C22.3963 13.9108 22.3473 14.1065 22.329 14.2207ZM19.213 11.0891C18.3929 11.0891 17.6268 11.7086 17.2655 12.9974H20.5447C20.6052 11.7738 20.2034 11.0891 19.213 11.0891ZM25.7804 13.2585L25.0523 17.7766H23.0028L24.2723 9.89797H26.0147L26.0158 11.4803C26.7096 10.567 27.6531 9.80059 28.9444 9.73533L28.9562 11.6761C27.662 11.7578 26.4978 12.4101 25.7804 13.2585ZM28.9294 17.7766L30.1992 9.89797H32.2487L30.9792 17.7766H28.9294ZM31.454 8.57701C30.771 8.57701 30.298 8.12017 30.4032 7.46789C30.5109 6.79921 31.1338 6.32597 31.8168 6.32597C32.483 6.32597 32.9532 6.79921 32.8455 7.46789C32.7403 8.12017 32.1202 8.57701 31.454 8.57701ZM37.9252 7.745C37.2246 7.745 36.8017 8.03851 36.6886 8.74034L36.5019 9.89797H38.0733L38.0719 11.4964H36.2442L35.232 17.7766H33.1997L34.2119 11.4964H33.0162L33.2738 9.89797H34.4692L34.6875 8.54421C34.9687 6.79921 36.2353 6.14658 37.9263 6.14658C38.2851 6.14658 38.5531 6.17939 38.7531 6.21185L38.7685 7.81026C38.5685 7.7778 38.2665 7.745 37.9252 7.745ZM37.9474 17.7766L39.2172 9.89797H41.2667L39.9972 17.7766H37.9474ZM40.472 8.57701C39.789 8.57701 39.316 8.12017 39.4211 7.46789C39.5288 6.79921 40.1518 6.32597 40.8348 6.32597C41.501 6.32597 41.9715 6.79921 41.8638 7.46789C41.7586 8.12017 41.1382 8.57701 40.472 8.57701ZM49.2134 14.2207H43.9183C43.7738 15.7538 44.5198 16.4228 45.7839 16.4228C46.843 16.4228 47.7743 16.0473 48.7773 15.4439L48.769 16.9771C47.7861 17.5644 46.6494 17.9396 45.317 17.9396C43.0113 17.9396 41.4889 16.6836 41.9461 13.8452C42.359 11.2845 44.2142 9.73533 46.3664 9.73533C48.8431 9.73533 49.6667 11.5131 49.3068 13.7478C49.2803 13.9108 49.2317 14.1065 49.2134 14.2207ZM46.097 11.0891C45.2769 11.0891 44.5108 11.7086 44.1498 12.9974H47.4291C47.4895 11.7738 47.0874 11.0891 46.097 11.0891ZM55.2846 17.7766L55.2896 16.6836C54.6008 17.3526 53.7038 17.9396 52.5592 17.9396C50.8339 17.9396 49.6481 16.7164 50.0764 14.0573C50.5494 11.1216 52.4508 9.81665 54.3636 9.81665C55.1497 9.81665 55.7608 9.94718 56.2295 10.1102L56.8421 6.30957L58.9416 6L57.0439 17.7766H55.2846ZM55.9694 11.725C55.4939 11.4964 55.1193 11.3823 54.419 11.3823C53.3428 11.3823 52.4232 12.2143 52.1445 13.9436C51.8976 15.4764 52.4651 16.1943 53.3703 16.1943C54.1217 16.1943 54.7708 15.7706 55.4223 15.1179L55.9694 11.725ZM63.3225 17.8508C62.3522 17.8508 61.5614 17.7021 60.8251 17.4554L62.1733 9.09091L63.7633 8.85583L63.1801 12.476C63.6449 12.0807 64.2907 11.6853 65.08 11.6853C66.3996 11.6853 67.2834 12.6246 66.9606 14.6259C66.6064 16.825 65.186 17.8508 63.3225 17.8508ZM64.4679 12.9947C63.9501 12.9947 63.4306 13.3285 62.9708 13.7737L62.5347 16.4792C62.8406 16.5903 63.0524 16.6398 63.4921 16.6398C64.4754 16.6398 65.1623 16.0716 65.3813 14.7124C65.5667 13.5633 65.1666 12.9947 64.4679 12.9947ZM70.6184 18.0978C69.8252 19.5681 69.0402 20.0253 67.8369 20.0253C67.565 20.0253 67.414 20.0003 67.2777 19.9634L67.2676 18.7402C67.4669 18.7897 67.6805 18.8266 67.9782 18.8266C68.4312 18.8266 68.8251 18.6291 69.0892 18.1965L69.2949 17.8012L67.9786 11.9201L69.628 11.7226L70.3919 15.9725L72.4604 11.809H74L70.6184 18.0978Z" fill="#1B548E"/>
</svg>
